<svg width="108" height="108" viewBox="0 0 108 108" fill="none" xmlns="http://www.w3.org/2000/svg">
<circle cx="54" cy="54" r="54" fill="white"/>
<path d="M52.7623 77.3285C51.513 77.1143 50.2733 76.8003 49.1057 76.4053C47.448 75.8438 45.992 74.7969 44.3487 74.1449C40.6489 72.6698 38.6116 69.1198 38.0686 65.3034C37.7803 63.3001 38.4578 60.916 37.7803 59.0125C37.271 57.5707 35.9592 56.3715 35.2336 55.0201C33.2492 51.3274 32.5572 46.9399 33.4173 42.8333C34.3351 38.441 37.0067 34.4533 40.6729 31.8408C41.6339 31.1556 42.7967 30.518 43.6328 29.69C44.3151 29.0142 44.7716 28.1862 45.4731 27.5058C47.2221 25.8117 49.2066 24.208 51.5707 23.4752C55.0159 22.414 58.8647 23.4038 61.863 25.3977C65.0391 27.5105 67.5665 30.4656 68.8639 34.0203C70.3054 37.9747 73.5584 40.8394 73.9091 45.2554C74.1302 48.0344 73.2557 50.7849 72.1457 53.345C71.2087 55.5054 70.0027 57.5279 69.2531 59.7501C68.417 62.2294 68.0182 64.7181 67.5377 67.283C67.038 69.9574 66.2355 72.7078 64.3376 74.6636C62.233 76.8336 59.0424 77.6996 56.0105 77.6378C54.9438 77.6187 53.8482 77.5093 52.7623 77.3285Z" fill="#72CC72" stroke="#38B038" stroke-width="4.3847" stroke-miterlimit="10"/>
<path d="M56.7984 82.9532H49.8408L53.3196 31.9741L56.7984 82.9532Z" fill="white" stroke="#38B038" stroke-width="4.3847" stroke-miterlimit="10"/>
<path d="M43.9338 43.795L42.1401 44.8943L50.6482 58.5099L52.4418 57.4107L43.9338 43.795Z" fill="#38B038"/>
<path d="M65.0394 48.5682L54.5007 60.0265L56.0567 61.43L66.5953 49.9718L65.0394 48.5682Z" fill="#38B038"/>
<path d="M62.1149 40.3567L53.7444 47.6691L55.1398 49.2356L63.5102 41.9232L62.1149 40.3567Z" fill="#38B038"/>
<path d="M49.5963 37.1548L47.8069 38.2522L51.6169 44.3451L53.4062 43.2478L49.5963 37.1548Z" fill="#38B038"/>
<path d="M46.4985 59.529L44.6602 60.5436L49.6868 69.4762L51.5252 68.4616L46.4985 59.529Z" fill="#38B038"/>
</svg>
