<svg width="108" height="108" viewBox="0 0 108 108" fill="none" xmlns="http://www.w3.org/2000/svg">
<circle cx="54" cy="54" r="54" fill="white"/>
<g clip-path="url(#clip0_4131_17)">
<path d="M63.753 54.3811C63.7592 61.8051 64.1051 82.4418 52.0732 82.0323C40.0413 81.6227 41.8171 61.0593 42.339 53.6537C42.9412 45.1141 46.0047 25.0336 54.0435 25.3087C62.1193 25.5838 63.7437 45.8232 63.753 54.3811Z" fill="#FFBB54" stroke="#FF8A05" stroke-width="2" stroke-miterlimit="10"/>
<path d="M64.2224 67.3738C63.2125 76.0326 60.3095 84.9694 51.9805 84.6852C43.2932 84.3887 41.187 74.4891 40.9245 65.4605C40.7886 60.8148 42.3822 48.2683 38.5311 41.3028C47.3635 41.6054 64.8091 62.3552 64.2224 67.3738Z" fill="white" stroke="#38B038" stroke-width="2" stroke-miterlimit="10"/>
<path d="M41.0077 66.5853C41.4123 75.2899 43.6914 84.404 52.0205 84.6883C60.7078 84.9848 63.4934 75.2471 64.3828 66.2613C64.8399 61.637 64.1203 49.011 68.447 42.3237C59.6145 42.0241 40.773 61.5361 41.0077 66.5853Z" fill="#72CC72" stroke="#38B038" stroke-width="2" stroke-miterlimit="10"/>
<path d="M53.0335 45.6857L51.5357 45.6337C51.545 45.4075 51.4616 45.1936 51.3072 45.0286C51.1528 44.8635 50.9397 44.7688 50.7112 44.7596C50.4765 44.7474 50.2665 44.8329 50.0997 44.9858C49.9329 45.1386 49.8372 45.3495 49.8279 45.5757L48.3301 45.5237C48.3517 44.9032 48.6173 44.3256 49.0744 43.9038C49.5345 43.479 50.1275 43.2589 50.7606 43.2772C51.3875 43.2986 51.9712 43.5615 52.3974 44.0138C52.8328 44.4723 53.0552 45.0652 53.0335 45.6857Z" fill="#FF8A05"/>
<path d="M58.3731 45.866L56.8753 45.8141C56.8846 45.5879 56.8012 45.3739 56.6468 45.2089C56.4924 45.0439 56.2793 44.9491 56.0508 44.9399C55.8161 44.9277 55.6061 45.0133 55.4393 45.1661C55.2725 45.3189 55.1768 45.5298 55.1675 45.756L53.6697 45.704C53.6913 45.0836 53.9569 44.5059 54.414 44.0841C54.8741 43.6593 55.4671 43.4362 56.1002 43.4576C56.7271 43.479 57.3108 43.7418 57.737 44.1942C58.1693 44.6526 58.3948 45.2456 58.3731 45.866Z" fill="#FF8A05"/>
<path d="M50.4734 42.51L48.9756 42.4581C48.991 41.9935 48.6235 41.5992 48.151 41.5839C47.6754 41.5687 47.2832 41.9324 47.2677 42.4L45.7699 42.348C45.8132 41.0674 46.9033 40.068 48.2004 40.1016C49.4975 40.1505 50.5166 41.2294 50.4734 42.51Z" fill="#FF8A05"/>
<path d="M61.1496 42.8737L59.6518 42.8218C59.6611 42.5956 59.5777 42.3816 59.4233 42.2166C59.2689 42.0516 59.0558 41.9568 58.8272 41.9476C58.5894 41.9354 58.3825 42.021 58.2158 42.1738C58.049 42.3266 57.9533 42.5375 57.944 42.7637L56.4462 42.7117C56.4678 42.0913 56.7334 41.5136 57.1905 41.0918C57.6506 40.667 58.2497 40.4469 58.8766 40.4683C59.5036 40.4897 60.0872 40.7526 60.5134 41.2049C60.9489 41.6603 61.1712 42.2533 61.1496 42.8737Z" fill="#FF8A05"/>
<path d="M53.2343 39.961L51.7365 39.9091C51.7519 39.4445 51.3844 39.0502 50.9119 39.0349C50.4456 39.0196 50.0441 39.3834 50.0287 39.851L48.5309 39.799C48.5772 38.5184 49.6581 37.519 50.9613 37.5526C52.2584 37.5984 53.2775 38.6773 53.2343 39.961Z" fill="#FF8A05"/>
<path d="M58.5739 40.1414L57.0761 40.0895C57.0854 39.8633 57.002 39.6494 56.8476 39.4843C56.6931 39.3193 56.4801 39.2245 56.2515 39.2154C56.0106 39.2062 55.8068 39.2887 55.64 39.4415C55.4733 39.5943 55.3775 39.8052 55.3683 40.0314L53.8705 39.9795C53.8921 39.359 54.1577 38.7813 54.6147 38.3596C55.0749 37.9347 55.6709 37.7177 56.3009 37.7361C56.9279 37.7575 57.5115 38.0203 57.9377 38.4727C58.3701 38.9281 58.5955 39.521 58.5739 40.1414Z" fill="#FF8A05"/>
<path d="M50.6558 37.2256L49.158 37.1736C49.1672 36.9475 49.0838 36.7335 48.9294 36.5685C48.775 36.4034 48.5619 36.3087 48.3334 36.2995C47.8671 36.2781 47.4656 36.651 47.4501 37.1156L45.9523 37.0636C45.9956 35.783 47.0765 34.7866 48.3828 34.8172C49.0097 34.8385 49.5934 35.1014 50.0196 35.5537C50.4519 36.0122 50.6774 36.6051 50.6558 37.2256Z" fill="#FF8A05"/>
<path d="M61.3348 37.5893L59.837 37.5373C59.8463 37.3112 59.7629 37.0972 59.6085 36.9322C59.4541 36.7671 59.241 36.6724 59.0125 36.6632C58.7747 36.651 58.5677 36.7366 58.401 36.8894C58.2342 37.0422 58.1385 37.2531 58.1292 37.4793L56.6314 37.4273C56.653 36.8069 56.9186 36.2292 57.3757 35.8074C57.8358 35.3826 58.4349 35.1625 59.0619 35.1839C59.6888 35.2053 60.2725 35.4682 60.6986 35.9205C61.131 36.3759 61.3564 36.9689 61.3348 37.5893Z" fill="#FF8A05"/>
<path d="M53.4164 34.6765L51.9186 34.6246C51.9279 34.3984 51.8445 34.1845 51.6901 34.0194C51.5357 33.8544 51.3226 33.7596 51.094 33.7504C50.8562 33.7413 50.6493 33.8238 50.4826 33.9766C50.3158 34.1294 50.2201 34.3403 50.2108 34.5665L48.713 34.5145C48.7346 33.8941 49.0002 33.3164 49.4573 32.8947C49.9174 32.4698 50.532 32.2559 51.1435 32.2712C52.4436 32.3139 53.4627 33.3928 53.4164 34.6765Z" fill="#FF8A05"/>
<path d="M58.7561 34.8569L57.2583 34.8049C57.2676 34.5787 57.1842 34.3648 57.0298 34.1997C56.8754 34.0347 56.6623 33.94 56.4338 33.9308C56.1929 33.9216 55.9891 34.0041 55.8223 34.157C55.6555 34.3098 55.5598 34.5207 55.5505 34.7468L54.0527 34.6949C54.0743 34.0744 54.3399 33.4968 54.797 33.075C55.2571 32.6502 55.8717 32.4393 56.4832 32.4515C57.1101 32.4729 57.6938 32.7357 58.12 33.1881C58.5523 33.6435 58.7778 34.2364 58.7561 34.8569Z" fill="#FF8A05"/>
<path d="M50.8378 31.9441L49.34 31.8921C49.3493 31.6659 49.2659 31.452 49.1115 31.287C48.9571 31.1219 48.744 31.0272 48.5155 31.018C48.3456 31.0149 48.1788 31.0577 48.0337 31.1464L47.2431 29.8902C47.6415 29.6426 48.0924 29.5234 48.571 29.5356C49.865 29.5815 50.8842 30.6604 50.8378 31.9441Z" fill="#FF8A05"/>
<path d="M58.3146 32.1978L56.8168 32.1459C56.8384 31.5254 57.104 30.9478 57.5611 30.526C58.0212 30.1012 58.6203 29.8811 59.2472 29.9025C59.5653 29.9147 59.8711 29.985 60.1552 30.1164L59.5252 31.4612C59.4233 31.4123 59.3121 31.3879 59.1947 31.3848C58.9724 31.3818 58.75 31.4582 58.5833 31.611C58.4165 31.7638 58.3208 31.9717 58.3146 32.1978Z" fill="#FF8A05"/>
<path d="M53.6019 29.3921L52.1041 29.3401C52.1195 28.8756 51.749 28.4813 51.2795 28.466C50.807 28.4385 50.4148 28.8175 50.3963 29.2821L48.8985 29.2301C48.9448 27.9495 50.0226 26.9561 51.329 26.9837C52.626 27.0295 53.6452 28.1084 53.6019 29.3921Z" fill="#FF8A05"/>
<path d="M58.9383 29.5723L57.4405 29.5204C57.4559 29.0558 57.0853 28.6615 56.6159 28.6463C56.3935 28.6432 56.1712 28.7196 56.0044 28.8724C55.8377 29.0253 55.7419 29.2361 55.7327 29.4623L54.2348 29.4104C54.2565 28.7899 54.5221 28.2123 54.9791 27.7905C55.4393 27.3656 56.0322 27.1486 56.6653 27.167C57.9655 27.2128 58.9846 28.2917 58.9383 29.5723Z" fill="#FF8A05"/>
</g>
<defs>
<clipPath id="clip0_4131_17">
<rect width="31" height="60" fill="white" transform="translate(38 25)"/>
</clipPath>
</defs>
</svg>
