<svg width="108" height="108" viewBox="0 0 108 108" fill="none" xmlns="http://www.w3.org/2000/svg">
<circle cx="54" cy="54" r="54" fill="white"/>
<g clip-path="url(#clip0_4131_12)">
<path d="M52.7855 54.4139H13V72.0055H52.7855V54.4139Z" fill="#FFB000"/>
<path d="M21.4742 59.5413C21.4742 58.3123 20.481 57.3214 19.2612 57.3214C18.0359 57.3214 17.0482 58.3177 17.0482 59.5413C17.0482 60.765 18.0413 61.7613 19.2612 61.7613C20.481 61.7613 21.4742 60.765 21.4742 59.5413Z" fill="#FFD74F"/>
<path d="M29.1442 64.6473C29.1442 63.4182 28.151 62.4274 26.9312 62.4274C25.7059 62.4274 24.7182 63.4236 24.7182 64.6473C24.7182 65.8764 25.7113 66.8672 26.9312 66.8672C28.1564 66.8726 29.1442 65.8764 29.1442 64.6473Z" fill="#FFD74F"/>
<path d="M21.4742 68.2045C21.4742 66.9755 20.481 65.9846 19.2612 65.9846C18.0359 65.9846 17.0482 66.9809 17.0482 68.2045C17.0482 69.4282 18.0413 70.4245 19.2612 70.4245C20.481 70.4245 21.4742 69.4282 21.4742 68.2045Z" fill="#FFD74F"/>
<path d="M33.7429 58.0957C33.7429 56.8666 32.7498 55.8757 31.5299 55.8757C30.3047 55.8757 29.3169 56.872 29.3169 58.0957C29.3169 59.3247 30.3101 60.3156 31.5299 60.3156C32.7498 60.3156 33.7429 59.3247 33.7429 58.0957Z" fill="#FFD74F"/>
<path d="M48.5539 60.3156C48.5539 59.0866 47.5607 58.0957 46.3409 58.0957C45.1156 58.0957 44.1279 59.092 44.1279 60.3156C44.1279 61.5447 45.121 62.5356 46.3409 62.5356C47.5661 62.541 48.5539 61.5447 48.5539 60.3156Z" fill="#FFD74F"/>
<path d="M39.1891 66.2607C39.1891 65.0316 38.196 64.0408 36.9761 64.0408C35.7509 64.0408 34.7631 65.037 34.7631 66.2607C34.7631 67.4844 35.7563 68.4806 36.9761 68.4806C38.196 68.4806 39.1891 67.4844 39.1891 66.2607Z" fill="#FFD74F"/>
<path d="M42.7838 54.3976H38.3578C38.3578 55.6267 39.351 56.6175 40.5708 56.6175C41.7961 56.6175 42.7838 55.6213 42.7838 54.3976Z" fill="#FFD74F"/>
<path d="M47.987 69.0925C47.987 67.8634 46.9939 66.8726 45.774 66.8726C44.5488 66.8726 43.561 67.8688 43.561 69.0925C43.561 70.3216 44.5542 71.3124 45.774 71.3124C46.9993 71.3124 47.987 70.3162 47.987 69.0925Z" fill="#FFD74F"/>
<path d="M13 54.4139H52.7855L44.1278 48.3876L13 54.4139Z" fill="#FFD74F"/>
<path d="M94.9945 54.4139H55.209V72.0055H94.9945V54.4139Z" fill="#FFB000"/>
<path d="M66.4251 59.5413C66.4251 58.3123 65.4319 57.3214 64.2121 57.3214C62.9868 57.3214 61.9991 58.3177 61.9991 59.5413C61.9991 60.765 62.9922 61.7613 64.2121 61.7613C65.4319 61.7613 66.4251 60.765 66.4251 59.5413Z" fill="#FFD74F"/>
<path d="M70.6784 68.6701C70.6784 67.441 69.6853 66.4502 68.4654 66.4502C67.2402 66.4502 66.2524 67.4465 66.2524 68.6701C66.2524 69.8992 67.2456 70.8901 68.4654 70.8901C69.6853 70.8901 70.6784 69.8938 70.6784 68.6701Z" fill="#FFD74F"/>
<path d="M62.3716 65.9846C62.3716 64.7555 61.3785 63.7646 60.1586 63.7646C58.9388 63.7646 57.9456 64.7609 57.9456 65.9846C57.9456 67.2137 58.9388 68.2045 60.1586 68.2045C61.3785 68.2045 62.3716 67.2082 62.3716 65.9846Z" fill="#FFD74F"/>
<path d="M75.9519 58.0957C75.9519 56.8666 74.9587 55.8757 73.7389 55.8757C72.5136 55.8757 71.5258 56.872 71.5258 58.0957C71.5258 59.3247 72.519 60.3156 73.7389 60.3156C74.9587 60.3156 75.9519 59.3247 75.9519 58.0957Z" fill="#FFD74F"/>
<path d="M90.7681 60.3156C90.7681 59.0866 89.775 58.0957 88.5551 58.0957C87.3299 58.0957 86.3421 59.092 86.3421 60.3156C86.3421 61.5447 87.3353 62.5356 88.5551 62.5356C89.775 62.541 90.7681 61.5447 90.7681 60.3156Z" fill="#FFD74F"/>
<path d="M77.8573 68.2045C79.0795 68.2045 80.0703 67.2106 80.0703 65.9846C80.0703 64.7585 79.0795 63.7646 77.8573 63.7646C76.6351 63.7646 75.6443 64.7585 75.6443 65.9846C75.6443 67.2106 76.6351 68.2045 77.8573 68.2045Z" fill="#FFD74F"/>
<path d="M84.9981 54.3976H80.5721C80.5721 55.6267 81.5652 56.6175 82.7851 56.6175C84.0049 56.6175 84.9981 55.6213 84.9981 54.3976Z" fill="#FFD74F"/>
<path d="M90.2015 69.0925C90.2015 67.8634 89.2083 66.8726 87.9885 66.8726C86.7632 66.8726 85.7755 67.8688 85.7755 69.0925C85.7755 70.3216 86.7686 71.3124 87.9885 71.3124C89.2083 71.3124 90.2015 70.3162 90.2015 69.0925Z" fill="#FFD74F"/>
<path d="M55.209 54.4139H94.9999L86.3368 48.3876L55.209 54.4139Z" fill="#FFD74F"/>
<path d="M74.7212 35.8638H34.9357V53.4554H74.7212V35.8638Z" fill="#FFB000"/>
<path d="M70.6785 40.9968C70.6785 39.7677 69.6853 38.7769 68.4655 38.7769C67.2402 38.7769 66.2524 39.7731 66.2524 40.9968C66.2524 42.2205 67.2456 43.2167 68.4655 43.2167C69.6853 43.2167 70.6785 42.2205 70.6785 40.9968Z" fill="#FFD74F"/>
<path d="M63.0032 46.1026C63.0032 44.8735 62.01 43.8827 60.7902 43.8827C59.5649 43.8827 58.5772 44.879 58.5772 46.1026C58.5772 47.3317 59.5703 48.3226 60.7902 48.3226C62.0154 48.3226 63.0032 47.3317 63.0032 46.1026Z" fill="#FFD74F"/>
<path d="M70.6785 49.66C70.6785 48.4309 69.6853 47.4401 68.4655 47.4401C67.2402 47.4401 66.2524 48.4363 66.2524 49.66C66.2524 50.8891 67.2456 51.8799 68.4655 51.8799C69.6853 51.8799 70.6785 50.8837 70.6785 49.66Z" fill="#FFD74F"/>
<path d="M58.4097 39.5511C58.4097 38.322 57.4166 37.3312 56.1967 37.3312C54.9715 37.3312 53.9837 38.3274 53.9837 39.5511C53.9837 40.7802 54.9769 41.771 56.1967 41.771C57.4166 41.771 58.4097 40.7802 58.4097 39.5511Z" fill="#FFD74F"/>
<path d="M43.5935 41.7711C43.5935 40.542 42.6003 39.5511 41.3805 39.5511C40.1552 39.5511 39.1675 40.5474 39.1675 41.7711C39.1675 43.0002 40.1606 43.991 41.3805 43.991C42.6057 43.9964 43.5935 43.0002 43.5935 41.7711Z" fill="#FFD74F"/>
<path d="M52.9635 47.716C52.9635 46.4869 51.9704 45.4961 50.7505 45.4961C49.5253 45.4961 48.5375 46.4924 48.5375 47.716C48.5375 48.9451 49.5307 49.936 50.7505 49.936C51.9704 49.936 52.9635 48.9397 52.9635 47.716Z" fill="#FFD74F"/>
<path d="M57.0442 51.2356C55.819 51.2356 54.8312 52.2319 54.8312 53.4555H59.2573C59.2573 52.2319 58.2641 51.2356 57.0442 51.2356Z" fill="#FFD74F"/>
<path d="M49.3635 35.853H44.9375C44.9375 37.0821 45.9307 38.073 47.1505 38.073C48.3758 38.073 49.3635 37.0767 49.3635 35.853Z" fill="#FFD74F"/>
<path d="M44.1601 50.5478C44.1601 49.3187 43.1669 48.3279 41.9471 48.3279C40.7218 48.3279 39.7341 49.3241 39.7341 50.5478C39.7341 51.7769 40.7272 52.7677 41.9471 52.7677C43.1723 52.7677 44.1601 51.7715 44.1601 50.5478Z" fill="#FFD74F"/>
<path d="M34.9357 35.8639H74.7212L40.6733 30L34.9357 35.8639Z" fill="#FFD74F"/>
</g>
<defs>
<clipPath id="clip0_4131_12">
<rect width="82" height="42" fill="white" transform="translate(13 30)"/>
</clipPath>
</defs>
</svg>
