<svg width="108" height="108" viewBox="0 0 108 108" fill="none" xmlns="http://www.w3.org/2000/svg">
<circle cx="54" cy="54" r="54" fill="white"/>
<g clip-path="url(#clip0_4131_14)">
<path d="M60.5111 81.2314C75.5514 77.636 84.8293 62.5288 81.2339 47.4886C77.6385 32.4483 62.5314 23.1704 47.4911 26.7658C32.4509 30.3611 23.1729 45.4683 26.7683 60.5086C30.3637 75.5488 45.4709 84.8267 60.5111 81.2314Z" fill="#FC8606"/>
<path d="M26 54.0001C26 69.465 38.535 82.0001 54 82.0001C62.4172 82.0001 69.9587 78.2829 75.092 72.4043C70.6528 74.7986 65.5754 76.1588 60.1813 76.1588C42.8065 76.1588 28.7203 62.0726 28.7203 44.6978C28.7203 43.6683 28.7716 42.6529 28.8694 41.6514C27.0341 45.3779 26 49.5655 26 54.0001Z" fill="#E57200"/>
<path d="M44.162 41.3159C43.7288 41.7398 43.9664 42.4758 44.5673 42.5643L45.8249 42.7459C46.0625 42.7785 46.2675 42.9323 46.3746 43.1465L46.9382 44.2878C47.2084 44.8328 47.9817 44.8328 48.2518 44.2878L48.8155 43.1465C48.9226 42.9323 49.1276 42.7785 49.3651 42.7459L50.6228 42.5643C51.2237 42.4758 51.4613 41.7398 51.0281 41.3159L50.1197 40.4308C49.9474 40.2632 49.8682 40.0209 49.9101 39.7834L50.1244 38.5303C50.2269 37.9341 49.598 37.4776 49.0623 37.7571L47.9397 38.3487C47.7255 38.4605 47.4739 38.4605 47.2597 38.3487L46.137 37.7571C45.6014 37.4729 44.9725 37.9294 45.075 38.5303L45.2893 39.7834C45.3312 40.0209 45.252 40.2632 45.0796 40.4308L44.162 41.3159Z" fill="#5E991A"/>
<path d="M48.9971 40.9432C48.9971 40.17 48.3683 39.5411 47.595 39.5411C46.8218 39.5411 46.1929 40.17 46.1929 40.9432C46.1929 41.7165 46.8218 42.3453 47.595 42.3453C48.3683 42.3453 48.9971 41.7165 48.9971 40.9432Z" fill="#8EC64E"/>
<path d="M69.628 44.2041C71.7568 42.7833 72.0875 39.5459 70.3687 36.97C68.6498 34.3894 65.5335 33.4531 63.4048 34.8738C61.276 36.2946 60.9453 39.532 62.6641 42.1079C64.383 44.6838 67.4993 45.6201 69.628 44.2041Z" fill="#FDB84A"/>
</g>
<defs>
<clipPath id="clip0_4131_14">
<rect width="56" height="56" fill="white" transform="translate(26 26)"/>
</clipPath>
</defs>
</svg>
