<svg width="108" height="108" viewBox="0 0 108 108" fill="none" xmlns="http://www.w3.org/2000/svg">
<circle cx="54" cy="54" r="54" fill="white"/>
<g clip-path="url(#clip0_4131_16)">
<path d="M53.4977 30.4954C63.4719 30.4954 72.812 33.2178 80.8425 37.9419L83.3703 33.5805C74.6052 28.4203 64.3982 25.4591 53.4977 25.4591C42.6017 25.4591 32.3948 28.4203 23.6251 33.5851L26.1528 37.9465C34.1834 33.2178 43.5234 30.4954 53.4977 30.4954Z" fill="#72CC72" stroke="#38B038" stroke-width="2" stroke-miterlimit="10"/>
<path d="M26.1529 37.9465L53.4977 85.091L80.8471 37.9465C72.8166 33.2179 63.4765 30.5 53.5023 30.5C43.5234 30.4954 34.1834 33.2179 26.1529 37.9465Z" fill="#FA5254" stroke="#DB2C2E" stroke-width="2" stroke-miterlimit="10"/>
<path d="M39.9553 44.8007C39.9553 44.1396 41.0686 42.7302 41.0686 42.7302C41.0686 42.7302 42.1819 44.1396 42.1819 44.8007C42.1819 45.4618 41.6846 45.999 41.0686 45.999C40.4526 45.999 39.9553 45.4618 39.9553 44.8007Z" fill="#333333"/>
<path d="M52.3889 44.8007C52.3889 44.1396 53.5022 42.7302 53.5022 42.7302C53.5022 42.7302 54.6155 44.1396 54.6155 44.8007C54.6155 45.4618 54.1182 45.999 53.5022 45.999C52.8862 45.999 52.3889 45.4618 52.3889 44.8007Z" fill="#333333"/>
<path d="M64.8179 44.8007C64.8179 44.1396 65.9312 42.7302 65.9312 42.7302C65.9312 42.7302 67.0445 44.1396 67.0445 44.8007C67.0445 45.4618 66.5472 45.999 65.9312 45.999C65.3152 45.999 64.8179 45.4618 64.8179 44.8007Z" fill="#333333"/>
<path d="M52.3889 67.5076C52.3889 66.8465 53.5022 65.4371 53.5022 65.4371C53.5022 65.4371 54.6155 66.8465 54.6155 67.5076C54.6155 68.1687 54.1182 68.7058 53.5022 68.7058C52.8862 68.7058 52.3889 68.1687 52.3889 67.5076Z" fill="#333333"/>
<path d="M46.1698 56.1542C46.1698 55.4931 47.2831 54.0837 47.2831 54.0837C47.2831 54.0837 48.3964 55.4931 48.3964 56.1542C48.3964 56.8153 47.8991 57.3524 47.2831 57.3524C46.6717 57.3524 46.1698 56.8153 46.1698 56.1542Z" fill="#333333"/>
<path d="M58.6034 56.1542C58.6034 55.4931 59.7167 54.0837 59.7167 54.0837C59.7167 54.0837 60.83 55.4931 60.83 56.1542C60.83 56.8153 60.3327 57.3524 59.7167 57.3524C59.1007 57.3524 58.6034 56.8153 58.6034 56.1542Z" fill="#333333"/>
</g>
<defs>
<clipPath id="clip0_4131_16">
<rect width="61" height="61" fill="white" transform="translate(23 25)"/>
</clipPath>
</defs>
</svg>
