<svg width="108" height="108" viewBox="0 0 108 108" fill="none" xmlns="http://www.w3.org/2000/svg">
<circle cx="54" cy="54" r="54" fill="white"/>
<g clip-path="url(#clip0_4131_15)">
<path d="M75.0163 70.5728L68.1265 77.4626L31.5376 40.8697L38.4274 33.9798C48.5309 23.8764 64.9169 23.8764 75.0204 33.9798C85.1238 44.0873 85.1238 60.4693 75.0163 70.5728Z" fill="#96844A" stroke="#635831" stroke-width="2" stroke-miterlimit="10"/>
<path d="M68.5707 77.0164C78.675 66.912 78.675 50.5296 68.5707 40.4253C58.4663 30.3209 42.0839 30.3209 31.9795 40.4253C21.8752 50.5296 21.8752 66.912 31.9795 77.0164C42.0839 87.1208 58.4663 87.1207 68.5707 77.0164Z" fill="#72CC72" stroke="#38B038" stroke-width="2" stroke-miterlimit="10"/>
<path d="M50.2765 69.5311C56.2474 69.5311 61.0879 64.6907 61.0879 58.7197C61.0879 52.7487 56.2474 47.9083 50.2765 47.9083C44.3055 47.9083 39.4651 52.7487 39.4651 58.7197C39.4651 64.6907 44.3055 69.5311 50.2765 69.5311Z" fill="white"/>
<path d="M51.101 45.1814C51.101 45.668 50.2764 46.7017 50.2764 46.7017C50.2764 46.7017 49.4519 45.668 49.4519 45.1814C49.4519 44.6947 49.8219 44.3005 50.2764 44.3005C50.7309 44.3005 51.101 44.6947 51.101 45.1814Z" fill="#333333"/>
<path d="M49.4558 72.262C49.4558 71.7754 50.2803 70.7417 50.2803 70.7417C50.2803 70.7417 51.1048 71.7754 51.1048 72.262C51.1048 72.7487 50.7348 73.1429 50.2803 73.1429C49.8218 73.1429 49.4558 72.7487 49.4558 72.262Z" fill="#333333"/>
<path d="M44.2029 46.577C44.4443 46.9993 44.2512 48.3065 44.2512 48.3065C44.2512 48.3065 43.0204 47.8198 42.7791 47.4015C42.5338 46.9792 42.6584 46.4563 43.0526 46.2271C43.4428 46.0018 43.9576 46.1587 44.2029 46.577Z" fill="#333333"/>
<path d="M56.3537 70.8624C56.1124 70.4401 56.3055 69.1329 56.3055 69.1329C56.3055 69.1329 57.5362 69.6196 57.7776 70.0379C58.0189 70.4602 57.8982 70.9871 57.5041 71.2124C57.1099 71.4416 56.5951 71.2847 56.3537 70.8624Z" fill="#333333"/>
<path d="M38.9581 51.2225C39.3804 51.4639 39.8631 52.6946 39.8631 52.6946C39.8631 52.6946 38.5559 52.8917 38.1336 52.6463C37.7113 52.405 37.5544 51.8862 37.7837 51.492C38.0089 51.0978 38.5358 50.9772 38.9581 51.2225Z" fill="#333333"/>
<path d="M61.5985 66.2209C61.1762 65.9796 60.6935 64.7488 60.6935 64.7488C60.6935 64.7488 62.0007 64.5517 62.423 64.7971C62.8454 65.0384 63.0022 65.5573 62.773 65.9514C62.5437 66.3416 62.0168 66.4663 61.5985 66.2209Z" fill="#333333"/>
<path d="M36.738 57.8992C37.2247 57.8992 38.2583 58.7237 38.2583 58.7237C38.2583 58.7237 37.2247 59.5482 36.738 59.5482C36.2513 59.5482 35.8571 59.1782 35.8571 58.7237C35.8571 58.2652 36.2513 57.8992 36.738 57.8992Z" fill="#333333"/>
<path d="M63.8147 59.5442C63.328 59.5442 62.2943 58.7197 62.2943 58.7197C62.2943 58.7197 63.328 57.8951 63.8147 57.8951C64.3014 57.8951 64.6955 58.2652 64.6955 58.7197C64.6955 59.1742 64.3014 59.5442 63.8147 59.5442Z" fill="#333333"/>
<path d="M38.1336 64.7972C38.5559 64.5558 39.8631 64.7489 39.8631 64.7489C39.8631 64.7489 39.3765 65.9797 38.9582 66.221C38.5358 66.4663 38.0089 66.3416 37.7837 65.9475C37.5544 65.5573 37.7153 65.0385 38.1336 64.7972Z" fill="#333333"/>
<path d="M62.4189 52.6464C61.9966 52.8877 60.6894 52.6946 60.6894 52.6946C60.6894 52.6946 61.1761 51.4639 61.5944 51.2225C62.0167 50.9812 62.5396 51.1019 62.7688 51.496C62.9981 51.8862 62.8412 52.405 62.4189 52.6464Z" fill="#333333"/>
<path d="M42.775 70.0419C43.0163 69.6196 44.2471 69.137 44.2471 69.137C44.2471 69.137 44.4442 70.4441 44.1988 70.8665C43.9575 71.2888 43.4386 71.4456 43.0445 71.2164C42.6543 70.9871 42.5337 70.4602 42.775 70.0419Z" fill="#333333"/>
<path d="M57.7775 47.4015C57.5362 47.8238 56.3055 48.3065 56.3055 48.3065C56.3055 48.3065 56.1084 46.9993 56.3537 46.577C56.5951 46.1547 57.1139 45.9978 57.5081 46.2271C57.8982 46.4563 58.0189 46.9792 57.7775 47.4015Z" fill="#333333"/>
<path d="M38.6607 45.9497C39.0026 46.2916 39.1514 47.5947 39.1514 47.5947C39.1514 47.5947 37.8483 47.4459 37.5064 47.104C37.1645 46.7621 37.1484 46.2272 37.4662 45.9095C37.7839 45.5917 38.3188 45.6078 38.6607 45.9497Z" fill="#333333"/>
<path d="M61.8922 71.4939C61.5504 71.152 61.4016 69.8489 61.4016 69.8489C61.4016 69.8489 62.7047 69.9977 63.0466 70.3396C63.3885 70.6814 63.4045 71.2164 63.0868 71.5341C62.7691 71.8519 62.2341 71.8358 61.8922 71.4939Z" fill="#333333"/>
<path d="M33.8946 53.4508C34.3612 53.5755 35.1415 54.6293 35.1415 54.6293C35.1415 54.6293 33.9389 55.1521 33.4723 55.0274C33.0058 54.9028 32.7242 54.4483 32.8409 54.0139C32.9535 53.5755 33.4281 53.3261 33.8946 53.4508Z" fill="#333333"/>
<path d="M66.6625 63.9927C66.1959 63.868 65.4156 62.8143 65.4156 62.8143C65.4156 62.8143 66.6182 62.2914 67.0848 62.4161C67.5513 62.5408 67.8329 62.9952 67.7162 63.4296C67.5996 63.868 67.129 64.1174 66.6625 63.9927Z" fill="#333333"/>
<path d="M33.4682 62.4161C33.9348 62.2914 35.1374 62.8143 35.1374 62.8143C35.1374 62.8143 34.3571 63.868 33.8905 63.9927C33.424 64.1174 32.9534 63.864 32.8367 63.4296C32.7201 62.9952 33.0057 62.5408 33.4682 62.4161Z" fill="#333333"/>
<path d="M67.0848 55.0275C66.6182 55.1522 65.4156 54.6293 65.4156 54.6293C65.4156 54.6293 66.1959 53.5755 66.6625 53.4509C67.129 53.3262 67.5996 53.5796 67.7162 54.0139C67.8329 54.4483 67.5513 54.9028 67.0848 55.0275Z" fill="#333333"/>
<path d="M37.5064 70.3396C37.8483 69.9977 39.1514 69.8489 39.1514 69.8489C39.1514 69.8489 39.0026 71.152 38.6607 71.4939C38.3188 71.8358 37.7839 71.8519 37.4662 71.5341C37.1484 71.2164 37.1645 70.6774 37.5064 70.3396Z" fill="#333333"/>
<path d="M63.0467 47.104C62.7089 47.4459 61.4057 47.5947 61.4057 47.5947C61.4057 47.5947 61.5545 46.2916 61.8964 45.9497C62.2383 45.6078 62.7732 45.5917 63.091 45.9095C63.4087 46.2272 63.3886 46.7621 63.0467 47.104Z" fill="#333333"/>
<path d="M45.0036 75.1057C45.1283 74.6392 46.1821 73.8589 46.1821 73.8589C46.1821 73.8589 46.7049 75.0615 46.5802 75.5281C46.4556 75.9946 46.0011 76.2762 45.5667 76.1595C45.1323 76.0469 44.8789 75.5723 45.0036 75.1057Z" fill="#333333"/>
<path d="M55.5496 42.3377C55.4249 42.8043 54.3711 43.5845 54.3711 43.5845C54.3711 43.5845 53.8483 42.3819 53.973 41.9154C54.0976 41.4488 54.5521 41.1673 54.9865 41.2839C55.4209 41.3965 55.6743 41.8711 55.5496 42.3377Z" fill="#333333"/>
<path d="M53.973 75.528C53.8483 75.0615 54.3711 73.8589 54.3711 73.8589C54.3711 73.8589 55.4249 74.6392 55.5496 75.1057C55.6743 75.5723 55.4209 76.0429 54.9865 76.1595C54.5521 76.2802 54.0976 75.9946 53.973 75.528Z" fill="#333333"/>
<path d="M46.5841 41.9155C46.7088 42.382 46.1859 43.5847 46.1859 43.5847C46.1859 43.5847 45.1321 42.8044 45.0074 42.3378C44.8827 41.8712 45.1361 41.4007 45.5705 41.284C46.0049 41.1634 46.4594 41.4489 46.5841 41.9155Z" fill="#333333"/>
</g>
<defs>
<clipPath id="clip0_4131_15">
<rect width="67" height="77" fill="white" transform="translate(20 17)"/>
</clipPath>
</defs>
</svg>
