<svg width="5" height="32" viewBox="0 0 5 32" fill="none" xmlns="http://www.w3.org/2000/svg">
<path fill-rule="evenodd" clip-rule="evenodd" d="M3.42404 14.3324V0.15625C2.21524 0.15625 1.14646 1.47615 1.14646 3.19793V14.3336H3.42404V14.3324Z" fill="#C8D9DC"/>
<path fill-rule="evenodd" clip-rule="evenodd" d="M1.39317 14.7739H3.28793C3.00404 15.2028 2.90898 15.6457 3.23912 16.2094H1.39317C1.79011 15.7202 1.65522 15.1758 1.39317 14.7739Z" fill="#C8D9DC"/>
<path fill-rule="evenodd" clip-rule="evenodd" d="M0.716141 14.6201V14.552C0.716141 14.3659 0.795785 14.2144 1.08996 14.2144H3.478C3.77345 14.2144 3.90063 14.3659 3.90063 14.552V14.6201C3.90063 14.8063 3.77345 14.9578 3.478 14.9578H1.08996C0.795785 14.9578 0.716141 14.8063 0.716141 14.6201Z" fill="#9EC4CB"/>
<path fill-rule="evenodd" clip-rule="evenodd" d="M0.615967 30.0109C0.614682 29.9903 0.614685 29.9698 0.614685 29.948L0.615967 29.9364L1.33662 19.0049L1.48563 16.7554H3.16972L3.34186 18.9715L4.19868 30.0096L4.21024 30.1585C4.21024 32.6045 0.672489 32.5852 0.615967 30.0109Z" fill="#585880"/>
<path fill-rule="evenodd" clip-rule="evenodd" d="M0.934631 16.6744V16.5152C0.934631 16.3316 1.08364 16.1826 1.26734 16.1826H3.39846C3.58216 16.1826 3.73117 16.3316 3.73117 16.5152V16.6744C3.73117 16.858 3.58216 17.0069 3.39846 17.0069H1.26734C1.08364 17.0069 0.934631 16.858 0.934631 16.6744Z" fill="#9EC4CB"/>
</svg>
