<svg width="92" height="47" viewBox="0 0 92 47" fill="none" xmlns="http://www.w3.org/2000/svg">
<path fill-rule="evenodd" clip-rule="evenodd" d="M0 46.7422H45V26.7422H0V46.7422Z" fill="#FFB000"/>
<path fill-rule="evenodd" clip-rule="evenodd" d="M9.5022 32.875C9.5022 31.5096 8.39033 30.4033 7.01881 30.4033C5.64849 30.4033 4.53662 31.5096 4.53662 32.875C4.53662 34.2404 5.64849 35.3474 7.01881 35.3474C8.39033 35.3474 9.5022 34.2404 9.5022 32.875" fill="#FFD74F"/>
<path fill-rule="evenodd" clip-rule="evenodd" d="M18.1058 38.5607C18.1058 37.1953 16.994 36.0884 15.6224 36.0884C14.2515 36.0884 13.1396 37.1953 13.1396 38.5607C13.1396 39.9261 14.2515 41.0324 15.6224 41.0324C16.994 41.0324 18.1058 39.9261 18.1058 38.5607" fill="#FFD74F"/>
<path fill-rule="evenodd" clip-rule="evenodd" d="M9.5022 42.5158C9.5022 41.1504 8.39033 40.0435 7.01881 40.0435C5.64849 40.0435 4.53662 41.1504 4.53662 42.5158C4.53662 43.8812 5.64849 44.9875 7.01881 44.9875C8.39033 44.9875 9.5022 43.8812 9.5022 42.5158" fill="#FFD74F"/>
<path fill-rule="evenodd" clip-rule="evenodd" d="M23.2577 31.2686C23.2577 29.9032 22.1458 28.7969 20.7743 28.7969C19.4034 28.7969 18.2915 29.9032 18.2915 31.2686C18.2915 32.634 19.4034 33.7403 20.7743 33.7403C22.1458 33.7403 23.2577 32.634 23.2577 31.2686" fill="#FFD74F"/>
<path fill-rule="evenodd" clip-rule="evenodd" d="M39.8712 33.7403C39.8712 32.3755 38.7593 31.2686 37.3878 31.2686C36.0169 31.2686 34.905 32.3755 34.905 33.7403C34.905 35.1057 36.0169 36.2126 37.3878 36.2126C38.7593 36.2126 39.8712 35.1057 39.8712 33.7403" fill="#FFD74F"/>
<path fill-rule="evenodd" clip-rule="evenodd" d="M29.3652 40.3531C29.3652 38.9877 28.2534 37.8813 26.8818 37.8813C25.5115 37.8813 24.3997 38.9877 24.3997 40.3531C24.3997 41.7185 25.5115 42.8254 26.8818 42.8254C28.2534 42.8254 29.3652 41.7185 29.3652 40.3531" fill="#FFD74F"/>
<path fill-rule="evenodd" clip-rule="evenodd" d="M33.3999 27.1504H28.4343C28.4343 28.5152 29.5456 29.6221 30.9165 29.6221C32.288 29.6221 33.3999 28.5152 33.3999 27.1504" fill="#FFD74F"/>
<path fill-rule="evenodd" clip-rule="evenodd" d="M39.2346 43.5041C39.2346 42.1386 38.1234 41.0317 36.7518 41.0317C35.3809 41.0317 34.269 42.1386 34.269 43.5041C34.269 44.8695 35.3809 45.9758 36.7518 45.9758C38.1234 45.9758 39.2346 44.8695 39.2346 43.5041" fill="#FFD74F"/>
<path fill-rule="evenodd" clip-rule="evenodd" d="M0 27.1666H44.617L34.9049 20.4619L0 27.1666Z" fill="#FFD74F"/>
<mask id="mask0_4070_642" style="mask-type:luminance" maskUnits="userSpaceOnUse" x="0" y="0" width="92" height="47">
<path fill-rule="evenodd" clip-rule="evenodd" d="M0 46.7421H91.9504V0H0V46.7421Z" fill="white"/>
</mask>
<g mask="url(#mask0_4070_642)">
<path fill-rule="evenodd" clip-rule="evenodd" d="M47.334 46.7419H91.9504V27.167H47.334V46.7419Z" fill="#FFB000"/>
<path fill-rule="evenodd" clip-rule="evenodd" d="M59.9087 32.875C59.9087 31.5096 58.7968 30.4033 57.4253 30.4033C56.0544 30.4033 54.9431 31.5096 54.9431 32.875C54.9431 34.2404 56.0544 35.3474 57.4253 35.3474C58.7968 35.3474 59.9087 34.2404 59.9087 32.875" fill="#FFD74F"/>
<path fill-rule="evenodd" clip-rule="evenodd" d="M64.6763 43.0348C64.6763 41.6694 63.565 40.5625 62.1935 40.5625C60.8226 40.5625 59.7107 41.6694 59.7107 43.0348C59.7107 44.4002 60.8226 45.5065 62.1935 45.5065C63.565 45.5065 64.6763 44.4002 64.6763 43.0348" fill="#FFD74F"/>
<path fill-rule="evenodd" clip-rule="evenodd" d="M55.3627 40.0435C55.3627 38.6781 54.2508 37.5718 52.8793 37.5718C51.5084 37.5718 50.3965 38.6781 50.3965 40.0435C50.3965 41.4089 51.5084 42.5158 52.8793 42.5158C54.2508 42.5158 55.3627 41.4089 55.3627 40.0435" fill="#FFD74F"/>
<path fill-rule="evenodd" clip-rule="evenodd" d="M70.5911 31.2686C70.5911 29.9032 69.4792 28.7969 68.1083 28.7969C66.7374 28.7969 65.6255 29.9032 65.6255 31.2686C65.6255 32.634 66.7374 33.7403 68.1083 33.7403C69.4792 33.7403 70.5911 32.634 70.5911 31.2686" fill="#FFD74F"/>
<path fill-rule="evenodd" clip-rule="evenodd" d="M87.2046 33.7403C87.2046 32.3755 86.0927 31.2686 84.7218 31.2686C83.3509 31.2686 82.239 32.3755 82.239 33.7403C82.239 35.1057 83.3509 36.2126 84.7218 36.2126C86.0927 36.2126 87.2046 35.1057 87.2046 33.7403" fill="#FFD74F"/>
<path fill-rule="evenodd" clip-rule="evenodd" d="M75.2092 40.0435C75.2092 38.6781 74.0974 37.5718 72.7264 37.5718C71.3555 37.5718 70.2437 38.6781 70.2437 40.0435C70.2437 41.4089 71.3555 42.5158 72.7264 42.5158C74.0974 42.5158 75.2092 41.4089 75.2092 40.0435" fill="#FFD74F"/>
<path fill-rule="evenodd" clip-rule="evenodd" d="M80.7334 27.1504H75.7678C75.7678 28.5152 76.8797 29.6221 78.2506 29.6221C79.6221 29.6221 80.7334 28.5152 80.7334 27.1504" fill="#FFD74F"/>
<path fill-rule="evenodd" clip-rule="evenodd" d="M86.5686 43.5041C86.5686 42.1386 85.4567 41.0317 84.0852 41.0317C82.7143 41.0317 81.603 42.1386 81.603 43.5041C81.603 44.8695 82.7143 45.9758 84.0852 45.9758C85.4567 45.9758 86.5686 44.8695 86.5686 43.5041" fill="#FFD74F"/>
<path fill-rule="evenodd" clip-rule="evenodd" d="M47.334 27.1666H91.9504L82.2389 20.4619L47.334 27.1666Z" fill="#FFD74F"/>
<path fill-rule="evenodd" clip-rule="evenodd" d="M24.5962 26.1037H69.2132V6.52881H24.5962V26.1037Z" fill="#FFB000"/>
<path fill-rule="evenodd" clip-rule="evenodd" d="M64.6763 12.237C64.6763 10.8716 63.565 9.76465 62.1935 9.76465C60.8226 9.76465 59.7107 10.8716 59.7107 12.237C59.7107 13.6024 60.8226 14.7093 62.1935 14.7093C63.565 14.7093 64.6763 13.6024 64.6763 12.237" fill="#FFD74F"/>
<path fill-rule="evenodd" clip-rule="evenodd" d="M56.0732 17.9219C56.0732 16.5565 54.9614 15.4502 53.5899 15.4502C52.2189 15.4502 51.1077 16.5565 51.1077 17.9219C51.1077 19.2873 52.2189 20.3942 53.5899 20.3942C54.9614 20.3942 56.0732 19.2873 56.0732 17.9219" fill="#FFD74F"/>
<path fill-rule="evenodd" clip-rule="evenodd" d="M64.6763 21.8765C64.6763 20.5111 63.565 19.4048 62.1935 19.4048C60.8226 19.4048 59.7107 20.5111 59.7107 21.8765C59.7107 23.2419 60.8226 24.3488 62.1935 24.3488C63.565 24.3488 64.6763 23.2419 64.6763 21.8765" fill="#FFD74F"/>
<path fill-rule="evenodd" clip-rule="evenodd" d="M50.9207 10.6305C50.9207 9.26511 49.8094 8.1582 48.4379 8.1582C47.0669 8.1582 45.9551 9.26511 45.9551 10.6305C45.9551 11.9953 47.0669 13.1022 48.4379 13.1022C49.8094 13.1022 50.9207 11.9953 50.9207 10.6305" fill="#FFD74F"/>
<path fill-rule="evenodd" clip-rule="evenodd" d="M34.3079 13.1016C34.3079 11.7362 33.196 10.6299 31.8245 10.6299C30.4535 10.6299 29.3423 11.7362 29.3423 13.1016C29.3423 14.467 30.4535 15.5739 31.8245 15.5739C33.196 15.5739 34.3079 14.467 34.3079 13.1016" fill="#FFD74F"/>
<path fill-rule="evenodd" clip-rule="evenodd" d="M44.813 19.7145C44.813 18.3491 43.7017 17.2422 42.3302 17.2422C40.9593 17.2422 39.8474 18.3491 39.8474 19.7145C39.8474 21.0799 40.9593 22.1862 42.3302 22.1862C43.7017 22.1862 44.813 21.0799 44.813 19.7145" fill="#FFD74F"/>
<path fill-rule="evenodd" clip-rule="evenodd" d="M49.3874 23.6318C48.0159 23.6318 46.9041 24.7381 46.9041 26.1036H51.8702C51.8702 24.7381 50.759 23.6318 49.3874 23.6318" fill="#FFD74F"/>
<path fill-rule="evenodd" clip-rule="evenodd" d="M40.7783 6.51123H35.8127C35.8127 7.87664 36.9246 8.98355 38.2955 8.98355C39.6671 8.98355 40.7783 7.87664 40.7783 6.51123" fill="#FFD74F"/>
<path fill-rule="evenodd" clip-rule="evenodd" d="M34.9439 22.8653C34.9439 21.4999 33.8326 20.3936 32.4611 20.3936C31.0901 20.3936 29.9783 21.4999 29.9783 22.8653C29.9783 24.2307 31.0901 25.3376 32.4611 25.3376C33.8326 25.3376 34.9439 24.2307 34.9439 22.8653" fill="#FFD74F"/>
<path fill-rule="evenodd" clip-rule="evenodd" d="M24.5959 6.52818H69.2129L31.0335 0L24.5959 6.52818Z" fill="#FFD74F"/>
</g>
</svg>
