<svg width="42" height="62" viewBox="0 0 42 62" fill="none" xmlns="http://www.w3.org/2000/svg">
<path fill-rule="evenodd" clip-rule="evenodd" d="M20.2788 54.344C19.0544 54.1327 17.8437 53.8221 16.7025 53.4301C15.0801 52.8724 13.6573 51.838 12.0513 51.1928C8.42943 49.7372 6.43753 46.2303 5.90501 42.4555C5.62489 40.4719 6.28337 38.116 5.62395 36.2331C5.1248 34.8058 3.84167 33.6208 3.13196 32.2833C1.19035 28.63 0.514479 24.2914 1.35486 20.2296C2.25304 15.8854 4.86817 11.9413 8.45293 9.35996C9.39342 8.68323 10.5285 8.05214 11.3501 7.23281C12.0198 6.56455 12.463 5.7471 13.1516 5.07272C14.8601 3.39829 16.8022 1.80952 19.116 1.08808C22.4879 0.0367379 26.2489 1.01796 29.1817 2.99122C32.2871 5.07884 34.7617 8.00226 36.0307 11.5201C37.4412 15.4318 40.6222 18.2625 40.9663 22.6292C41.1829 25.3767 40.3266 28.0977 39.2413 30.6296C38.3248 32.7676 37.1441 34.7672 36.4105 36.9649C35.5926 39.4163 35.2016 41.8785 34.7339 44.4142C34.2461 47.0585 33.4616 49.7791 31.6037 51.7152C29.5432 53.8631 26.4256 54.7196 23.4561 54.657C22.4113 54.6353 21.3401 54.5271 20.2788 54.344" fill="#72CC72"/>
<mask id="mask0_4070_594" style="mask-type:luminance" maskUnits="userSpaceOnUse" x="0" y="0" width="42" height="56">
<path fill-rule="evenodd" clip-rule="evenodd" d="M0 0H41.7559V55.5875H0V0Z" fill="white"/>
</mask>
<g mask="url(#mask0_4070_594)">
<path fill-rule="evenodd" clip-rule="evenodd" d="M20.3327 53.243C21.3561 53.4189 22.3664 53.5188 23.3348 53.5389C26.3508 53.6047 29.0155 52.6527 30.6656 50.9358C32.4198 49.1097 33.1044 46.3872 33.5053 44.2186L33.6812 43.2559C34.0709 41.105 34.475 38.8813 35.2058 36.6936C35.6795 35.2754 36.3296 33.9431 36.9586 32.6546C37.3292 31.8963 37.7114 31.1118 38.0464 30.3315C39.3438 27.3099 39.8473 25.0125 39.6793 22.8826C39.4908 20.4891 38.3306 18.5683 37.1028 16.5345C36.275 15.1644 35.4191 13.7471 34.8362 12.1329C33.6976 8.97874 31.4818 6.2282 28.4284 4.17767C25.4987 2.20974 22.0897 1.5522 19.3093 2.41787C17.067 3.116 15.1863 4.76474 13.798 6.1232C13.504 6.41114 13.2496 6.74807 12.9808 7.1046C12.6915 7.48727 12.3924 7.88347 12.0162 8.25867C11.3778 8.89474 10.6162 9.39874 9.8803 9.8864C9.5835 10.0829 9.28997 10.2765 9.01417 10.4749C5.6243 12.9127 3.20324 16.6143 2.37164 20.6295C1.6007 24.3512 2.20784 28.4569 4.03717 31.8944C4.2943 32.3779 4.65224 32.859 5.0321 33.3681C5.62244 34.1601 6.23284 34.9791 6.57444 35.9535C7.0229 37.2345 6.95244 38.606 6.88477 39.9323C6.84044 40.7891 6.7989 41.5992 6.90064 42.3193C7.43917 46.1338 9.43324 48.9973 12.3709 50.177C13.1502 50.4897 13.875 50.8803 14.5754 51.2578C15.3814 51.6927 16.142 52.1034 16.94 52.3773C18.033 52.7516 19.1744 53.0428 20.3327 53.243M23.6143 55.5875C23.5074 55.5875 23.4001 55.5861 23.2923 55.5843C22.2222 55.5623 21.1097 55.4527 19.9855 55.259C18.7199 55.0415 17.472 54.7228 16.2764 54.3126C15.3188 53.9836 14.4471 53.5137 13.6038 53.0587C12.9234 52.6919 12.2808 52.3451 11.6093 52.0754C7.97304 50.6161 5.51837 47.1647 4.87437 42.6053C4.7451 41.6907 4.79364 40.7433 4.84124 39.8268C4.9019 38.6466 4.9593 37.5317 4.6429 36.6301C4.4049 35.9511 3.91257 35.2903 3.3913 34.5908C2.98297 34.0425 2.56017 33.4759 2.2307 32.8553C0.180637 29.0034 -0.498363 24.396 0.368237 20.2151C1.30204 15.7034 4.01804 11.5473 7.81997 8.81307C8.1163 8.60027 8.4313 8.3912 8.7505 8.18027C9.4029 7.74813 10.0782 7.30107 10.5719 6.8092C10.8463 6.53574 11.0899 6.21327 11.3475 5.87167C11.6508 5.4708 11.963 5.05594 12.3672 4.66114C13.9188 3.14214 16.0412 1.29274 18.7008 0.464402C22.0673 -0.585132 26.131 0.168535 29.5694 2.47947C32.9859 4.7736 35.4728 7.87134 36.7612 11.4381C37.2755 12.8628 38.0422 14.1321 38.8538 15.4766C40.1511 17.6251 41.4928 19.846 41.7191 22.7221C41.9697 25.8973 40.8931 28.8886 39.9266 31.1393C39.5724 31.9644 39.1786 32.7717 38.7973 33.552C38.1706 34.8377 37.5774 36.0519 37.1462 37.3423C36.4621 39.3905 36.0892 41.4457 35.6944 43.6213L35.5176 44.5905C35.0649 47.0396 34.272 50.135 32.1412 52.3531C30.1579 54.4176 27.0644 55.5875 23.6143 55.5875" fill="#38B038"/>
</g>
<path fill-rule="evenodd" clip-rule="evenodd" d="M24 59.6602H17L20.5 9.66016L24 59.6602Z" fill="white"/>
<mask id="mask1_4070_594" style="mask-type:luminance" maskUnits="userSpaceOnUse" x="16" y="9" width="9" height="53">
<path fill-rule="evenodd" clip-rule="evenodd" d="M16.3473 9.91064H24.9742V61.66H16.3473V9.91064Z" fill="white"/>
</mask>
<g mask="url(#mask1_4070_594)">
<path fill-rule="evenodd" clip-rule="evenodd" d="M18.4582 59.5872H22.8633L20.661 25.3499L18.4582 59.5872ZM24.9742 61.6601H16.3473L19.6764 9.91064H21.6451L24.9742 61.6601Z" fill="#38B038"/>
</g>
<path fill-rule="evenodd" clip-rule="evenodd" d="M18.2605 36.6602L10 22.7802L11.7395 21.6602L20 35.5406L18.2605 36.6602Z" fill="#38B038"/>
<path fill-rule="evenodd" clip-rule="evenodd" d="M23.5452 39.6602L22 38.2408L32.4548 26.6602L34 28.0795L23.5452 39.6602Z" fill="#38B038"/>
<path fill-rule="evenodd" clip-rule="evenodd" d="M22.2848 26.6602L21 25.0736L28.7148 17.6602L30 19.2463L22.2848 26.6602Z" fill="#38B038"/>
<path fill-rule="evenodd" clip-rule="evenodd" d="M19.4008 21.6602L16 15.7293L17.5992 14.6602L21 20.591L19.4008 21.6602Z" fill="#38B038"/>
<path fill-rule="evenodd" clip-rule="evenodd" d="M17.1241 46.6602L12 37.6814L13.8759 36.6602L19 45.6394L17.1241 46.6602Z" fill="#38B038"/>
</svg>
