<svg width="65" height="65" viewBox="0 0 65 65" fill="none" xmlns="http://www.w3.org/2000/svg">
<path fill-rule="evenodd" clip-rule="evenodd" d="M10.4987 8.57311C23.7068 -3.57177 44.282 -2.70896 56.4278 10.499C68.5722 23.707 67.709 44.2823 54.5022 56.4272C41.2941 68.5721 20.7189 67.7093 8.57314 54.5013C-3.57133 41.2933 -2.70937 20.718 10.4987 8.57311Z" fill="white"/>
<path fill-rule="evenodd" clip-rule="evenodd" d="M15.0599 48.5377C6.20782 38.9106 6.83726 23.9141 16.4627 15.0612C26.0893 6.2084 41.0869 6.83754 49.9389 16.4646C58.791 26.0904 58.1629 41.0882 48.5362 49.941C38.9095 58.7926 23.912 58.1635 15.0599 48.5377ZM47.5342 48.851C56.5597 40.5515 57.1506 26.491 48.8496 17.4661C40.5512 8.43991 26.4901 7.85058 17.4646 16.1513C8.43914 24.4495 7.84952 38.5113 16.1492 47.5362C24.4476 56.5624 38.5087 57.1517 47.5342 48.851Z" fill="#D6DCDF"/>
</svg>
