<svg width="53" height="53" viewBox="0 0 53 53" fill="none" xmlns="http://www.w3.org/2000/svg">
<circle cx="26.5" cy="26.5" r="26.5" fill="#26C6D0"/>
<path d="M30.9157 37.9995C31.2704 38.0073 31.6187 37.9044 31.9123 37.7051C32.2058 37.5058 32.4299 37.2199 32.5535 36.8873C32.677 36.5547 32.6939 36.1919 32.6018 35.8493C32.5096 35.5067 32.313 35.2014 32.0392 34.9757L21.5941 26.0276L32.0392 17.0825C32.2286 16.9434 32.3872 16.7667 32.5051 16.5633C32.6229 16.36 32.6976 16.1345 32.7243 15.901C32.751 15.6675 32.7292 15.4311 32.6603 15.2064C32.5914 14.9817 32.4768 14.7736 32.3238 14.5953C32.1707 14.4169 31.9825 14.2723 31.7709 14.17C31.5593 14.0678 31.3289 14.0104 31.094 14.0013C30.8592 13.9922 30.625 14.0316 30.4062 14.1173C30.1873 14.2029 29.9885 14.3328 29.8222 14.4988L17.8635 24.7307C17.6757 24.8909 17.5249 25.0899 17.4215 25.314C17.3181 25.5382 17.2645 25.7822 17.2645 26.0291C17.2645 26.276 17.3181 26.52 17.4215 26.7442C17.5249 26.9684 17.6757 27.1675 17.8635 27.3278L29.8222 37.5695C30.1243 37.8378 30.5118 37.9904 30.9157 37.9999L30.9157 37.9995Z" fill="white"/>
</svg>
