<svg width="5" height="32" viewBox="0 0 5 32" fill="none" xmlns="http://www.w3.org/2000/svg">
<path fill-rule="evenodd" clip-rule="evenodd" d="M0.606901 30.0169C0.606901 30.0066 0.606901 29.9976 0.606901 29.9874C0.606901 29.9771 0.606901 29.9655 0.606901 29.954V29.9424V29.9386L1.32755 19.0109L1.47657 16.7627H3.16066L3.33279 18.9788L4.18576 29.9681L4.18961 30.0169L4.20117 30.1658C4.20117 32.6118 0.663423 32.5912 0.606901 30.0169Z" fill="#585880"/>
<path fill-rule="evenodd" clip-rule="evenodd" d="M1.43684 14.8818V16.2428H3.19929V14.8818H1.43684Z" fill="#C8D9DC"/>
<path fill-rule="evenodd" clip-rule="evenodd" d="M0.926996 16.6807V16.5215C0.926996 16.3379 1.07601 16.189 1.2597 16.189H3.39083C3.57324 16.189 3.72354 16.3379 3.72354 16.5215V16.6807C3.72354 16.8643 3.57453 17.0133 3.39083 17.0133H1.25842C1.07472 17.0133 0.926996 16.8643 0.926996 16.6807Z" fill="#9EC4CB"/>
<path fill-rule="evenodd" clip-rule="evenodd" d="M3.72606 8.9256C4.11272 8.53913 4.50066 7.96007 4.50066 7.18585V6.99325L3.92003 0.736559C3.84424 0.445103 3.34068 0.479769 3.34068 0.736559L3.53337 6.99069C3.53337 7.28471 2.97457 7.27701 2.97457 6.99069V0.736559C2.97457 0.540115 2.51084 0.546535 2.51084 0.736559V6.99069C2.51598 7.27316 2.07023 7.3014 2.06509 6.99197V0.736559C2.04967 0.5093 1.58337 0.549103 1.60135 0.736559V6.99069C1.60135 7.32965 1.06697 7.2937 1.06697 6.99069L1.25965 0.736559C1.25965 0.514436 0.718842 0.455374 0.680305 0.736559L0.0996723 6.99325V7.18585C0.0996723 7.95878 0.486333 8.53913 0.872993 8.9256C2.45303 10.6795 1.64246 13.9638 1.47932 14.6764H3.11973C2.95659 13.9651 2.1473 10.6808 3.72606 8.9256Z" fill="#C8D9DC"/>
<path fill-rule="evenodd" clip-rule="evenodd" d="M1.01162 14.6225V14.5545C1.01162 14.3683 1.08998 14.2168 1.38543 14.2168H3.19927C3.49472 14.2168 3.62189 14.3683 3.62189 14.5545V14.6225C3.62189 14.8087 3.49472 14.9602 3.19927 14.9602H1.38543C1.09126 14.9602 1.01162 14.8087 1.01162 14.6225Z" fill="#9EC4CB"/>
</svg>
