<svg width="108" height="108" viewBox="0 0 108 108" fill="none" xmlns="http://www.w3.org/2000/svg">
<circle cx="54" cy="54" r="54" fill="white"/>
<g clip-path="url(#clip0_4131_13)">
<path d="M34.7839 69.4366C33.0199 58.0873 34.1557 35.6216 38.895 28.0917C44.6646 18.9271 52.2134 24.9856 51.0172 33.8382C49.5598 44.6079 50.0473 55.8036 53.1231 67.1528C56.4954 79.6167 37.1662 83.5848 34.7839 69.4366Z" fill="#239130"/>
<path d="M46.0217 23.6382C46.0217 23.6382 40.1164 23.5193 39.9053 19.6652C39.9053 19.6652 42.3931 19.1747 43.6043 20.1556C44.8155 21.1365 45.3131 21.9093 45.3131 21.9093C45.3131 21.9093 44.1722 20.0169 46.8761 17C46.8761 17 49.1528 19.7345 47.3033 22.4691C47.3033 22.4691 50.0775 20.5073 52.3542 22.6771C52.3542 22.6771 50.7811 25.0996 46.0217 23.6382Z" fill="#FFC82C"/>
<path d="M35.1408 71.0714C35.1408 71.0714 38.8247 76.4314 41.2874 75.9906C41.2874 75.9906 38.8097 67.6582 40.4883 59.9401C40.4883 59.9401 40.5184 74.6827 44.7401 76.045C44.7401 76.045 46.8359 68.9858 46.1272 64.131C46.1272 64.131 48.0571 72.7161 47.7003 76.0104C47.7003 76.0104 49.2281 76.6445 52.8919 73.1817C52.8919 73.1817 51.2435 78.1158 44.6295 78.4724C44.6346 78.4724 37.4024 78.8687 35.1408 71.0714Z" fill="#64CC5C"/>
<path d="M39.7091 48.6948C39.7091 49.5865 39.3071 50.3097 38.8145 50.3097C38.322 50.3097 37.92 49.5865 37.92 48.6948C37.92 47.8031 38.322 47.0798 38.8145 47.0798C39.3071 47.0798 39.7091 47.8031 39.7091 48.6948Z" fill="#64CC5C"/>
<path d="M45.0818 53.3266C45.0818 54.2183 44.6797 54.9416 44.1872 54.9416C43.6946 54.9416 43.2926 54.2183 43.2926 53.3266C43.2926 52.4349 43.6946 51.7117 44.1872 51.7117C44.6797 51.7117 45.0818 52.4349 45.0818 53.3266Z" fill="#64CC5C"/>
<path d="M38.704 60.0986C38.704 60.9903 38.3019 61.7136 37.8094 61.7136C37.3169 61.7136 36.9148 60.9903 36.9148 60.0986C36.9148 59.2069 37.3169 58.4836 37.8094 58.4836C38.3019 58.4836 38.704 59.2069 38.704 60.0986Z" fill="#64CC5C"/>
<path d="M44.6494 65.2852C44.6494 66.1769 44.2474 66.9002 43.7549 66.9002C43.2623 66.9002 42.8603 66.1769 42.8603 65.2852C42.8603 64.3936 43.2623 63.6703 43.7549 63.6703C44.2524 63.6703 44.6494 64.3936 44.6494 65.2852Z" fill="#64CC5C"/>
<path d="M50.3338 60.8267C50.3338 61.7184 49.9318 62.4417 49.4392 62.4417C48.9467 62.4417 48.5446 61.7184 48.5446 60.8267C48.5446 59.9351 48.9467 59.2118 49.4392 59.2118C49.9368 59.2118 50.3338 59.9351 50.3338 60.8267Z" fill="#64CC5C"/>
<path d="M47.9214 45.9454C47.9214 46.8371 47.5193 47.5604 47.0268 47.5604C46.5342 47.5604 46.1322 46.8371 46.1322 45.9454C46.1322 45.0537 46.5342 44.3304 47.0268 44.3304C47.5193 44.3304 47.9214 45.0488 47.9214 45.9454Z" fill="#64CC5C"/>
<path d="M40.7998 39.2776C40.7998 40.1693 40.3977 40.8925 39.9052 40.8925C39.4127 40.8925 39.0106 40.1693 39.0106 39.2776C39.0106 38.3859 39.4127 37.6626 39.9052 37.6626C40.3977 37.6626 40.7998 38.3859 40.7998 39.2776Z" fill="#64CC5C"/>
<path d="M47.7355 33.541C47.7355 34.4327 47.3334 35.1559 46.8409 35.1559C46.3484 35.1559 45.9463 34.4327 45.9463 33.541C45.9463 32.6493 46.3484 31.926 46.8409 31.926C47.3384 31.926 47.7355 32.6493 47.7355 33.541Z" fill="#64CC5C"/>
<path d="M43.2877 27.8093C43.2877 28.701 42.8856 29.4242 42.3931 29.4242C41.9006 29.4242 41.4985 28.701 41.4985 27.8093C41.4985 26.9176 41.9006 26.1943 42.3931 26.1943C42.8906 26.1943 43.2877 26.9176 43.2877 27.8093Z" fill="#64CC5C"/>
<path d="M52.1279 70.8187C52.1279 71.7104 51.7258 72.4337 51.2333 72.4337C50.7408 72.4337 50.3387 71.7104 50.3387 70.8187C50.3387 69.927 50.7408 69.2037 51.2333 69.2037C51.7258 69.2087 52.1279 69.927 52.1279 70.8187Z" fill="#64CC5C"/>
<path d="M71.3416 82.4255C72.8192 72.9141 71.8694 54.0795 67.899 47.7683C63.0642 40.0899 56.7367 45.1626 57.7419 52.5835C58.9631 61.6094 58.556 70.997 55.9778 80.5084C53.1483 90.956 69.3464 94.285 71.3416 82.4255Z" fill="#48B53C"/>
<path d="M61.9233 44.0331C61.9233 44.0331 66.8737 43.934 67.0496 40.7041C67.0496 40.7041 64.9639 40.2929 63.9487 41.1153C62.9334 41.9376 62.5163 42.5866 62.5163 42.5866C62.5163 42.5866 63.4712 41.0013 61.2046 38.4749C61.2046 38.4749 59.2948 40.7685 60.8477 43.0572C60.8477 43.0572 58.5208 41.4125 56.616 43.2355C56.616 43.2306 57.9378 45.2567 61.9233 44.0331Z" fill="#FFC82C"/>
<path d="M71.045 83.7928C71.045 83.7928 67.9542 88.2859 65.8936 87.9144C65.8936 87.9144 67.9693 80.9295 66.562 74.4597C66.562 74.4597 66.5369 86.8196 62.9987 87.959C62.9987 87.959 61.2397 82.0441 61.8378 77.972C61.8378 77.972 60.2195 85.1699 60.516 87.9292C60.516 87.9292 59.2344 88.4643 56.1637 85.5564C56.1637 85.5564 57.5458 89.6928 63.0892 89.99C63.0892 89.995 69.1503 90.3319 71.045 83.7928Z" fill="#64CC5C"/>
<path d="M67.2153 65.0376C67.2153 65.7856 67.552 66.39 67.9641 66.39C68.3762 66.39 68.713 65.7856 68.713 65.0376C68.713 64.2896 68.3762 63.6852 67.9641 63.6852C67.552 63.6852 67.2153 64.2896 67.2153 65.0376Z" fill="#64CC5C"/>
<path d="M62.7122 68.9214C62.7122 69.6694 63.0489 70.2738 63.461 70.2738C63.8731 70.2738 64.2098 69.6694 64.2098 68.9214C64.2098 68.1734 63.8731 67.569 63.461 67.569C63.0489 67.564 62.7122 68.1734 62.7122 68.9214Z" fill="#64CC5C"/>
<path d="M68.0598 74.5985C68.0598 75.3465 68.3965 75.9509 68.8086 75.9509C69.2207 75.9509 69.5574 75.3465 69.5574 74.5985C69.5574 73.8505 69.2207 73.2461 68.8086 73.2461C68.3965 73.2461 68.0598 73.8505 68.0598 74.5985Z" fill="#64CC5C"/>
<path d="M63.0741 78.943C63.0741 79.691 63.4109 80.2954 63.823 80.2954C64.2351 80.2954 64.5718 79.691 64.5718 78.943C64.5718 78.1949 64.2351 77.5906 63.823 77.5906C63.4109 77.5906 63.0741 78.1949 63.0741 78.943Z" fill="#64CC5C"/>
<path d="M58.3097 75.2078C58.3097 75.9558 58.6464 76.5602 59.0585 76.5602C59.4756 76.5602 59.8074 75.9558 59.8074 75.2078C59.8074 74.4597 59.4706 73.8554 59.0585 73.8554C58.6414 73.8504 58.3097 74.4597 58.3097 75.2078Z" fill="#64CC5C"/>
<path d="M60.3352 62.729C60.3352 63.477 60.6719 64.0814 61.084 64.0814C61.5012 64.0814 61.8329 63.477 61.8329 62.729C61.8329 61.981 61.4961 61.3766 61.084 61.3766C60.6719 61.3766 60.3352 61.9859 60.3352 62.729Z" fill="#64CC5C"/>
<path d="M66.3007 57.146C66.3007 57.894 66.6375 58.4984 67.0496 58.4984C67.4617 58.4984 67.7984 57.894 67.7984 57.146C67.7984 56.398 67.4617 55.7936 67.0496 55.7936C66.6375 55.7936 66.3007 56.398 66.3007 57.146Z" fill="#64CC5C"/>
<path d="M60.4858 52.3358C60.4858 53.0838 60.8225 53.6882 61.2347 53.6882C61.6468 53.6882 61.9835 53.0838 61.9835 52.3358C61.9835 51.5878 61.6468 50.9834 61.2347 50.9834C60.8225 50.9834 60.4858 51.5878 60.4858 52.3358Z" fill="#64CC5C"/>
<path d="M64.215 47.5306C64.215 48.2787 64.5517 48.883 64.9638 48.883C65.3759 48.883 65.7127 48.2787 65.7127 47.5306C65.7127 46.7826 65.3759 46.1782 64.9638 46.1782C64.5517 46.1782 64.215 46.7826 64.215 47.5306Z" fill="#64CC5C"/>
<path d="M56.8069 83.5848C56.8069 84.3329 57.1436 84.9372 57.5557 84.9372C57.9678 84.9372 58.3045 84.3329 58.3045 83.5848C58.3045 82.8368 57.9678 82.2324 57.5557 82.2324C57.1436 82.2324 56.8069 82.8368 56.8069 83.5848Z" fill="#64CC5C"/>
</g>
<defs>
<clipPath id="clip0_4131_13">
<rect width="38" height="73" fill="white" transform="translate(34 17)"/>
</clipPath>
</defs>
</svg>
