<svg width="108" height="108" viewBox="0 0 108 108" fill="none" xmlns="http://www.w3.org/2000/svg">
<circle cx="54" cy="54" r="54" fill="white"/>
<g clip-path="url(#clip0_4131_18)">
<path d="M58.4679 43.0613C57.2584 42.5035 55.9185 42.1861 54.5021 42.1861C53.0858 42.1861 51.7459 42.5035 50.5364 43.0613C42.1328 41.6238 31.3236 45.6596 31.3236 61.6534C31.3236 77.239 41.9394 85.6735 47.8296 85.6735C48.8952 85.6735 49.9204 85.4603 50.8376 85.1611C53.2297 84.3811 55.7791 84.3811 58.1666 85.1611C59.0794 85.4603 60.109 85.6735 61.1747 85.6735C67.0603 85.6735 77.6806 77.239 77.6806 61.6534C77.6761 45.6596 66.867 41.6238 58.4679 43.0613Z" fill="#FA5254" stroke="#DB2C2E" stroke-width="1.4389" stroke-miterlimit="10"/>
<path d="M61.9345 47.5324C60.3967 44.857 57.5506 43.1973 54.4976 43.1973C51.4491 43.1973 48.5984 44.857 47.0607 47.5324L45.3251 46.5212C47.218 43.2245 50.7341 41.1794 54.4931 41.1794C58.2565 41.1794 61.7681 43.2245 63.6611 46.5212L61.9345 47.5324Z" fill="#DB2C2E"/>
<path d="M55.5003 42.3492H53.4949C53.4949 36.2864 58.3824 31.3572 64.394 31.3572V33.3797C59.493 33.3752 55.5003 37.4019 55.5003 42.3492Z" fill="#38B038"/>
<path d="M42.0385 38.6354C36.9531 33.5067 35.8425 23.3672 35.8425 23.3672C35.8425 23.3672 45.8963 24.4918 50.9816 29.6205C56.067 34.7492 54.2594 41.9412 54.2594 41.9412C54.2594 41.9412 47.1238 43.7641 42.0385 38.6354Z" fill="#72CC72" stroke="#38B038" stroke-width="1.4389" stroke-miterlimit="10"/>
<path d="M45.4721 31.6489L44.0541 33.079L53.5476 42.6535L54.9656 41.2234L45.4721 31.6489Z" fill="#38B038"/>
</g>
<defs>
<clipPath id="clip0_4131_18">
<rect width="47" height="63" fill="white" transform="translate(31 23)"/>
</clipPath>
</defs>
</svg>
