<svg width="61" height="61" viewBox="0 0 61 61" fill="none" xmlns="http://www.w3.org/2000/svg">
<mask id="mask0_4070_612" style="mask-type:luminance" maskUnits="userSpaceOnUse" x="0" y="0" width="61" height="61">
<path fill-rule="evenodd" clip-rule="evenodd" d="M0 0H60.8561V60.8125H0V0Z" fill="white"/>
</mask>
<g mask="url(#mask0_4070_612)">
<path fill-rule="evenodd" clip-rule="evenodd" d="M60.8561 30.4061C60.8561 47.1993 47.233 60.8125 30.4282 60.8125C13.6229 60.8125 -0.00012207 47.1993 -0.00012207 30.4061C-0.00012207 13.6132 13.6229 0 30.4282 0C47.233 0 60.8561 13.6132 60.8561 30.4061" fill="#C71C1C"/>
</g>
<mask id="mask1_4070_612" style="mask-type:luminance" maskUnits="userSpaceOnUse" x="0" y="1" width="59" height="60">
<path fill-rule="evenodd" clip-rule="evenodd" d="M0 1.25928H58.5619V60.999H0V1.25928Z" fill="white"/>
</mask>
<g mask="url(#mask1_4070_612)">
<path fill-rule="evenodd" clip-rule="evenodd" d="M58.5619 31.1294C58.5619 47.6259 45.4525 60.999 29.2812 60.999C13.1099 60.999 0 47.6259 0 31.1294C0 14.6324 13.1099 1.25928 29.2812 1.25928C45.4525 1.25928 58.5619 14.6324 58.5619 31.1294" fill="#FA4141"/>
</g>
<path fill-rule="evenodd" clip-rule="evenodd" d="M55 31.3127C55 45.3958 43.5834 56.8125 29.5004 56.8125C15.417 56.8125 4 45.3958 4 31.3127C4 17.2292 15.417 5.8125 29.5004 5.8125C43.5834 5.81295 55 17.2292 55 31.3127" fill="#FF7A7A"/>
<path fill-rule="evenodd" clip-rule="evenodd" d="M54 31.3127C54 44.8438 43.2551 55.8125 30.0002 55.8125C16.7453 55.8125 6 44.8438 6 31.3127C6 17.7817 16.7453 6.8125 30.0002 6.8125C43.2551 6.81295 54 17.7817 54 31.3127" fill="#CF0C0C"/>
<path fill-rule="evenodd" clip-rule="evenodd" d="M37 20.3272C37 23.9256 34.6469 29.8125 29.2007 29.8125C23.755 29.8125 22 23.9256 22 20.3272C22 16.7292 25.3578 13.8125 29.4996 13.8125C33.6422 13.8125 37 16.7292 37 20.3272" fill="#FA4141"/>
<path fill-rule="evenodd" clip-rule="evenodd" d="M36.8218 43.6338C33.5609 42.7158 28.8393 38.7939 30.2595 33.1939C31.6798 27.5939 37.4731 27.2914 40.7339 28.2094C43.9952 29.1278 45.7631 33.3247 44.6827 37.5835C43.6023 41.8433 40.0831 44.5517 36.8218 43.6338" fill="#FA4141"/>
<path fill-rule="evenodd" clip-rule="evenodd" d="M22.1781 42.6338C25.4389 41.7154 30.161 37.7939 28.7403 32.194C27.3205 26.5941 21.5272 26.2912 18.2659 27.2096C15.0046 28.1275 13.2371 32.3243 14.3171 36.5836C15.3976 40.8433 18.9172 43.5517 22.1781 42.6338" fill="#FA4141"/>
<path fill-rule="evenodd" clip-rule="evenodd" d="M48.2525 13.8125L31 29.8125L51 17.4865L48.2525 13.8125Z" fill="#FF7A7A"/>
<path fill-rule="evenodd" clip-rule="evenodd" d="M28.989 32.8125L32 55.7172L25 55.8125L28.989 32.8125Z" fill="#FF7A7A"/>
<path fill-rule="evenodd" clip-rule="evenodd" d="M28 29.8125L7 21.5465L10.0918 15.8125L28 29.8125Z" fill="#FF7A7A"/>
<path fill-rule="evenodd" clip-rule="evenodd" d="M33 31.3123C33 33.245 31.2088 34.8125 28.9998 34.8125C26.7907 34.8125 25 33.245 25 31.3123C25 29.3796 26.7907 27.8125 28.9998 27.8125C31.2088 27.8125 33 29.3796 33 31.3123" fill="#FF7A7A"/>
<path fill-rule="evenodd" clip-rule="evenodd" d="M28.9601 11.8181C29.108 12.462 28.8348 13.7109 28.3038 13.8067C27.7724 13.902 27.1844 12.808 27.0369 12.1644C26.8889 11.5205 27.1998 10.9209 27.7313 10.8255C28.2622 10.7297 28.8125 11.1745 28.9601 11.8181" fill="#FF7A7A"/>
<path fill-rule="evenodd" clip-rule="evenodd" d="M32.9845 12.1092C32.8886 12.7625 32.1699 13.8705 31.6292 13.8101C31.0886 13.7498 30.9304 12.5444 31.0264 11.8914C31.1219 11.238 31.6383 10.7573 32.179 10.8176C32.7196 10.8779 33.0805 11.4562 32.9845 12.1092" fill="#FF7A7A"/>
<path fill-rule="evenodd" clip-rule="evenodd" d="M36.8166 13.5105C36.5168 14.1446 35.5822 15.0218 35.1891 14.7674C34.7955 14.513 35.0922 13.2235 35.3921 12.5894C35.6923 11.9552 36.2539 11.6474 36.6471 11.9018C37.0406 12.1562 37.1165 12.8763 36.8166 13.5105" fill="#FF7A7A"/>
<path fill-rule="evenodd" clip-rule="evenodd" d="M24.9603 12.8183C25.1078 13.4621 24.8346 14.7109 24.3036 14.8067C23.7722 14.902 23.1842 13.8081 23.0367 13.1642C22.8891 12.5207 23.2001 11.9212 23.7311 11.8254C24.262 11.73 24.8123 12.1744 24.9603 12.8183" fill="#FF7A7A"/>
<path fill-rule="evenodd" clip-rule="evenodd" d="M47.7245 37.8021C47.0708 37.7232 45.952 37.0316 46.0016 36.4868C46.0512 35.9416 47.2502 35.751 47.9035 35.8294C48.5564 35.9083 49.0461 36.4136 48.9965 36.9583C48.947 37.5031 48.3777 37.881 47.7245 37.8021" fill="#FF7A7A"/>
<path fill-rule="evenodd" clip-rule="evenodd" d="M45.3881 41.6694C44.7471 41.3973 43.8174 40.4788 44.0313 40.0511C44.2456 39.6234 45.5232 39.8488 46.1638 40.1209C46.8047 40.3922 47.1509 40.9595 46.9365 41.3868C46.7222 41.8145 46.0287 41.9411 45.3881 41.6694" fill="#FF7A7A"/>
<path fill-rule="evenodd" clip-rule="evenodd" d="M43.5871 45.277C43.2011 44.7132 42.8084 43.3085 43.1029 42.9186C43.3975 42.5282 44.2679 43.2996 44.6541 43.8638C45.0401 44.4272 45.1144 45.2013 44.8195 45.5916C44.525 45.982 43.973 45.8413 43.5871 45.277" fill="#FF7A7A"/>
<path fill-rule="evenodd" clip-rule="evenodd" d="M47.7243 33.8021C47.0709 33.7232 45.952 33.0316 46.0016 32.4868C46.0508 31.9416 47.25 31.751 47.9037 31.8294C48.5567 31.9083 49.0461 32.4136 48.9965 32.9583C48.9473 33.5031 48.3776 33.881 47.7243 33.8021" fill="#FF7A7A"/>
<path fill-rule="evenodd" clip-rule="evenodd" d="M12.6141 40.297C13.1996 39.9314 14.5878 39.619 14.9235 39.9577C15.2592 40.296 14.4161 41.1569 13.8306 41.5232C13.2451 41.8888 12.4978 41.9109 12.1621 41.5723C11.8264 41.2339 12.029 40.663 12.6141 40.297" fill="#FF7A7A"/>
<path fill-rule="evenodd" clip-rule="evenodd" d="M10.8894 35.9435C11.5224 35.7067 12.8197 35.7775 12.9829 36.2659C13.1456 36.7551 12.1117 37.4766 11.4787 37.7138C10.8457 37.9506 10.2007 37.7467 10.0376 37.2575C9.87478 36.7691 10.256 36.1808 10.8894 35.9435" fill="#FF7A7A"/>
<path fill-rule="evenodd" clip-rule="evenodd" d="M10.2148 31.814C10.8675 31.8442 12.0179 32.4561 11.9998 33.0076C11.9821 33.5588 10.8031 33.8409 10.1504 33.8102C9.49768 33.7801 8.98311 33.3086 9.00042 32.7575C9.01812 32.2059 9.56205 31.7838 10.2148 31.814" fill="#FF7A7A"/>
<path fill-rule="evenodd" clip-rule="evenodd" d="M15.6145 43.2972C16.2 42.9312 17.5877 42.6192 17.9234 42.9575C18.2595 43.2962 17.416 44.157 16.8309 44.523C16.2455 44.8889 15.4981 44.9108 15.1621 44.5724C14.8264 44.2341 15.029 43.6628 15.6145 43.2972" fill="#FF7A7A"/>
<path fill-rule="evenodd" clip-rule="evenodd" d="M15 12.3123C15 13.1406 14.3281 13.8125 13.4998 13.8125C12.6714 13.8125 12 13.1406 12 12.3123C12 11.4839 12.6714 10.8125 13.4998 10.8125C14.3281 10.8125 15 11.4839 15 12.3123" fill="#FFD9D9"/>
<path fill-rule="evenodd" clip-rule="evenodd" d="M46 48.8127C46 49.3651 45.5522 49.8125 44.9998 49.8125C44.4474 49.8125 44 49.3651 44 48.8127C44 48.2603 44.4474 47.8125 44.9998 47.8125C45.5522 47.8125 46 48.2603 46 48.8127" fill="#FFD9D9"/>
</svg>
