<svg width="65" height="65" viewBox="0 0 65 65" fill="none" xmlns="http://www.w3.org/2000/svg">
<path fill-rule="evenodd" clip-rule="evenodd" d="M10.4987 8.57311C23.7068 -3.57177 44.282 -2.70896 56.4278 10.499C68.5722 23.707 67.709 44.2823 54.5022 56.4272C41.2941 68.5721 20.7189 67.7093 8.57314 54.5013C-3.57133 41.2933 -2.70937 20.718 10.4987 8.57311Z" fill="white"/>
<path fill-rule="evenodd" clip-rule="evenodd" d="M15.0599 48.5377C6.20782 38.9106 6.83726 23.9141 16.4627 15.0612C26.0893 6.2084 41.0869 6.83754 49.9389 16.4646C58.791 26.0904 58.1629 41.0882 48.5362 49.941C38.9095 58.7926 23.912 58.1635 15.0599 48.5377ZM47.5342 48.851C56.5597 40.5515 57.1506 26.491 48.8496 17.4661C40.5512 8.43991 26.4901 7.85058 17.4646 16.1513C8.43914 24.4495 7.84952 38.5113 16.1492 47.5362C24.4476 56.5624 38.5087 57.1517 47.5342 48.851Z" fill="#D6DCDF"/>
<path fill-rule="evenodd" clip-rule="evenodd" d="M17.4314 49.3554C16.1443 48.0497 17.7885 46.5256 17.2619 45.5216C16.3215 43.7279 13.5122 44.6177 12.9418 43.4904C12.1749 41.9727 15.0537 40.8583 14.008 39.2097C13.4299 38.2981 12.3214 38.6704 12.0118 37.9463C11.7754 37.3942 12.3663 36.5827 12.3663 36.1783C12.3663 35.4759 9.50682 36.6186 9.28588 34.7916C9.07135 33.0159 12.9174 34.0931 12.8108 32.4497C12.744 31.4212 11.1395 31.4905 11.146 30.6804C11.1524 29.7354 13.2244 29.8766 13.1216 28.6453C13.042 27.6965 10.2378 26.1968 10.7567 24.7768C11.2641 23.3888 14.3394 24.7126 14.9637 23.3785C15.4185 22.4066 13.9977 21.8712 14.6464 21.0418C15.1359 20.4152 16.0017 21.3332 16.5631 20.6501C17.303 19.7488 16.3126 18.9412 17.2516 18.1118C17.6511 17.6919 18.6158 17.9834 19.3545 18.4019C19.894 18.8064 19.9364 19.2121 19.5433 19.6166C12.839 26.4921 12.6091 37.502 19.1862 44.6549C19.8259 45.3508 20.508 45.9864 21.2248 46.5603C22.3321 47.6183 22.2538 48.0882 21.7502 48.6737C20.8009 49.7804 18.7173 50.6612 17.4314 49.3554Z" fill="#38B20A"/>
<path fill-rule="evenodd" clip-rule="evenodd" d="M22.7163 28.667C22.4915 28.3319 23.0425 27.8607 22.9256 27.4742C22.8267 27.1404 22.8177 26.9054 22.2076 26.7115C21.564 26.5087 20.133 26.6281 20.1291 25.6767C20.1278 25.2902 20.9795 25.4366 21.2287 25.2825C21.4882 25.1233 21.4445 24.7586 21.0746 24.4428C20.2987 23.779 18.7752 23.8535 18.9396 23.0138C18.9781 22.8122 19.3404 22.861 19.5382 22.8879C19.8054 22.9252 19.8028 22.5387 19.4817 22.3345C18.8998 21.9673 18.0185 21.8094 18.2523 21.1623C18.3551 20.876 18.8959 21.0776 19.167 21.1636C19.5215 21.2753 19.5356 20.8965 19.4496 20.7566C19.1503 20.2687 18.2087 19.9451 18.1367 19.2967C18.0982 18.9423 18.4373 18.9706 18.4643 18.7266C18.5067 18.3325 17.5933 17.4337 18.2909 17.0267L18.296 17.0241C18.9987 16.6261 19.316 17.8664 19.6782 18.0282C19.903 18.127 20.0495 17.8189 20.3359 18.0307C20.8613 18.4185 20.6673 19.3943 20.9397 19.8989C21.018 20.044 21.352 20.2224 21.4342 19.8591C21.4972 19.5818 21.5935 19.013 21.8928 19.0669C22.5698 19.1914 22.2628 20.0324 22.2872 20.7193C22.3013 21.1007 22.6353 21.2971 22.7355 21.0467C22.8126 20.8606 22.9539 20.5255 23.1453 20.5922C23.9559 20.8734 23.126 22.1509 23.3084 23.1563C23.3958 23.6352 23.6861 23.856 23.9559 23.7109C24.2141 23.5736 24.516 22.7621 24.8487 22.9585C25.6695 23.4413 24.8474 24.6174 24.6984 25.2774C24.5584 25.9014 24.7587 26.0259 24.9964 26.2801C25.2726 26.5742 25.956 26.3353 26.1333 26.6987C26.4493 27.3497 25.7042 27.9942 25.392 28.7145L24.8281 29.0381C24.0535 28.9482 23.1209 29.2679 22.7163 28.667Z" fill="#46BB00"/>
<path fill-rule="evenodd" clip-rule="evenodd" d="M46.8239 15.0083C48.1098 16.3462 46.4668 17.9088 46.9935 18.9372C47.9351 20.7758 50.7432 19.8642 51.3135 21.0185C52.0817 22.5734 49.2017 23.7148 50.2473 25.4045C50.8254 26.3379 51.934 25.9566 52.2436 26.6987C52.4799 27.2649 51.889 28.0956 51.889 28.5104C51.889 29.2294 54.7498 28.0584 54.9694 29.9304C55.184 31.7511 51.3379 30.6456 51.4445 32.3301C51.5113 33.3842 53.1158 33.3136 53.1094 34.1431C53.1029 35.1112 51.0309 34.9661 51.135 36.2282C51.2146 37.2001 54.0189 38.737 53.4999 40.1917C52.9925 41.6131 49.9185 40.2572 49.2942 41.6246C48.8394 42.621 50.2602 43.1692 49.6114 44.0192C49.122 44.6612 48.2562 43.72 47.6948 44.4198C46.9549 45.343 47.9453 46.1711 47.0063 47.0211C46.6081 47.4512 45.6434 47.1533 44.9034 46.7232C44.3639 46.3085 44.3215 45.8938 44.7146 45.4778C51.4189 38.4315 51.6488 27.1494 45.0717 19.818C44.432 19.1041 43.7499 18.4532 43.0331 17.8651C41.9258 16.7815 42.0041 16.3 42.5077 15.6991C43.4544 14.5731 45.538 13.6705 46.8239 15.0083Z" fill="#38B20A"/>
<path fill-rule="evenodd" clip-rule="evenodd" d="M28.3519 56.4859C27.6929 56.5874 27.8188 55.5422 27.5888 55.3111C27.4475 55.1686 27.2446 55.3599 27.0891 55.1147C26.8027 54.6627 27.2394 53.9758 27.1803 53.511C27.1636 53.3775 26.9619 53.1425 26.7924 53.3955C26.6626 53.5893 26.4211 53.9951 26.2092 53.8654C25.7275 53.5688 26.2105 53.0193 26.3942 52.4864C26.4969 52.1924 26.3004 51.9433 26.1475 52.1038C26.0345 52.2232 25.8289 52.4376 25.7005 52.3298C25.1661 51.8753 26.1771 51.146 26.3338 50.3243C26.4083 49.9339 26.2503 49.6784 26.0024 49.7092C25.7634 49.7375 25.2958 50.2678 25.0993 50.02C24.6163 49.4101 25.59 48.7553 25.8983 48.2956C26.1899 47.8604 26.0743 47.7063 25.9677 47.4431C25.8444 47.1362 25.2509 47.117 25.2239 46.7883C25.1661 46.0795 26.2734 45.8291 26.6087 45.1641C27.6531 48.8657 28.357 52.6213 28.3519 56.4859Z" fill="#3A800F"/>
<path fill-rule="evenodd" clip-rule="evenodd" d="M28.4134 46.2969C28.4854 46.6191 27.9266 46.8169 27.9009 47.1456C27.8791 47.4306 27.8148 47.6116 28.2233 47.939C28.6549 48.2844 29.7815 48.6157 29.5028 49.3437C29.3897 49.639 28.7847 49.2756 28.5483 49.3193C28.3017 49.3642 28.2297 49.6557 28.4173 50.0049C28.8142 50.7406 29.9986 51.1335 29.6248 51.7267C29.5362 51.8679 29.2741 51.7254 29.1302 51.6458C28.9375 51.538 28.8245 51.8345 29.0108 52.0849C29.346 52.5369 29.9716 52.9169 29.6017 53.3419C29.4398 53.5294 29.0866 53.2161 28.9041 53.0697C28.6665 52.8797 28.5445 53.1647 28.5676 53.297C28.6524 53.7579 29.2754 54.2818 29.1379 54.7992C29.0634 55.0804 28.8117 54.9584 28.7205 55.1382C28.5714 55.427 29.0056 56.3862 28.3466 56.4876L26.6022 45.167C27.1224 45.6985 28.2554 45.6035 28.4134 46.2969Z" fill="#4CA914"/>
<path fill-rule="evenodd" clip-rule="evenodd" d="M26.2515 42.8697C26.3362 42.8556 26.4172 42.916 26.43 42.9994L28.0948 53.8077C28.1077 53.8925 28.0499 53.9733 27.9638 53.9862C27.879 53.999 27.7994 53.94 27.7865 53.8552L26.1217 43.0482C26.1076 42.9635 26.1667 42.8826 26.2515 42.8697Z" fill="#2E650C"/>
<path fill-rule="evenodd" clip-rule="evenodd" d="M32.0001 56.422C31.3784 56.6621 31.2769 55.6144 31.0033 55.4385C30.8337 55.3294 30.677 55.5605 30.4727 55.3538C30.0951 54.9737 30.3738 54.2098 30.2184 53.7681C30.1721 53.641 29.9255 53.4561 29.8137 53.7386C29.729 53.9556 29.5787 54.4037 29.3436 54.3215C28.8118 54.1366 29.1637 53.4946 29.2293 52.9361C29.2652 52.6267 29.0211 52.4251 28.9068 52.6151C28.822 52.7551 28.6666 53.0106 28.5189 52.9323C27.8997 52.6036 28.7308 51.674 28.7077 50.8381C28.6961 50.4401 28.4893 50.2257 28.253 50.3079C28.0269 50.3875 27.6826 51.005 27.4373 50.806C26.8335 50.313 27.6454 49.4656 27.8483 48.9494C28.0384 48.4628 27.8933 48.337 27.7327 48.1008C27.5464 47.8286 26.9632 47.9364 26.8656 47.6206C26.6562 46.9413 27.6852 46.4586 27.8702 45.7383C29.684 49.1305 31.178 52.6472 32.0001 56.422Z" fill="#429111"/>
<path fill-rule="evenodd" clip-rule="evenodd" d="M29.8754 46.4572C30.0154 46.7563 29.5118 47.0683 29.5568 47.3957C29.5953 47.6782 29.5735 47.8695 30.0424 48.1019C30.5382 48.3471 31.7097 48.4293 31.5941 49.1984C31.5466 49.5117 30.8761 49.2857 30.6551 49.3794C30.4252 49.4757 30.4162 49.7762 30.6744 50.0779C31.2203 50.7109 32.4599 50.8406 32.2236 51.5005C32.1671 51.6584 31.8806 51.5737 31.7226 51.5275C31.5106 51.4633 31.4644 51.7779 31.6995 51.982C32.1247 52.3518 32.8183 52.5893 32.5473 53.0836C32.4291 53.3019 32.0168 53.0708 31.8074 52.9681C31.5338 52.8333 31.476 53.1363 31.5273 53.2621C31.7085 53.6948 32.4291 54.0723 32.406 54.6064C32.3931 54.8966 32.1221 54.8324 32.0707 55.0263C31.9872 55.3408 32.6167 56.1831 31.9949 56.4245L27.865 45.7407C28.488 46.149 29.5735 45.8126 29.8754 46.4572Z" fill="#54B11B"/>
<path fill-rule="evenodd" clip-rule="evenodd" d="M27.2318 43.6622L31.1742 53.8619C31.205 53.9428 31.1652 54.0327 31.0855 54.0648C31.0059 54.0956 30.9147 54.0558 30.8839 53.9749L26.9415 43.7765C26.9106 43.6956 26.9505 43.6057 27.0301 43.5736C27.111 43.5415 27.2022 43.5813 27.2318 43.6622Z" fill="#326F0D"/>
<path fill-rule="evenodd" clip-rule="evenodd" d="M21.8685 55.0367C21.2172 54.8929 21.7118 53.9633 21.5808 53.6654C21.4998 53.4818 21.2416 53.5871 21.1851 53.3021C21.0811 52.7769 21.7349 52.2942 21.848 51.8396C21.8814 51.7087 21.776 51.4172 21.5281 51.5906C21.338 51.7254 20.9654 52.0155 20.8151 51.8191C20.4722 51.3697 21.1209 51.0308 21.4844 50.6006C21.6861 50.3631 21.5923 50.0601 21.3932 50.1551C21.2442 50.2257 20.9757 50.3515 20.8948 50.2052C20.5595 49.5889 21.7657 49.273 22.2089 48.563C22.4196 48.2253 22.3644 47.9313 22.1216 47.8697C21.8891 47.8106 21.2609 48.1367 21.1658 47.8337C20.9346 47.0903 22.0792 46.8309 22.5326 46.5138C22.9604 46.2134 22.909 46.0272 22.9052 45.7434C22.9 45.4135 22.3541 45.1811 22.4466 44.8639C22.6483 44.1809 23.771 44.3478 24.3246 43.8496C23.9637 47.6771 23.2674 51.4339 21.8685 55.0367Z" fill="#3A800F"/>
<path fill-rule="evenodd" clip-rule="evenodd" d="M25.5991 45.5545C25.5516 45.8806 24.9581 45.8639 24.8155 46.1605C24.6922 46.4173 24.5676 46.5637 24.8309 47.0156C25.1097 47.4946 26.0397 48.2097 25.5194 48.7875C25.3075 49.0225 24.8733 48.4639 24.6369 48.4203C24.3903 48.3741 24.2182 48.618 24.2683 49.0135C24.3736 49.8416 25.3358 50.6364 24.7744 51.055C24.6395 51.1551 24.4481 50.9266 24.3428 50.8007C24.2015 50.6313 23.9895 50.8675 24.073 51.1679C24.2233 51.7098 24.6691 52.2914 24.1706 52.5546C23.951 52.6715 23.7352 52.2503 23.6183 52.05C23.4641 51.7868 23.2483 52.0089 23.2239 52.1412C23.1365 52.6008 23.5283 53.3147 23.2136 53.7474C23.0428 53.9824 22.8526 53.7795 22.7011 53.913C22.4583 54.1287 22.5174 55.179 21.8661 55.0365L24.3209 43.8481C24.6112 44.5299 25.7019 44.8496 25.5991 45.5545Z" fill="#4CA914"/>
<path fill-rule="evenodd" clip-rule="evenodd" d="M24.8193 41.5782C24.9041 41.5962 24.9567 41.6809 24.9387 41.7644L22.5944 52.4456C22.5764 52.529 22.4929 52.583 22.4081 52.565C22.3246 52.5457 22.2707 52.4623 22.2899 52.3788L24.6343 41.6976C24.651 41.6129 24.7345 41.5602 24.8193 41.5782Z" fill="#2E650C"/>
<path fill-rule="evenodd" clip-rule="evenodd" d="M25.2933 56.2909C24.6267 56.2909 24.9093 55.2765 24.7179 55.0133C24.5984 54.8516 24.3685 55.0095 24.2528 54.7437C24.0383 54.2532 24.574 53.6408 24.5868 53.1721C24.5907 53.0373 24.4263 52.7754 24.2194 52.9988C24.0614 53.1709 23.7608 53.5342 23.572 53.3737C23.1417 53.0091 23.703 52.5379 23.9651 52.0397C24.1102 51.7636 23.9548 51.4876 23.7801 51.6237C23.6504 51.7238 23.4127 51.9049 23.3035 51.7791C22.8449 51.2488 23.9548 50.6813 24.2349 49.8942C24.3685 49.518 24.2528 49.2433 24.0023 49.2355C23.7621 49.2278 23.2187 49.6798 23.062 49.405C22.6767 48.7284 23.739 48.2302 24.1141 47.8219C24.4674 47.4367 24.3774 47.2673 24.3119 46.9899C24.2361 46.6689 23.6529 46.5585 23.6761 46.2298C23.7249 45.5198 24.8592 45.4415 25.2921 44.8354C25.7635 48.6552 25.8881 52.4737 25.2933 56.2909Z" fill="#429111"/>
<path fill-rule="evenodd" clip-rule="evenodd" d="M26.9052 46.2312C26.9284 46.5598 26.3452 46.6703 26.2707 46.9913C26.2051 47.2686 26.1139 47.4381 26.4685 47.8245C26.8436 48.2316 27.9059 48.7297 27.5206 49.4076C27.3638 49.6824 26.8205 49.2305 26.5802 49.2382C26.331 49.2459 26.2141 49.5206 26.3477 49.8968C26.6278 50.6839 27.7377 51.2527 27.2791 51.7817C27.1699 51.9088 26.9322 51.7265 26.8038 51.6263C26.6291 51.4902 26.4736 51.7663 26.6188 52.0423C26.8821 52.5392 27.4422 53.0117 27.0132 53.3763C26.823 53.5368 26.5212 53.1722 26.3644 53.0014C26.1576 52.778 25.9932 53.0399 25.997 53.1748C26.0112 53.6434 26.5469 54.2558 26.3323 54.7463C26.2154 55.0134 25.9868 54.8542 25.8686 55.0172C25.6772 55.2792 25.9598 56.2935 25.2931 56.2935V44.8394C25.7221 45.4428 26.8552 45.5211 26.9052 46.2312Z" fill="#54B11B"/>
<path fill-rule="evenodd" clip-rule="evenodd" d="M25.4473 42.6708V53.6049C25.4473 53.691 25.3779 53.7616 25.2919 53.7616C25.2058 53.7616 25.1351 53.691 25.1351 53.6049V42.6708C25.1351 42.5848 25.2045 42.5142 25.2919 42.5142C25.3779 42.5142 25.4473 42.5848 25.4473 42.6708Z" fill="#326F0D"/>
<path fill-rule="evenodd" clip-rule="evenodd" d="M33.4503 47.1535C33.5736 47.7506 33.0199 48.3155 32.8786 48.9036C32.7245 49.5404 32.9056 50.3827 32.4611 50.886C31.8317 51.5986 30.5227 51.1364 30.0757 50.0206C29.6299 48.9061 30.0307 47.4001 30.9697 46.6566C31.9088 45.9158 33.2409 46.1302 33.4503 47.1535Z" fill="#850317"/>
<path fill-rule="evenodd" clip-rule="evenodd" d="M32.7388 48.5093C32.8416 48.4489 32.9508 48.4348 33.0484 48.4605C32.9777 48.6068 32.9148 48.7558 32.8788 48.9047C32.8339 49.0883 32.8172 49.2873 32.8056 49.4928C32.6733 49.4658 32.5564 49.3708 32.4999 49.2193C32.401 48.9625 32.5089 48.6441 32.7388 48.5093Z" fill="#F1A84A"/>
<path fill-rule="evenodd" clip-rule="evenodd" d="M46.318 20.8449L45.3841 22.2432C45.2826 22.3947 45.3237 22.6001 45.4753 22.7028L47.0284 23.7403C47.1799 23.8417 47.3868 23.8006 47.4882 23.6491L48.4208 22.2522C48.5223 22.1006 48.4812 21.8939 48.3296 21.7925L46.7766 20.7564C46.625 20.6524 46.4195 20.6934 46.318 20.8449Z" fill="#FBCD00"/>
<path fill-rule="evenodd" clip-rule="evenodd" d="M39.1459 19.6805C40.6913 17.9677 43.335 17.8304 45.0486 19.3762C46.7622 20.9208 46.8984 23.5645 45.3531 25.2786C43.8077 26.9914 41.164 27.1287 39.4504 25.5829C37.738 24.0383 37.6019 21.3933 39.1459 19.6805Z" fill="#3B9100"/>
<path fill-rule="evenodd" clip-rule="evenodd" d="M39.6778 20.161C40.9573 18.7409 43.1501 18.6279 44.5695 19.9067C45.989 21.1881 46.1033 23.3798 44.8226 24.7986C43.5419 26.2186 41.3504 26.3316 39.9309 25.0515C38.5114 23.7714 38.3971 21.5797 39.6778 20.161Z" fill="#9CF088"/>
<path fill-rule="evenodd" clip-rule="evenodd" d="M42.6156 24.7973C42.4036 24.4699 42.3509 24.0243 42.4987 23.8009C42.6464 23.5788 42.9393 23.6635 43.1512 23.9897C43.3632 24.3171 43.4159 24.7639 43.2681 24.9873C43.1204 25.2107 42.8275 25.1247 42.6156 24.7973ZM41.4581 24.1733C41.4736 23.8831 41.6367 23.5916 41.8243 23.5223C42.0092 23.453 42.1493 23.6327 42.1338 23.9229C42.1184 24.2131 41.9553 24.5058 41.769 24.5751C41.5815 24.6432 41.4427 24.4647 41.4581 24.1733ZM40.1659 24.2426C39.9102 24.1643 39.9089 23.86 40.162 23.5634C40.4151 23.2668 40.8287 23.0896 41.0843 23.1679C41.34 23.2462 41.3413 23.5505 41.0869 23.8471C40.8338 24.1437 40.4202 24.3209 40.1659 24.2426ZM43.4634 23.7894C43.1898 23.6905 42.9573 23.4504 42.9444 23.2514C42.9316 23.0524 43.1435 22.9715 43.4171 23.0703C43.6908 23.1679 43.9233 23.4093 43.9361 23.607C43.949 23.806 43.737 23.8869 43.4634 23.7894ZM40.1851 22.7892C40.0644 22.6325 40.1941 22.4463 40.4754 22.3757C40.7568 22.3051 41.0843 22.3744 41.2064 22.5324C41.3271 22.6903 41.1974 22.8765 40.9148 22.9471C40.6347 23.0177 40.3059 22.9471 40.1851 22.7892ZM43.552 22.6312C43.3914 22.4194 43.5662 22.1703 43.9451 22.0766C44.3241 21.9841 44.7621 22.0804 44.9252 22.2936C45.0871 22.5054 44.9111 22.7532 44.5322 22.8469C44.1532 22.9394 43.7152 22.8431 43.552 22.6312ZM43.0356 22.0843C42.8442 22.0316 42.8352 21.8057 43.0189 21.5784C43.2013 21.3524 43.5045 21.2112 43.6959 21.2638C43.8873 21.3165 43.895 21.5424 43.7126 21.7697C43.5315 21.9957 43.227 22.1382 43.0356 22.0843ZM40.5885 21.8211C40.2301 21.667 39.9372 21.3267 39.9359 21.0597C39.9346 20.7926 40.2249 20.7002 40.5833 20.8542C40.9417 21.007 41.2346 21.3486 41.2359 21.6156C41.2372 21.8827 40.9469 21.9751 40.5885 21.8211ZM41.48 21.5039C41.3168 21.2625 41.2719 20.9313 41.3772 20.7644C41.4838 20.5962 41.7035 20.6552 41.8666 20.8953C42.0298 21.1367 42.0747 21.468 41.9694 21.6349C41.8615 21.8031 41.6431 21.744 41.48 21.5039ZM42.3676 20.7413C42.3882 20.3522 42.6079 19.9593 42.8583 19.8669C43.1088 19.7732 43.2951 20.0145 43.2746 20.4036C43.254 20.7939 43.033 21.1855 42.7838 21.2779C42.5333 21.3717 42.3458 21.1316 42.3676 20.7413Z" fill="#89E372"/>
<path fill-rule="evenodd" clip-rule="evenodd" d="M35.4926 24.3414C35.7122 24.0025 36.361 24.3234 36.6718 24.0641C36.939 23.8407 37.1523 23.7418 37.0893 23.105C37.0225 22.4322 36.3494 21.1649 37.2229 20.7862C37.5775 20.6334 37.7779 21.4744 38.0181 21.6426C38.2673 21.8185 38.5846 21.6349 38.7297 21.1701C39.0329 20.1955 38.3662 18.8243 39.2025 18.6445C39.4029 18.6009 39.5005 18.9514 39.5544 19.1453C39.6251 19.4072 39.9796 19.2518 40.0413 18.8756C40.1492 18.1964 39.9462 17.3246 40.6348 17.2835C40.9379 17.2656 40.9649 17.8433 40.9932 18.1258C41.0304 18.4969 41.3837 18.3608 41.4788 18.226C41.8089 17.7586 41.7357 16.7674 42.3035 16.4438C42.6143 16.2692 42.7222 16.5928 42.9573 16.5209C43.3363 16.4053 43.8013 15.2112 44.4513 15.6914L44.4564 15.6953C45.0987 16.1845 44.0826 16.9651 44.0775 17.3619C44.0736 17.6071 44.4153 17.6212 44.3331 17.9666C44.1828 18.6022 43.2091 18.8076 42.8533 19.2557C42.7505 19.3854 42.7184 19.7629 43.0832 19.6948C43.3632 19.6434 43.9246 19.5086 43.9927 19.8039C44.1456 20.4754 43.2515 20.5242 42.6297 20.8183C42.2855 20.98 42.2354 21.3652 42.5051 21.3588C42.7068 21.3575 43.0704 21.3537 43.0845 21.5565C43.1449 22.4116 41.6432 22.1523 40.7915 22.7159C40.3856 22.9843 40.2969 23.3387 40.5359 23.53C40.7645 23.7136 41.6278 23.6712 41.579 24.0551C41.4582 24.9988 40.0542 24.7073 39.3887 24.8306C38.7606 24.9474 38.7246 25.1798 38.5846 25.4995C38.4227 25.8693 38.9122 26.4047 38.6475 26.7077C38.1735 27.2547 37.2872 26.8233 36.5023 26.822L35.982 26.4317C35.7611 25.6806 35.0995 24.9487 35.4926 24.3414Z" fill="#46BB00"/>
<path fill-rule="evenodd" clip-rule="evenodd" d="M31.9163 39.615C32.1013 39.9745 31.5001 40.379 31.5708 40.7757C31.6311 41.1185 31.6119 41.3522 32.1963 41.6154C32.8129 41.8915 34.2465 41.9364 34.1425 42.8827C34.0988 43.2666 33.2715 43.0226 33.0043 43.1472C32.7282 43.2768 32.7294 43.6415 33.0622 43.9997C33.7571 44.747 35.2781 44.8484 35.0199 45.665C34.9582 45.8602 34.6049 45.7703 34.4097 45.7202C34.1476 45.6522 34.1065 46.0373 34.4033 46.2774C34.9389 46.7088 35.797 46.9656 35.49 47.5832C35.3551 47.8541 34.84 47.5922 34.5818 47.4754C34.2414 47.3239 34.1849 47.6975 34.253 47.8477C34.4945 48.3677 35.3924 48.7953 35.3898 49.4488C35.3873 49.8057 35.0533 49.7377 34.998 49.9791C34.9107 50.3643 35.7148 51.3619 34.9749 51.6867L34.9698 51.6893C34.2273 52.0039 34.0526 50.734 33.7122 50.5325C33.5002 50.4079 33.3191 50.6968 33.0596 50.4541C32.5817 50.0073 32.8875 49.061 32.6755 48.5295C32.6138 48.3754 32.303 48.1597 32.1796 48.5115C32.0859 48.7811 31.9253 49.3345 31.6337 49.2459C30.976 49.0456 31.3768 48.2457 31.432 47.5588C31.4616 47.1801 31.1533 46.9464 31.0235 47.1826C30.9259 47.3585 30.7473 47.6769 30.5649 47.5871C29.7929 47.2134 30.764 46.0399 30.6972 45.0205C30.6651 44.5351 30.4018 44.2809 30.1179 44.3939C29.8443 44.5004 29.4525 45.2708 29.1442 45.0384C28.385 44.4645 29.3356 43.3911 29.5591 42.7517C29.7698 42.1482 29.5861 42.0019 29.378 41.722C29.1377 41.3984 28.4299 41.5563 28.2976 41.1763C28.0587 40.4932 28.8731 39.9373 29.2636 39.2581L29.8623 39C30.6202 39.1823 31.5836 38.9718 31.9163 39.615Z" fill="#3A9C00"/>
<path fill-rule="evenodd" clip-rule="evenodd" d="M15.7666 26.9851C17.5291 27.2702 18.7276 28.9329 18.4424 30.6957C18.1572 32.4573 16.495 33.6565 14.7325 33.3715C12.9701 33.0865 11.7716 31.4237 12.0567 29.6609C12.3419 27.898 14.0042 26.6988 15.7666 26.9851Z" fill="#F0331B"/>
<path fill-rule="evenodd" clip-rule="evenodd" d="M14.3589 27.9929C14.8958 28.0802 15.2607 28.586 15.1733 29.1227C15.0859 29.6594 14.5811 30.0241 14.0441 29.9368C13.5072 29.8495 13.1424 29.3436 13.2297 28.8069C13.3158 28.2715 13.8219 27.9056 14.3589 27.9929Z" fill="#FB5039"/>
<path fill-rule="evenodd" clip-rule="evenodd" d="M12.4085 36.4924C12.6873 35.9493 13.4709 35.8569 13.9513 35.4871C14.4703 35.0878 14.857 34.3174 15.5185 34.2032C16.4563 34.0427 17.1872 35.2252 16.8339 36.3718C16.4832 37.5209 15.2269 38.4428 14.0297 38.4338C12.8337 38.4222 11.932 37.4207 12.4085 36.4924Z" fill="#850317"/>
<path fill-rule="evenodd" clip-rule="evenodd" d="M12.5897 36.8173C12.6745 36.5502 12.9186 36.4 13.1344 36.4809C13.3515 36.5605 13.4581 36.8429 13.3733 37.1113C13.2898 37.3783 13.0458 37.5286 12.8287 37.4477C12.6129 37.3668 12.505 37.0843 12.5897 36.8173Z" fill="#91081D"/>
<path fill-rule="evenodd" clip-rule="evenodd" d="M13.8126 35.8815C13.6944 35.8648 13.5994 35.807 13.5403 35.7274C13.688 35.6568 13.8293 35.5811 13.9513 35.4873C14.1004 35.3718 14.2391 35.2267 14.3765 35.0752C14.4626 35.1792 14.4934 35.3268 14.4446 35.4809C14.3598 35.7416 14.076 35.9213 13.8126 35.8815Z" fill="#F1A84A"/>
<path fill-rule="evenodd" clip-rule="evenodd" d="M13.2552 32.6307C14.6683 30.8075 17.294 30.4737 19.1181 31.8847C20.4322 32.9016 20.973 34.5489 20.6454 36.0704L12.4948 34.2177C12.6283 33.6579 12.8801 33.116 13.2552 32.6307Z" fill="#46A605"/>
<path fill-rule="evenodd" clip-rule="evenodd" d="M13.8203 33.0698C14.9918 31.5586 17.1692 31.2812 18.6799 32.4509C19.7666 33.2919 20.215 34.6529 19.9465 35.9125L13.1921 34.3756C13.3026 33.9146 13.5107 33.4691 13.8203 33.0698Z" fill="#9CF088"/>
<path fill-rule="evenodd" clip-rule="evenodd" d="M15.3234 33.1892C15.6381 33.4203 15.8462 33.8183 15.7871 34.079C15.728 34.3383 15.4249 34.364 15.1089 34.1329C14.7942 33.9031 14.5873 33.5038 14.6464 33.2444C14.7042 32.9838 15.0074 32.9581 15.3234 33.1892ZM14.8109 34.5271C15.1012 34.5207 15.4043 34.6619 15.4878 34.8429C15.4968 34.8635 15.5032 34.884 15.5071 34.9033L14.4537 34.6632C14.5128 34.5836 14.6413 34.5297 14.8109 34.5271ZM16.0954 33.1545C16.2432 33.0223 16.4397 33.1379 16.5309 33.4139C16.6221 33.69 16.5759 34.0225 16.4281 34.1547C16.2804 34.287 16.0839 34.1714 15.994 33.8954C15.9015 33.6193 15.9477 33.2868 16.0954 33.1545ZM17.091 33.4832C17.2169 33.1135 17.5355 32.7963 17.8014 32.7745C18.0673 32.754 18.1816 33.0351 18.0544 33.4062C17.9285 33.776 17.61 34.0918 17.3441 34.1137C17.0794 34.1355 16.9651 33.8517 17.091 33.4832ZM17.4751 34.3486C17.7025 34.1676 18.03 34.0982 18.2047 34.1907C18.3807 34.2844 18.3383 34.5078 18.1122 34.6889C17.8849 34.8699 17.556 34.9405 17.3813 34.8468C17.2053 34.7518 17.2477 34.5297 17.4751 34.3486ZM18.3011 35.1781C18.6916 35.1691 19.0988 35.3591 19.2106 35.6005C19.235 35.6531 19.244 35.7045 19.2375 35.752L17.786 35.4207C17.8425 35.2808 18.0326 35.1819 18.3011 35.1781Z" fill="#89E372"/>
<path fill-rule="evenodd" clip-rule="evenodd" d="M15.8861 36.6969C13.4633 37.1682 11.3335 36.1705 10.618 34.4937L10.5576 34.0366L11.8011 34.1162C12.4588 35.2576 14.0093 35.8983 15.7602 35.5144C18.0095 35.2037 19.7026 33.4421 19.5741 31.6536C19.5728 31.6446 19.5703 31.6356 19.5703 31.6279L20.3873 30.8896L20.6044 31.2967C20.6545 31.4674 20.675 31.6369 20.6776 31.8372C20.8317 34.0417 18.734 36.254 15.8861 36.6969Z" fill="#FB6113"/>
<path fill-rule="evenodd" clip-rule="evenodd" d="M15.7846 36.3336C13.3953 36.7881 11.2821 35.7507 10.5576 34.0379L11.7227 33.6643C12.3843 34.8327 13.9219 35.5003 15.6484 35.128C17.8669 34.8352 19.5202 33.0608 19.375 31.2415C19.3737 31.2325 19.3711 31.2248 19.3699 31.2158L20.3885 30.8896C20.4399 31.0643 20.463 31.2376 20.4656 31.4392C20.6416 33.6835 18.5927 35.9125 15.7846 36.3336Z" fill="#FB9528"/>
<path fill-rule="evenodd" clip-rule="evenodd" d="M15.6344 36.4439V38.4649C15.6344 38.6844 15.813 38.8629 16.0326 38.8629H18.2781C18.4977 38.8629 18.6763 38.6844 18.6763 38.4649V36.4439C18.6763 36.2244 18.4977 36.0459 18.2781 36.0459H16.0326C15.813 36.0459 15.6344 36.2244 15.6344 36.4439Z" fill="#FBCD00"/>
<path fill-rule="evenodd" clip-rule="evenodd" d="M16.5362 31.9104L17.7605 33.5179C17.8928 33.6925 18.1433 33.7272 18.318 33.5937L20.1048 32.234C20.2795 32.1004 20.3142 31.8514 20.1806 31.6767L18.9564 30.0692C18.8228 29.8946 18.5736 29.8599 18.3989 29.9935L16.612 31.3532C16.4373 31.4854 16.4026 31.7358 16.5362 31.9104Z" fill="#FBCD00"/>
<path fill-rule="evenodd" clip-rule="evenodd" d="M17.736 33.1684V37.6866C17.736 38.1784 18.1355 38.5777 18.6275 38.5777H23.1453C23.6373 38.5777 24.0368 38.1784 24.0368 37.6866V33.1684C24.0368 32.6767 23.6373 32.2773 23.1453 32.2773H18.6275C18.1355 32.2773 17.736 32.6767 17.736 33.1684Z" fill="white"/>
<path fill-rule="evenodd" clip-rule="evenodd" d="M21.5216 38.579C21.5807 38.4647 21.7195 38.4185 21.8351 38.475C21.88 38.4981 21.916 38.5353 21.9379 38.579H21.5216ZM22.6868 38.4801C22.602 38.4377 22.5673 38.3337 22.6097 38.249C22.6521 38.163 22.7561 38.1296 22.8409 38.1719C22.927 38.2156 22.9617 38.3183 22.9193 38.4031C22.8769 38.4891 22.7728 38.5225 22.6868 38.4801ZM19.2094 38.2567C19.1246 38.2143 19.0899 38.1103 19.1323 38.0256C19.1747 37.9395 19.2788 37.9062 19.3635 37.9485C19.4483 37.9909 19.483 38.0949 19.4419 38.1809C19.3982 38.2657 19.2942 38.3003 19.2094 38.2567ZM23.3946 37.6186C23.2391 37.5415 23.1775 37.3528 23.2546 37.1974C23.3316 37.0433 23.5205 36.9804 23.6759 37.0575C23.8313 37.1345 23.893 37.3232 23.8172 37.4773C23.7388 37.6327 23.5487 37.6956 23.3946 37.6186ZM21.6257 37.5621C21.5396 37.5197 21.5062 37.4157 21.5486 37.3297C21.591 37.2449 21.6951 37.2103 21.7799 37.2526C21.8646 37.295 21.8993 37.399 21.8569 37.485C21.8145 37.5698 21.7105 37.6044 21.6257 37.5621ZM19.5948 37.0446C19.5138 36.8918 19.5729 36.7018 19.7258 36.6209C19.8787 36.5413 20.0675 36.6004 20.1484 36.7532C20.2281 36.906 20.169 37.096 20.0161 37.1756C19.8645 37.2565 19.6744 37.1974 19.5948 37.0446ZM18.2614 36.5811C18.1753 36.5388 18.1419 36.4348 18.1843 36.3487C18.2267 36.264 18.3307 36.2293 18.4168 36.2717C18.5029 36.3141 18.5363 36.4181 18.4939 36.5041C18.4502 36.5888 18.3462 36.6235 18.2614 36.5811ZM20.327 36.3474C20.2679 36.2345 20.3116 36.0945 20.4246 36.0354C20.5377 35.9751 20.6777 36.02 20.7368 36.1317C20.7971 36.2447 20.7522 36.3847 20.6404 36.4437C20.5274 36.5041 20.3874 36.4604 20.327 36.3474ZM24.0099 36.3693C23.9238 36.3282 23.8904 36.2229 23.9328 36.1369C23.9547 36.0932 23.9932 36.0637 24.0369 36.0496V36.3808C24.0279 36.377 24.0189 36.3744 24.0099 36.3693ZM22.6354 36.2627C22.5198 36.2062 22.4735 36.065 22.5301 35.9494C22.5879 35.8339 22.7292 35.7876 22.8435 35.8441C22.9591 35.9019 23.0053 36.0419 22.9475 36.1574C22.891 36.273 22.751 36.3205 22.6354 36.2627ZM23.8275 35.4076C23.7427 35.3652 23.708 35.2599 23.7504 35.1752C23.7928 35.0892 23.8968 35.0558 23.9829 35.0982C24.0048 35.1097 24.0227 35.1238 24.0382 35.1418V35.3639C23.9868 35.423 23.8994 35.4435 23.8275 35.4076ZM20.3771 35.1328C20.2217 35.0558 20.16 34.867 20.2371 34.7117C20.3141 34.5576 20.5043 34.4947 20.6584 34.5717C20.8126 34.6488 20.8755 34.8388 20.7984 34.9929C20.7214 35.1469 20.5312 35.2099 20.3771 35.1328ZM18.8626 34.8902C18.7765 34.8478 18.7431 34.7438 18.7842 34.6578C18.8266 34.573 18.9306 34.5384 19.0167 34.5807C19.1015 34.6231 19.1362 34.7271 19.0938 34.8131C19.0514 34.8979 18.9473 34.9325 18.8626 34.8902ZM22.9732 34.4254C22.8884 34.383 22.8538 34.279 22.8962 34.1943C22.9385 34.1082 23.0426 34.0736 23.1274 34.1159C23.2134 34.1583 23.2481 34.2623 23.2057 34.347C23.1621 34.4331 23.058 34.4677 22.9732 34.4254ZM21.767 34.3766C21.6809 34.3342 21.6463 34.2302 21.6899 34.1442C21.7323 34.0594 21.8364 34.0248 21.9212 34.0671C22.0072 34.1095 22.0406 34.2135 21.9995 34.2983C21.9558 34.3843 21.8518 34.4189 21.767 34.3766ZM17.8413 33.768C17.7565 33.7256 17.7206 33.6216 17.763 33.5356C17.8053 33.4508 17.9094 33.4162 17.9955 33.4585C18.0802 33.5009 18.1149 33.6049 18.0725 33.6897C18.0301 33.7757 17.9261 33.8104 17.8413 33.768ZM19.7939 33.5009C19.6397 33.4239 19.5768 33.2339 19.6539 33.0798C19.7309 32.9257 19.9198 32.8628 20.0752 32.9398C20.2294 33.0182 20.2936 33.2056 20.2152 33.361C20.1369 33.515 19.948 33.5767 19.7939 33.5009ZM21.1286 32.7549C21.0425 32.7126 21.0091 32.6086 21.0515 32.5238C21.0939 32.4391 21.1979 32.4044 21.284 32.4468C21.3688 32.4892 21.4035 32.5932 21.3624 32.6792C21.3174 32.7639 21.2133 32.7986 21.1286 32.7549Z" fill="#DFDFDF"/>
<path fill-rule="evenodd" clip-rule="evenodd" d="M40.0323 39.9132C40.3895 39.7476 40.7607 40.3523 41.1512 40.2997C41.4878 40.2547 41.7177 40.283 41.9965 39.7245C42.2906 39.1326 42.3947 37.7356 43.3145 37.8769C43.687 37.9346 43.4159 38.7333 43.5251 38.999C43.6407 39.2738 43.9979 39.2866 44.3614 38.9785C45.1193 38.3301 45.2811 36.8497 46.0673 37.136C46.2561 37.2041 46.1547 37.5456 46.0969 37.7331C46.0198 37.9847 46.3949 38.0425 46.6402 37.7626C47.0834 37.2567 47.3712 36.4298 47.9608 36.7547C48.2203 36.8985 47.9441 37.389 47.8182 37.638C47.6563 37.9629 48.0186 38.0335 48.1676 37.9732C48.684 37.7587 49.1413 36.8998 49.7772 36.9293C50.1253 36.9473 50.0457 37.2708 50.2782 37.3337C50.652 37.4352 51.6578 36.6905 51.9456 37.4275L51.9469 37.4326C52.223 38.1722 50.977 38.2877 50.765 38.6126C50.634 38.8141 50.9089 39.0042 50.6623 39.2468C50.2062 39.6949 49.2942 39.3585 48.7662 39.5434C48.6134 39.5974 48.3911 39.8914 48.729 40.0262C48.9872 40.1289 49.5216 40.31 49.4239 40.5899C49.2004 41.2241 48.4361 40.8004 47.7681 40.7182C47.3994 40.6733 47.1579 40.966 47.384 41.1009C47.551 41.2036 47.8529 41.391 47.7604 41.5669C47.3635 42.3052 46.2587 41.3089 45.2593 41.332C44.784 41.3422 44.5258 41.5888 44.6247 41.8712C44.7172 42.1421 45.4546 42.5569 45.2144 42.8483C44.6222 43.5673 43.6138 42.5928 42.9997 42.3489C42.4191 42.119 42.2675 42.2924 41.9862 42.4837C41.6586 42.7058 41.7858 43.4017 41.4081 43.516C40.7312 43.7214 40.2225 42.9035 39.575 42.494L39.3477 41.8995C39.5558 41.1612 39.39 40.2111 40.0323 39.9132Z" fill="#46BB00"/>
<path fill-rule="evenodd" clip-rule="evenodd" d="M21.8647 20.7502L20.6431 21.9044C20.5107 22.0303 20.5043 22.2395 20.6302 22.3718L21.9122 23.7302C22.0381 23.8625 22.2475 23.8689 22.3798 23.7431L23.6015 22.5888C23.7338 22.463 23.7402 22.2537 23.6143 22.1214L22.3323 20.763C22.2064 20.6308 21.997 20.6243 21.8647 20.7502Z" fill="#FBCD00"/>
<path fill-rule="evenodd" clip-rule="evenodd" d="M15.4803 24.6558C15.0127 22.8763 16.1547 21.3959 18.0212 21.2688C19.8864 21.1417 21.7927 22.5399 22.3361 24.2796C22.8782 26.0194 21.7362 27.4998 19.871 27.6269C18.0045 27.754 16.0236 26.3956 15.4803 24.6558Z" fill="#1F2921"/>
<path fill-rule="evenodd" clip-rule="evenodd" d="M16.0813 22.8851C16.1866 22.5385 16.6375 22.2971 16.9086 22.4435C17.2143 22.473 17.3402 22.889 17.1603 23.2755C16.9792 23.6619 16.6041 23.8622 16.2984 23.8327C16.0261 23.6876 15.9002 23.2716 16.0813 22.8851Z" fill="#323633"/>
<path fill-rule="evenodd" clip-rule="evenodd" d="M18.188 44.217C18.4654 43.6739 19.2503 43.5801 19.7308 43.2116C20.2497 42.8123 20.6377 42.042 21.298 41.929C22.2357 41.7672 22.9666 42.9497 22.6134 44.0976C22.2627 45.2454 21.0064 46.1686 19.8091 46.1596C18.6145 46.1468 17.7114 45.1453 18.188 44.217Z" fill="#850317"/>
<path fill-rule="evenodd" clip-rule="evenodd" d="M18.369 44.5433C18.4538 44.2763 18.6978 44.1248 18.9136 44.2069C19.1294 44.2878 19.2373 44.5703 19.1526 44.8374C19.0691 45.1031 18.825 45.2546 18.6079 45.1737C18.3934 45.0916 18.2855 44.8091 18.369 44.5433Z" fill="#91081D"/>
<path fill-rule="evenodd" clip-rule="evenodd" d="M19.5933 43.6059C19.4751 43.5893 19.3813 43.5315 19.3209 43.4506C19.4686 43.38 19.6112 43.3042 19.732 43.2105C19.8823 43.0949 20.0197 42.9498 20.1572 42.7983C20.2433 42.9023 20.2741 43.05 20.2253 43.2028C20.1405 43.466 19.8566 43.6458 19.5933 43.6059Z" fill="#F1A84A"/>
<path fill-rule="evenodd" clip-rule="evenodd" d="M16.9472 43.037C15.3247 42.1677 15.019 40.3227 16.197 38.8693C17.3749 37.4171 19.6975 36.9729 21.3405 37.76C22.9834 38.547 23.2892 40.392 22.1125 41.8442C20.9345 43.2963 18.5902 43.8228 16.9472 43.037Z" fill="#1F2921"/>
<path fill-rule="evenodd" clip-rule="evenodd" d="M16.0596 41.391C15.8772 41.0777 16.0082 40.5834 16.2998 40.4845C16.5297 40.2804 16.9202 40.4717 17.0795 40.8672C17.2401 41.2626 17.1309 41.6748 16.901 41.8776C16.6094 41.9778 16.2189 41.7852 16.0596 41.391Z" fill="#323633"/>
<path fill-rule="evenodd" clip-rule="evenodd" d="M19.8659 42.377L20.4324 43.9588C20.494 44.1308 20.6829 44.2207 20.855 44.1591L22.6136 43.5299C22.7857 43.4683 22.8756 43.2783 22.814 43.1062L22.2475 41.5244C22.1858 41.3524 21.997 41.2625 21.8248 41.3241L20.0663 41.9533C19.8941 42.0162 19.8055 42.2049 19.8659 42.377Z" fill="#FBCD00"/>
<path fill-rule="evenodd" clip-rule="evenodd" d="M49.302 27.8557C51.2957 29.0164 51.9726 31.5766 50.8126 33.5693C49.9777 35.0048 48.4156 35.7585 46.8625 35.6326L47.6294 27.3101C48.2037 27.3691 48.7727 27.5476 49.302 27.8557Z" fill="#3B9100"/>
<path fill-rule="evenodd" clip-rule="evenodd" d="M48.9423 28.4746C50.5955 29.4363 51.1556 31.5586 50.1947 33.2098C49.5036 34.3975 48.2126 35.0202 46.9293 34.9213L47.5639 28.0239C48.0366 28.0727 48.5055 28.2204 48.9423 28.4746Z" fill="#9CF088"/>
<path fill-rule="evenodd" clip-rule="evenodd" d="M49.0208 29.978C48.8345 30.3221 48.4671 30.5789 48.2012 30.5545C47.9353 30.5301 47.8711 30.2335 48.0586 29.8907C48.2449 29.5492 48.6136 29.2898 48.8795 29.3142C49.1454 29.3386 49.2096 29.6365 49.0208 29.978ZM47.6283 29.6468C47.6733 29.9344 47.5731 30.2528 47.4035 30.3594C47.3855 30.3709 47.3662 30.3799 47.347 30.385L47.4459 29.3091C47.5332 29.3592 47.6026 29.4798 47.6283 29.6468ZM49.1582 30.7407C49.3085 30.8704 49.2199 31.0784 48.9578 31.2055C48.6971 31.3326 48.3618 31.3313 48.2115 31.2016C48.0599 31.0719 48.1498 30.8639 48.4119 30.7368C48.6714 30.6097 49.0067 30.611 49.1582 30.7407ZM48.963 31.7704C49.3445 31.8475 49.7016 32.1209 49.7581 32.3829C49.8147 32.6435 49.5488 32.7937 49.1659 32.7167C48.7831 32.6397 48.4273 32.3662 48.3708 32.1042C48.3143 31.8436 48.5802 31.6947 48.963 31.7704ZM48.155 32.2647C48.3631 32.4676 48.4761 32.7822 48.4068 32.9683C48.3361 33.1545 48.11 33.1417 47.9006 32.9414C47.6912 32.7385 47.5795 32.4227 47.6488 32.2378C47.7195 32.0503 47.9456 32.0632 48.155 32.2647ZM47.442 33.193C47.5037 33.5782 47.3675 34.0083 47.1427 34.1496C47.0939 34.1804 47.0438 34.1958 46.9976 34.1958L47.1337 32.7128C47.2802 32.7514 47.4022 32.9273 47.442 33.193Z" fill="#89E372"/>
<path fill-rule="evenodd" clip-rule="evenodd" d="M45.0988 27.9659L44.9292 27.4973C46.0481 28.0365 49.5062 27.6013 50.7805 26.6807L50.792 27.2084C48.887 28.7106 46.6081 28.9648 45.0988 27.9659Z" fill="#83518D"/>
<path fill-rule="evenodd" clip-rule="evenodd" d="M44.9292 27.5074C45.7077 26.375 45.7077 26.375 45.7077 26.375C46.9537 27.0259 48.5684 26.7499 49.8916 25.647C50.7985 26.6806 50.7985 26.6806 50.7985 26.6806C48.9577 28.238 46.5645 28.6206 44.9292 27.5074Z" fill="#C7AECC"/>
<path fill-rule="evenodd" clip-rule="evenodd" d="M50.2925 34.5808C49.884 34.1288 49.1017 34.2406 48.5429 34.0094C47.9378 33.7578 47.3649 33.1145 46.6969 33.1749C45.7489 33.2622 45.3494 34.5924 45.9866 35.6105C46.6224 36.6287 48.0753 37.1949 49.2288 36.8752C50.3811 36.5555 50.9939 35.3537 50.2925 34.5808Z" fill="#850317"/>
<path fill-rule="evenodd" clip-rule="evenodd" d="M50.2026 34.9427C50.0523 34.7064 49.7761 34.6243 49.5885 34.7578C49.401 34.8926 49.3689 35.1931 49.5205 35.4293C49.6695 35.6655 49.9457 35.7477 50.1332 35.6129C50.322 35.4781 50.3529 35.1777 50.2026 34.9427Z" fill="#91081D"/>
<path fill-rule="evenodd" clip-rule="evenodd" d="M48.7781 34.3548C48.8872 34.3073 48.963 34.2277 49.0003 34.134C48.8397 34.1044 48.683 34.0672 48.5417 34.0081C48.3683 33.9362 48.1961 33.8309 48.024 33.7192C47.9675 33.8412 47.9752 33.9927 48.0625 34.1275C48.2128 34.3586 48.534 34.4601 48.7781 34.3548Z" fill="#F1A84A"/>
<path fill-rule="evenodd" clip-rule="evenodd" d="M46.2614 34.8413L46.7097 34.623C46.2909 35.7914 47.0848 39.1849 48.133 40.3572L47.6102 40.4239C45.9171 38.6867 45.4264 36.4463 46.2614 34.8413Z" fill="#83518D"/>
<path fill-rule="evenodd" clip-rule="evenodd" d="M46.6994 34.6245C47.9082 35.2806 47.9082 35.2806 47.9082 35.2806C47.3905 36.5877 47.8337 38.1644 49.0695 39.3661C48.1369 40.3753 48.1369 40.3753 48.1369 40.3753C46.395 38.7075 45.7642 36.3668 46.6994 34.6245Z" fill="#C7AECC"/>
<path fill-rule="evenodd" clip-rule="evenodd" d="M46.052 28.7494C48.0071 29.0614 49.3405 30.9013 49.0284 32.8554C48.7162 34.8096 46.8767 36.1436 44.9215 35.8316C42.9664 35.5196 41.6343 33.6797 41.9452 31.7256C42.2573 29.7714 44.0981 28.4374 46.052 28.7494Z" fill="#F0331B"/>
<path fill-rule="evenodd" clip-rule="evenodd" d="M44.4938 29.8717C45.0886 29.9667 45.4945 30.5265 45.3994 31.1223C45.3044 31.7167 44.7443 32.1238 44.1495 32.0287C43.5548 31.9337 43.1489 31.3739 43.2439 30.7795C43.3377 30.1824 43.899 29.7767 44.4938 29.8717Z" fill="#FB5039"/>
<path fill-rule="evenodd" clip-rule="evenodd" d="M46.5736 27.2403L45.641 28.6373C45.5396 28.7901 45.5807 28.9955 45.7322 29.0969L47.2853 30.1344C47.4369 30.2358 47.6424 30.1947 47.7439 30.0432L48.6778 28.645C48.7793 28.4935 48.7382 28.2868 48.5866 28.1853L47.0335 27.1479C46.8807 27.0465 46.6751 27.0876 46.5736 27.2403Z" fill="#FBCD00"/>
<path fill-rule="evenodd" clip-rule="evenodd" d="M48.5096 26.0621C48.9771 24.2825 47.8352 22.8021 45.9687 22.675C44.1034 22.5479 42.1971 23.9461 41.6537 25.6859C41.1116 27.4256 42.2536 28.906 44.1189 29.0331C45.9841 29.1615 47.9662 27.8018 48.5096 26.0621Z" fill="#1F2921"/>
<path fill-rule="evenodd" clip-rule="evenodd" d="M47.9083 24.293C47.8029 23.9464 47.352 23.705 47.081 23.8501C46.7753 23.8809 46.6494 24.2969 46.8292 24.6833C47.0091 25.0698 47.3854 25.2701 47.6912 25.2406C47.9635 25.0942 48.0881 24.6782 47.9083 24.293Z" fill="#323633"/>
<path fill-rule="evenodd" clip-rule="evenodd" d="M45.9453 44.8205C47.7836 44.9103 48.9949 43.4864 48.7342 41.635C48.4734 39.7835 46.7109 38.2068 44.8958 38.0361C43.082 37.864 41.8693 39.2879 42.1314 41.1394C42.3922 42.9908 44.1302 44.6497 45.9453 44.8205Z" fill="#1F2921"/>
<path fill-rule="evenodd" clip-rule="evenodd" d="M47.5522 43.8662C47.8695 43.6915 48.0121 43.2011 47.8143 42.9661C47.7218 42.6721 47.2889 42.6349 46.9485 42.8917C46.6081 43.1472 46.4886 43.5567 46.5811 43.8508C46.7789 44.087 47.2118 44.123 47.5522 43.8662Z" fill="#323633"/>
<path fill-rule="evenodd" clip-rule="evenodd" d="M16.1095 26.2327L16.676 27.8146C16.7377 27.9866 16.9265 28.0765 17.0987 28.0149L18.8573 27.3857C19.0294 27.3241 19.1193 27.1341 19.0576 26.962L18.4911 25.3789C18.4295 25.2069 18.2394 25.117 18.0685 25.1786L16.3099 25.8077C16.1378 25.8707 16.0479 26.0607 16.1095 26.2327Z" fill="#FBCD00"/>
<path fill-rule="evenodd" clip-rule="evenodd" d="M13.5815 26.225L13.7177 25.7461C14.3099 26.8362 17.3698 28.5066 18.9408 28.5066L18.6415 28.9406C16.2175 29.0446 14.22 27.9173 13.5815 26.225Z" fill="#83518D"/>
<path fill-rule="evenodd" clip-rule="evenodd" d="M13.7114 25.755C15.0063 25.2915 15.0063 25.2915 15.0063 25.2915C15.6357 26.5498 17.1066 27.2701 18.8266 27.1481C18.9564 28.5168 18.9564 28.5168 18.9564 28.5168C16.5529 28.703 14.3871 27.6129 13.7114 25.755Z" fill="#C7AECC"/>
<path fill-rule="evenodd" clip-rule="evenodd" d="M24.0892 31.619L23.8529 31.1812C23.5112 32.3752 20.8893 34.6709 19.3542 35.0112L19.7422 35.3694C22.1277 34.9444 23.8323 33.4101 24.0892 31.619Z" fill="#83518D"/>
<path fill-rule="evenodd" clip-rule="evenodd" d="M23.8594 31.1888C22.4952 31.0181 22.4952 31.0181 22.4952 31.0181C22.1547 32.3829 20.8753 33.4062 19.1707 33.6617C19.3415 35.0253 19.3415 35.0253 19.3415 35.0253C21.7283 34.6838 23.6038 33.1494 23.8594 31.1888Z" fill="#C7AECC"/>
<path fill-rule="evenodd" clip-rule="evenodd" d="M19.0682 25.9154C20.6135 24.2026 23.2572 24.0652 24.9708 25.6111C26.6832 27.1557 26.8206 29.8006 25.2753 31.5121C23.7299 33.2249 21.0862 33.3623 19.3739 31.8177C17.6603 30.2731 17.5241 27.6282 19.0682 25.9154Z" fill="#3B9100"/>
<path fill-rule="evenodd" clip-rule="evenodd" d="M19.6 26.3944C20.8807 24.9743 23.0722 24.8613 24.4916 26.1401C25.9111 27.4202 26.0254 29.6119 24.7447 31.0307C23.464 32.452 21.2725 32.5637 19.853 31.2849C18.4336 30.0061 18.3192 27.8131 19.6 26.3944Z" fill="#9CF088"/>
<path fill-rule="evenodd" clip-rule="evenodd" d="M22.5379 31.0321C22.3247 30.7047 22.2733 30.2579 22.421 30.0358C22.5688 29.8124 22.8604 29.8984 23.0723 30.2258C23.2856 30.5532 23.3369 31 23.1905 31.2221C23.0428 31.4443 22.7499 31.3595 22.5379 31.0321ZM21.3805 30.4081C21.3959 30.118 21.5591 29.8265 21.7466 29.7559C21.9329 29.6865 22.0716 29.8663 22.0562 30.1565C22.0408 30.4466 21.8764 30.7394 21.6901 30.8087C21.5038 30.878 21.3651 30.6983 21.3805 30.4081ZM20.0882 30.4762C19.8326 30.3979 19.83 30.0936 20.0844 29.797C20.3374 29.5004 20.7511 29.3232 21.0054 29.4015C21.261 29.4798 21.2623 29.7841 21.008 30.082C20.7562 30.3773 20.3426 30.5545 20.0882 30.4762ZM23.3858 30.0229C23.1121 29.9241 22.8809 29.684 22.8681 29.485C22.8552 29.286 23.0672 29.2051 23.3408 29.3026C23.6144 29.4002 23.8456 29.6429 23.8598 29.8393C23.8713 30.0409 23.6594 30.1218 23.3858 30.0229ZM20.1075 29.0227C19.9867 28.8661 20.1165 28.6799 20.3991 28.6093C20.6804 28.5387 21.008 28.608 21.1287 28.7659C21.2508 28.9239 21.1197 29.11 20.8371 29.1807C20.5571 29.2513 20.2295 29.1807 20.1075 29.0227ZM23.4757 28.8648C23.3138 28.653 23.4898 28.4039 23.8688 28.3101C24.2477 28.2164 24.6858 28.314 24.8476 28.5259C25.0095 28.7377 24.8335 28.9868 24.4545 29.0792C24.0769 29.1742 23.6375 29.0767 23.4757 28.8648ZM22.958 28.3191C22.7666 28.2665 22.7589 28.0392 22.9413 27.8133C23.1237 27.586 23.4269 27.446 23.6183 27.4987C23.8097 27.5513 23.8174 27.7786 23.6362 28.0046C23.4538 28.2305 23.1494 28.3718 22.958 28.3191ZM20.5109 28.0559C20.1525 27.9031 19.8608 27.5616 19.8583 27.2945C19.857 27.0275 20.1473 26.935 20.5057 27.0891C20.8641 27.2419 21.157 27.5847 21.1583 27.8505C21.1596 28.1163 20.8693 28.2087 20.5109 28.0559ZM21.4024 27.7375C21.2392 27.4974 21.193 27.1661 21.2996 26.9979C21.4062 26.8298 21.6259 26.8888 21.789 27.1289C21.9522 27.3703 21.9984 27.7016 21.8918 27.8698C21.7852 28.0367 21.5655 27.9789 21.4024 27.7375ZM22.29 26.9761C22.3106 26.5858 22.5302 26.1942 22.7807 26.1017C23.0312 26.008 23.2175 26.2494 23.1969 26.6384C23.1764 27.0288 22.9567 27.4204 22.7062 27.5141C22.4557 27.6065 22.2694 27.3652 22.29 26.9761Z" fill="#89E372"/>
<path fill-rule="evenodd" clip-rule="evenodd" d="M44.1367 36.454C42.2791 34.8285 41.7627 32.5341 42.6478 30.942L42.9715 30.6133L43.6716 31.6443C43.1732 32.8628 43.6164 34.4818 44.9948 35.6297C46.6198 37.2166 49.0489 37.4734 50.3823 36.2768C50.3874 36.2691 50.3951 36.264 50.4003 36.2575L51.4845 36.4501L51.2969 36.8713C51.1916 37.0151 51.0721 37.137 50.9154 37.2603C49.266 38.733 46.2318 38.4338 44.1367 36.454Z" fill="#FB6113"/>
<path fill-rule="evenodd" clip-rule="evenodd" d="M44.3614 36.1511C42.5373 34.5423 42.062 32.2364 42.9702 30.6147L43.9786 31.3068C43.4622 32.5445 43.8759 34.17 45.2298 35.305C46.8201 36.8791 49.2351 37.0961 50.584 35.8674C50.5891 35.8597 50.5955 35.8533 50.6019 35.8468L51.4832 36.4516C51.3765 36.5992 51.2558 36.7225 51.0965 36.8496C49.4317 38.3647 46.4142 38.113 44.3614 36.1511Z" fill="#FB9528"/>
<path fill-rule="evenodd" clip-rule="evenodd" d="M45.1888 28.2458C44.5812 28.2022 44.0944 28.8236 43.5291 29.0445C42.919 29.2807 42.0596 29.2127 41.619 29.7185C40.9947 30.4375 41.6267 31.674 42.7905 31.9693C43.9543 32.2646 45.3944 31.6689 46.0084 30.6404C46.6186 29.6107 46.2293 28.3203 45.1888 28.2458Z" fill="#850317"/>
<path fill-rule="evenodd" clip-rule="evenodd" d="M45.3726 28.5696C45.1016 28.5028 44.8446 28.6351 44.8022 28.861C44.7586 29.0883 44.9448 29.3258 45.2172 29.3926C45.4882 29.4593 45.7439 29.3297 45.7875 29.1024C45.8312 28.8752 45.6449 28.6363 45.3726 28.5696Z" fill="#91081D"/>
<path fill-rule="evenodd" clip-rule="evenodd" d="M43.939 29.1307C43.9852 29.0215 43.9852 28.9111 43.9467 28.8174C43.8105 28.906 43.6718 28.9881 43.5279 29.0434C43.3519 29.1114 43.1554 29.1538 42.955 29.1923C42.9986 29.3194 43.1091 29.4234 43.2658 29.4606C43.533 29.5248 43.8349 29.3759 43.939 29.1307Z" fill="#F1A84A"/>
<path fill-rule="evenodd" clip-rule="evenodd" d="M39.7936 35.4935C37.3298 35.6502 35.3464 34.3881 34.8518 32.6329L34.8492 32.172L36.0722 32.4095C36.5783 33.6267 38.0337 34.4612 39.8206 34.3046C42.0917 34.2853 43.9955 32.7536 44.0983 30.9651C44.097 30.9561 44.097 30.9471 44.097 30.9381L45.0013 30.3115L45.1645 30.7416C45.1915 30.9175 45.1914 31.0883 45.167 31.286C45.0386 33.4931 42.6749 35.4204 39.7936 35.4935Z" fill="#FB6113"/>
<path fill-rule="evenodd" clip-rule="evenodd" d="M39.7404 35.1206C37.3139 35.2657 35.351 33.9663 34.8513 32.1752L36.055 31.9556C36.5598 33.1972 37.9998 34.0575 39.761 33.9098C41.9987 33.9047 43.8652 32.3562 43.9552 30.5343C43.9526 30.524 43.9526 30.5151 43.9526 30.5061L45.0034 30.3135C45.0316 30.4932 45.0329 30.6666 45.0098 30.8681C44.8955 33.1163 42.5794 35.0641 39.7404 35.1206Z" fill="#FB9528"/>
<path fill-rule="evenodd" clip-rule="evenodd" d="M34.3917 29.789C34.7192 29.5527 35.2087 30.0869 35.5902 29.9572C35.9203 29.8468 36.1554 29.8314 36.3275 29.2138C36.5087 28.5628 36.3404 27.1389 37.2923 27.1017C37.6789 27.0876 37.5595 27.944 37.7226 28.1879C37.8909 28.4434 38.2531 28.3856 38.5563 28.0056C39.1935 27.207 39.0676 25.6881 39.9128 25.8229C40.1145 25.855 40.0785 26.217 40.058 26.4173C40.0297 26.687 40.4164 26.6703 40.6091 26.3416C40.9559 25.7471 41.0831 24.8612 41.7382 25.073C42.0273 25.1655 41.8448 25.7137 41.7678 25.9872C41.6688 26.3467 42.0465 26.348 42.184 26.2568C42.6618 25.941 42.9521 24.9896 43.5983 24.8946C43.9516 24.8445 43.9336 25.1847 44.1789 25.204C44.5733 25.2335 45.4404 24.2886 45.872 24.9729L45.8746 24.978C46.2959 25.6675 45.0666 26.027 44.9176 26.3942C44.8251 26.6215 45.1385 26.7589 44.9368 27.0503C44.5669 27.5883 43.5842 27.4278 43.0896 27.7167C42.947 27.8001 42.78 28.1391 43.1448 28.2084C43.4249 28.2611 43.9965 28.3394 43.9528 28.6399C43.8514 29.3216 43.001 29.043 42.315 29.0905C41.9348 29.1175 41.7498 29.4564 42.0028 29.5502C42.1917 29.6208 42.5321 29.7492 42.4717 29.9443C42.2174 30.7635 40.9122 29.9764 39.9141 30.1934C39.4401 30.2974 39.2281 30.5953 39.3823 30.8598C39.5287 31.1127 40.3483 31.3875 40.1646 31.7278C39.7099 32.5636 38.5075 31.7817 37.8421 31.6559C37.2139 31.5377 37.0957 31.7419 36.8504 31.9871C36.5652 32.2734 36.8272 32.9488 36.4701 33.1362C35.8304 33.4739 35.1599 32.7511 34.4302 32.4647L34.0872 31.9114C34.1566 31.1346 33.8046 30.2127 34.3917 29.789Z" fill="#46BB00"/>
<path fill-rule="evenodd" clip-rule="evenodd" d="M35.652 28.3099C35.3065 28.8132 35.5981 29.5476 35.5017 30.1459C35.3977 30.793 34.9044 31.4992 35.1189 32.136C35.4221 33.0374 36.8107 33.117 37.6521 32.2619C38.4948 31.4067 38.708 29.8622 38.1313 28.8145C37.5519 27.7667 36.2416 27.4483 35.652 28.3099Z" fill="#850317"/>
<path fill-rule="evenodd" clip-rule="evenodd" d="M35.7816 29.8365C35.7109 29.7415 35.6158 29.685 35.5169 29.6709C35.5246 29.834 35.5259 29.9945 35.5015 30.146C35.472 30.3321 35.409 30.5234 35.3409 30.7173C35.4733 30.743 35.6184 30.7006 35.7289 30.5838C35.9177 30.3848 35.9421 30.0497 35.7816 29.8365Z" fill="#F1A84A"/>
<path fill-rule="evenodd" clip-rule="evenodd" d="M36.4727 31.5753L37.5942 35.9523C37.7162 36.4287 38.2018 36.7163 38.6784 36.5943L43.055 35.4734C43.5315 35.3514 43.8193 34.8648 43.6972 34.3897L42.5771 30.0128C42.455 29.5364 41.9695 29.2488 41.4929 29.3708L37.1163 30.4917C36.6384 30.6137 36.3507 31.1003 36.4727 31.5753Z" fill="white"/>
<path fill-rule="evenodd" clip-rule="evenodd" d="M41.4813 35.8779C41.5096 35.752 41.6342 35.6737 41.7588 35.6994C41.8089 35.7109 41.8526 35.7379 41.8847 35.7739L41.4813 35.8779ZM42.5861 35.4927C42.4936 35.4721 42.4332 35.3797 42.4538 35.2872C42.473 35.1935 42.5668 35.1344 42.6593 35.155C42.7531 35.1755 42.8122 35.268 42.7916 35.3604C42.7711 35.4541 42.6786 35.5132 42.5861 35.4927ZM39.1614 36.1398C39.0689 36.1192 39.0085 36.0268 39.0291 35.9343C39.0483 35.8419 39.1408 35.7816 39.2346 35.8021C39.3271 35.8226 39.3862 35.9151 39.3669 36.0075C39.3464 36.1 39.2552 36.1603 39.1614 36.1398ZM43.0575 34.4835C42.8892 34.4463 42.7813 34.2793 42.8173 34.1099C42.8533 33.9417 43.0203 33.8338 43.1898 33.8698C43.3594 33.9057 43.4673 34.0739 43.4301 34.2434C43.3941 34.4116 43.2271 34.5194 43.0575 34.4835ZM41.3298 34.8674C41.236 34.8468 41.1769 34.7557 41.1974 34.662C41.2167 34.5695 41.3092 34.5104 41.4017 34.5297C41.4955 34.5502 41.5546 34.6414 41.534 34.7351C41.5147 34.8276 41.4235 34.8879 41.3298 34.8674ZM39.2346 34.87C39.1177 34.7416 39.1293 34.5438 39.2577 34.427C39.3849 34.3114 39.584 34.3217 39.6996 34.4501C39.8152 34.5785 39.805 34.7775 39.6778 34.8931C39.548 35.0086 39.3489 34.9983 39.2346 34.87ZM37.828 34.7518C37.7342 34.7313 37.6751 34.6401 37.6957 34.5464C37.7149 34.454 37.8074 34.3949 37.9012 34.4142C37.995 34.4347 38.0541 34.5271 38.0335 34.6209C38.013 34.712 37.9205 34.7724 37.828 34.7518ZM39.7716 34.0123C39.6855 33.9185 39.6932 33.7709 39.7883 33.6849C39.8833 33.5988 40.0298 33.6065 40.1145 33.7016C40.2006 33.7966 40.1916 33.9417 40.0978 34.029C40.0041 34.115 39.8576 34.1073 39.7716 34.0123ZM43.3453 33.1199C43.2515 33.1007 43.1937 33.0082 43.213 32.9145C43.2232 32.8657 43.2528 32.8272 43.2913 32.8041L43.3735 33.1238C43.3633 33.1238 43.3543 33.1225 43.3453 33.1199ZM41.9862 33.3575C41.8603 33.3305 41.7794 33.206 41.8063 33.0801C41.8333 32.9543 41.9592 32.8747 42.0838 32.9004C42.211 32.9273 42.2906 33.0532 42.2624 33.179C42.2367 33.3048 42.1121 33.3857 41.9862 33.3575ZM42.9278 32.234C42.8353 32.2147 42.7762 32.1223 42.7955 32.0286C42.816 31.9361 42.9085 31.8758 43.001 31.8963C43.0241 31.9015 43.046 31.9117 43.0652 31.9246L43.1205 32.1403C43.0871 32.2096 43.0074 32.2507 42.9278 32.234ZM39.5185 32.8233C39.3489 32.7874 39.2423 32.6192 39.2783 32.451C39.3142 32.2815 39.4825 32.1737 39.6508 32.2109C39.8204 32.2468 39.927 32.415 39.891 32.5845C39.8551 32.7527 39.6868 32.8593 39.5185 32.8233ZM37.9911 32.9646C37.8974 32.9453 37.8383 32.8529 37.8575 32.7591C37.8781 32.6667 37.9706 32.6076 38.0644 32.6269C38.1568 32.6474 38.2159 32.7386 38.1967 32.8323C38.1761 32.9261 38.0836 32.9851 37.9911 32.9646ZM41.8577 31.4944C41.764 31.4739 41.7061 31.3827 41.7254 31.289C41.746 31.1953 41.8372 31.1362 41.9309 31.1568C42.0247 31.176 42.0838 31.2685 42.0633 31.3622C42.0427 31.4546 41.9515 31.5137 41.8577 31.4944ZM40.6759 31.7461C40.5834 31.7256 40.523 31.6331 40.5449 31.5407C40.5642 31.4482 40.6566 31.3892 40.7504 31.4084C40.8429 31.4277 40.9033 31.5201 40.8827 31.6126C40.8622 31.7076 40.7697 31.7654 40.6759 31.7461ZM36.7232 32.13C36.6308 32.1095 36.5704 32.017 36.5909 31.9246C36.6102 31.8321 36.7027 31.7731 36.7965 31.7923C36.8902 31.8116 36.9493 31.904 36.9288 31.9978C36.9082 32.0915 36.817 32.1505 36.7232 32.13ZM38.5474 31.3866C38.3778 31.3494 38.2712 31.1824 38.3071 31.013C38.3444 30.8435 38.5114 30.7369 38.6797 30.7729C38.8492 30.8088 38.9571 30.977 38.9199 31.1465C38.8839 31.316 38.7169 31.4238 38.5474 31.3866ZM39.6559 30.3338C39.5635 30.3132 39.5031 30.2221 39.5236 30.1283C39.5429 30.0359 39.6354 29.9755 39.7292 29.9948C39.8229 30.0153 39.882 30.1078 39.8615 30.2015C39.8409 30.2952 39.7484 30.3543 39.6559 30.3338Z" fill="#DFDFDF"/>
<path fill-rule="evenodd" clip-rule="evenodd" d="M38.328 31.7733L38.0904 31.3354C37.7499 32.5295 35.1268 34.8252 33.593 35.1655L33.9797 35.525C36.3677 35.0974 38.0724 33.5631 38.328 31.7733Z" fill="#83518D"/>
<path fill-rule="evenodd" clip-rule="evenodd" d="M38.0993 31.3417C36.735 31.1709 36.735 31.1709 36.735 31.1709C36.3946 32.5357 35.1152 33.5578 33.4105 33.8133C33.5814 35.1781 33.5814 35.1781 33.5814 35.1781C35.9681 34.8366 37.8436 33.3023 38.0993 31.3417Z" fill="#C7AECC"/>
<path fill-rule="evenodd" clip-rule="evenodd" d="M29.4139 46.212L29.6143 47.8798C29.6361 48.0609 29.8006 48.1905 29.983 48.1687L31.8366 47.9466C32.0178 47.9248 32.1475 47.7591 32.1257 47.5781L31.9253 45.909C31.9034 45.7279 31.739 45.5982 31.5566 45.6201L29.7029 45.8422C29.5218 45.8653 29.3921 46.0309 29.4139 46.212Z" fill="#FBCD00"/>
<path fill-rule="evenodd" clip-rule="evenodd" d="M30.0693 49.2578C28.8669 50.5045 27.1173 50.3106 26.1025 48.8726C25.0877 47.4346 25.2778 45.2172 26.4108 43.9294C27.5438 42.6416 29.2934 42.8355 30.3082 44.2735C31.3231 45.7115 31.2023 47.9687 30.0693 49.2578Z" fill="#1F2921"/>
<path fill-rule="evenodd" clip-rule="evenodd" d="M28.3518 49.6404C28.0217 49.7251 27.6068 49.4812 27.5913 49.1923C27.4655 48.9316 27.7391 48.6273 28.1386 48.5824C28.5368 48.5375 28.8836 48.7416 29.0082 49.0023C29.0237 49.2924 28.75 49.5967 28.3518 49.6404Z" fill="#323633"/>
<path fill-rule="evenodd" clip-rule="evenodd" d="M30.1102 41.513C29.8314 41.8057 29.2521 41.3692 28.9001 41.5669C28.5956 41.7364 28.3683 41.7955 28.3117 42.4323C28.2527 43.1051 28.6791 44.4751 27.7517 44.6856C27.3753 44.7717 27.3342 43.9076 27.1299 43.697C26.9167 43.4774 26.5724 43.5994 26.3438 44.0295C25.8646 44.9309 26.268 46.401 25.4124 46.4241C25.2069 46.4292 25.1761 46.0659 25.1594 45.8656C25.1375 45.596 24.7612 45.6833 24.6314 46.0415C24.4002 46.6886 24.4362 47.5835 23.754 47.4962C23.4522 47.4577 23.5318 46.885 23.5575 46.6026C23.5896 46.2315 23.2184 46.3009 23.0976 46.4151C22.6866 46.8131 22.5748 47.8018 21.9582 48.0136C21.6203 48.1279 21.5754 47.7902 21.33 47.8172C20.9357 47.8609 20.2574 48.9484 19.7089 48.3552L19.705 48.3513C19.1642 47.7517 20.3075 47.1727 20.3859 46.7836C20.4347 46.5422 20.102 46.4665 20.2471 46.1416C20.513 45.5446 21.5073 45.5215 21.9402 45.1479C22.0648 45.04 22.1663 44.6754 21.7951 44.6741C21.5099 44.6741 20.9344 44.7023 20.9228 44.3993C20.8971 43.7111 21.7835 43.828 22.4502 43.6546C22.8189 43.5583 22.9383 43.1898 22.6724 43.1449C22.4733 43.1102 22.1149 43.046 22.1393 42.8432C22.2382 41.9919 23.6654 42.5247 24.607 42.128C25.0553 41.9393 25.2082 41.6067 25.0091 41.3756C24.8177 41.1522 23.9621 41.0341 24.0803 40.6669C24.3732 39.7617 25.6989 40.3086 26.3759 40.3099C27.0143 40.3112 27.094 40.0891 27.2905 39.8028C27.5179 39.4689 27.1364 38.8539 27.4524 38.6023C28.0189 38.1529 28.8102 38.7409 29.5809 38.8873L30.0202 39.3688C30.0948 40.1469 30.6086 40.9891 30.1102 41.513Z" fill="#46BB00"/>
<path fill-rule="evenodd" clip-rule="evenodd" d="M20.8341 35.3475C21.3968 35.1112 22.0571 35.5452 22.6621 35.5735C23.316 35.6017 24.1085 35.2627 24.6879 35.6017C25.5087 36.0832 25.3058 37.457 24.2974 38.108C23.289 38.7602 21.7333 38.6562 20.8239 37.8782C19.9157 37.0975 19.8707 35.7506 20.8341 35.3475Z" fill="#850317"/>
<path fill-rule="evenodd" clip-rule="evenodd" d="M20.7637 35.7134C21 35.5645 21.2839 35.6056 21.397 35.8072C21.5113 36.0088 21.4098 36.2938 21.1734 36.444C20.9384 36.593 20.6545 36.5531 20.5401 36.3503C20.4271 36.1487 20.5273 35.8624 20.7637 35.7134Z" fill="#91081D"/>
<path fill-rule="evenodd" clip-rule="evenodd" d="M22.3011 35.784C22.2228 35.6954 22.1868 35.5914 22.1932 35.4912C22.3512 35.5323 22.508 35.5657 22.6621 35.5721C22.8509 35.5798 23.0501 35.558 23.253 35.531C23.253 35.6658 23.1811 35.7994 23.0436 35.8841C22.8111 36.0292 22.4784 35.9855 22.3011 35.784Z" fill="#F1A84A"/>
<path fill-rule="evenodd" clip-rule="evenodd" d="M23.7527 44.7073C21.6614 43.7353 20.7519 41.2483 21.7256 39.1555C22.4245 37.6494 23.9107 36.7571 25.4689 36.7378V45.0963C24.8921 45.0912 24.3089 44.9666 23.7527 44.7073Z" fill="#3B9100"/>
<path fill-rule="evenodd" clip-rule="evenodd" d="M24.0546 44.0587C22.3204 43.2537 21.5676 41.1917 22.373 39.4583C22.9524 38.2129 24.1792 37.4734 25.4676 37.4541V44.3823C24.9936 44.3759 24.5119 44.2719 24.0546 44.0587Z" fill="#9CF088"/>
<path fill-rule="evenodd" clip-rule="evenodd" d="M23.8376 42.5668C23.993 42.2086 24.3347 41.9171 24.6019 41.9171C24.8691 41.9171 24.9603 42.2073 24.8049 42.5655C24.6508 42.9238 24.3078 43.2152 24.0406 43.2152C23.7734 43.2152 23.6835 42.925 23.8376 42.5668ZM25.2558 42.7697C25.1851 42.4872 25.2558 42.1611 25.4138 42.0391C25.4318 42.0263 25.4498 42.0147 25.4678 42.0083V43.0881C25.3765 43.047 25.2969 42.934 25.2558 42.7697ZM23.6321 41.8208C23.4702 41.7053 23.5396 41.4896 23.7888 41.3394C24.038 41.1879 24.3707 41.1596 24.5326 41.2739C24.6944 41.3894 24.6251 41.6051 24.3759 41.7554C24.1279 41.9069 23.7952 41.9364 23.6321 41.8208ZM23.7323 40.7783C23.3443 40.7372 22.9641 40.4971 22.8844 40.2416C22.8048 39.9874 23.054 39.8127 23.4432 39.8538C23.8312 39.8949 24.2101 40.135 24.2911 40.3905C24.3707 40.6447 24.1202 40.8194 23.7323 40.7783ZM24.4915 40.2121C24.2654 40.0297 24.1241 39.7267 24.1755 39.5354C24.2281 39.3428 24.4555 39.3351 24.6816 39.5161C24.909 39.6998 25.0503 40.0015 24.9976 40.1941C24.9449 40.3854 24.7176 40.3944 24.4915 40.2121ZM25.1158 39.2221C25.0207 38.8434 25.1158 38.4043 25.3264 38.2412C25.3727 38.2065 25.4202 38.186 25.4678 38.1821V39.6702C25.3187 39.6458 25.18 39.4828 25.1158 39.2221Z" fill="#89E372"/>
<path fill-rule="evenodd" clip-rule="evenodd" d="M36.6591 44.4199C36.7825 45.017 36.2288 45.5819 36.0875 46.1712C35.9333 46.8068 36.1145 47.6503 35.67 48.1536C35.0406 48.8662 33.7303 48.404 33.2845 47.2883C32.8388 46.1738 33.2396 44.6677 34.1786 43.9243C35.1176 43.1809 36.4497 43.3966 36.6591 44.4199Z" fill="#850317"/>
<path fill-rule="evenodd" clip-rule="evenodd" d="M36.3135 44.2785C36.4162 44.5391 36.3186 44.81 36.1002 44.8832C35.8806 44.9551 35.6198 44.8036 35.5196 44.5417C35.4168 44.2811 35.5132 44.0101 35.7328 43.9382C35.9512 43.865 36.2133 44.0178 36.3135 44.2785Z" fill="#91081D"/>
<path fill-rule="evenodd" clip-rule="evenodd" d="M35.9473 45.7744C36.0501 45.714 36.158 45.6999 36.2569 45.7256C36.1862 45.872 36.1233 46.0209 36.0873 46.1698C36.0423 46.3522 36.0256 46.5525 36.0141 46.7579C35.8818 46.7309 35.7649 46.6359 35.7084 46.4844C35.6095 46.2289 35.7174 45.9105 35.9473 45.7744Z" fill="#F1A84A"/>
<path fill-rule="evenodd" clip-rule="evenodd" d="M32.2786 39.5213C34.2338 39.8333 35.5659 41.6732 35.255 43.6274C34.9429 45.5816 33.1033 46.9156 31.1482 46.6036C29.1943 46.2916 27.8609 44.4517 28.1718 42.4975C28.484 40.5434 30.3235 39.2093 32.2786 39.5213Z" fill="#F0331B"/>
<path fill-rule="evenodd" clip-rule="evenodd" d="M30.7206 40.6437C31.3154 40.7387 31.7213 41.2985 31.6262 41.8943C31.5312 42.4887 30.9711 42.8957 30.3763 42.8007C29.7816 42.7057 29.3757 42.1459 29.4707 41.5501C29.5645 40.9544 30.1259 40.5487 30.7206 40.6437Z" fill="#FB5039"/>
<path fill-rule="evenodd" clip-rule="evenodd" d="M27.7016 42.9473L26.7677 44.3442C26.6663 44.4958 26.7074 44.7025 26.859 44.8039L28.412 45.8413C28.5636 45.9428 28.7691 45.9017 28.8706 45.7502L29.8032 44.3519C29.9047 44.2004 29.8636 43.995 29.712 43.8923L28.159 42.8549C28.0087 42.7547 27.8031 42.7945 27.7016 42.9473Z" fill="#FBCD00"/>
<path fill-rule="evenodd" clip-rule="evenodd" d="M44.8148 34.9135L43.8809 36.3105C43.7794 36.462 43.8205 36.6687 43.9721 36.7701L45.5252 37.8063C45.6768 37.9077 45.8823 37.8666 45.9851 37.7151L46.9177 36.3169C47.0192 36.1654 46.9781 35.9587 46.8265 35.8572L45.2734 34.8198C45.1218 34.7196 44.9163 34.7607 44.8148 34.9135Z" fill="#FBCD00"/>
<path fill-rule="evenodd" clip-rule="evenodd" d="M46.1369 37.1114C45.7284 36.6595 44.9461 36.7724 44.386 36.5401C43.781 36.2884 43.2081 35.6451 42.5388 35.7068C41.5921 35.7941 41.1913 37.1243 41.8297 38.1424C42.4656 39.1593 43.9172 39.7255 45.072 39.4071C46.2256 39.0874 46.837 37.8856 46.1369 37.1114Z" fill="#850317"/>
<path fill-rule="evenodd" clip-rule="evenodd" d="M46.0458 37.4735C45.8955 37.2372 45.6206 37.155 45.433 37.2886C45.2455 37.4234 45.2134 37.7238 45.3649 37.9601C45.5152 38.1963 45.7901 38.2785 45.9777 38.1437C46.1652 38.0101 46.1974 37.7097 46.0458 37.4735Z" fill="#91081D"/>
<path fill-rule="evenodd" clip-rule="evenodd" d="M44.6223 36.8853C44.7315 36.839 44.8073 36.7581 44.8446 36.6657C44.684 36.6349 44.5273 36.5989 44.386 36.5399C44.2113 36.468 44.0404 36.364 43.8683 36.251C43.8117 36.3742 43.8195 36.5245 43.9081 36.6593C44.0571 36.8904 44.377 36.9918 44.6223 36.8853Z" fill="#F1A84A"/>
<path fill-rule="evenodd" clip-rule="evenodd" d="M33.8819 35.458C34.2711 35.3476 34.5473 36.0165 34.9519 36.0255C35.3001 36.0332 35.5261 36.0987 35.8987 35.5787C36.2905 35.0279 36.6193 33.6322 37.525 33.9211C37.8924 34.0392 37.489 34.8045 37.5596 35.0895C37.6316 35.3861 37.9913 35.4567 38.4062 35.2012C39.2771 34.6684 39.6766 33.197 40.4256 33.6117C40.6054 33.7105 40.4474 34.0392 40.36 34.2203C40.2406 34.4642 40.6105 34.5811 40.9034 34.3371C41.4314 33.8967 41.854 33.1071 42.3974 33.5308C42.6376 33.717 42.2779 34.1702 42.1122 34.4C41.8964 34.7043 42.2522 34.8327 42.4128 34.7955C42.969 34.6607 43.5677 33.8659 44.2074 33.9982C44.5555 34.0713 44.4232 34.3846 44.648 34.486C45.009 34.6478 46.1471 34.0559 46.318 34.8456L46.3192 34.8507C46.4798 35.6416 45.2016 35.562 44.937 35.856C44.7726 36.0383 45.0205 36.2733 44.7315 36.48C44.1997 36.8601 43.3326 36.3747 42.7686 36.4762C42.6055 36.5057 42.3332 36.7676 42.653 36.9589C42.8984 37.1053 43.4084 37.3724 43.2645 37.6394C42.9369 38.2454 42.233 37.6946 41.5701 37.5059C41.204 37.4006 40.9137 37.6574 41.1205 37.832C41.2734 37.963 41.5496 38.1992 41.4262 38.3623C40.9073 39.0453 39.949 37.8628 38.9367 37.7255C38.455 37.66 38.1544 37.8693 38.2096 38.1697C38.261 38.4586 38.938 38.9953 38.649 39.2521C37.9373 39.8838 37.0728 38.7385 36.4896 38.3931C35.9411 38.067 35.7599 38.2185 35.4452 38.3661C35.0804 38.5382 35.0958 39.2623 34.6963 39.3175C33.9795 39.4164 33.5954 38.5087 33.0071 37.9912L32.8722 37.3544C33.2023 36.6418 33.1856 35.6557 33.8819 35.458Z" fill="#46BB00"/>
<path fill-rule="evenodd" clip-rule="evenodd" d="M34.6781 44.9449C33.7738 42.6479 34.3686 40.3714 35.8857 39.3635L36.325 39.2197L36.474 40.4575C35.472 41.3113 35.1226 42.9522 35.8189 44.6059C36.5344 46.7617 38.5743 48.1047 40.3085 47.654C40.3175 47.6502 40.3252 47.6476 40.3329 47.645L41.2077 48.314L40.848 48.6016C40.6887 48.6812 40.5269 48.7338 40.3303 48.771C38.1889 49.3231 35.63 47.663 34.6781 44.9449Z" fill="#FB6113"/>
<path fill-rule="evenodd" clip-rule="evenodd" d="M35.0173 44.7781C34.136 42.512 34.7719 40.2458 36.3237 39.2212L36.9017 40.2984C35.8741 41.16 35.4964 42.7944 36.176 44.425C36.8671 46.5538 38.9121 47.8558 40.6746 47.3833C40.6836 47.3794 40.6913 47.3768 40.7003 47.373L41.2064 48.3154C41.0432 48.3976 40.8788 48.4515 40.6797 48.4913C38.5049 49.0717 35.9409 47.4629 35.0173 44.7781Z" fill="#FB9528"/>
<path fill-rule="evenodd" clip-rule="evenodd" d="M34.1784 31.0088L33.2458 32.4058C33.1443 32.5573 33.1854 32.764 33.337 32.8654L34.89 33.9029C35.0416 34.0043 35.2472 33.9632 35.3499 33.8117L36.2825 32.4135C36.384 32.262 36.3429 32.0565 36.1913 31.9538L34.6383 30.9164C34.4854 30.8162 34.2799 30.856 34.1784 31.0088Z" fill="#FBCD00"/>
<path fill-rule="evenodd" clip-rule="evenodd" d="M33.5633 41.6078L32.6294 43.006C32.528 43.1575 32.5691 43.3642 32.7206 43.4657L34.2737 44.5031C34.4253 44.6045 34.6308 44.5634 34.7336 44.4119L35.6675 43.0137C35.769 42.8622 35.7279 42.6568 35.5763 42.5541L34.0232 41.5166C33.8716 41.4152 33.6648 41.4563 33.5633 41.6078Z" fill="#FBCD00"/>
<path fill-rule="evenodd" clip-rule="evenodd" d="M30.5136 34.9302C32.0577 33.2175 34.7026 33.0801 36.4163 34.6247C38.1286 36.1693 38.2661 38.8142 36.7207 40.527C35.1767 42.2398 32.5317 42.3772 30.8193 40.8326C29.1057 39.288 28.9695 36.6443 30.5136 34.9302Z" fill="#3B9100"/>
<path fill-rule="evenodd" clip-rule="evenodd" d="M31.0455 35.4103C32.3262 33.9902 34.5177 33.8772 35.9372 35.1573C37.3567 36.4374 37.471 38.6291 36.1902 40.0479C34.9095 41.468 32.718 41.581 31.2985 40.3009C29.8791 39.022 29.766 36.8303 31.0455 35.4103Z" fill="#9CF088"/>
<path fill-rule="evenodd" clip-rule="evenodd" d="M33.9834 40.0482C33.7714 39.7208 33.7187 39.2753 33.8665 39.0519C34.0142 38.8298 34.3058 38.9158 34.519 39.2419C34.7323 39.5706 34.7837 40.0161 34.6359 40.2383C34.4882 40.4604 34.1966 40.3756 33.9834 40.0482ZM32.8259 39.4242C32.8414 39.1341 33.0058 38.8426 33.1921 38.7733C33.3783 38.7039 33.5171 38.8837 33.5016 39.1739C33.4862 39.464 33.3231 39.7555 33.1368 39.8248C32.9506 39.8942 32.8105 39.7144 32.8259 39.4242ZM31.5337 39.4923C31.278 39.414 31.2767 39.1084 31.5298 38.8118C31.7829 38.5152 32.1965 38.338 32.4508 38.4163C32.7065 38.4947 32.7078 38.7989 32.4547 39.0955C32.2016 39.3934 31.788 39.5706 31.5337 39.4923ZM34.8325 39.039C34.5576 38.9402 34.3263 38.6988 34.3135 38.5011C34.3006 38.3021 34.5126 38.2212 34.7862 38.3188C35.0598 38.4163 35.2911 38.6577 35.3039 38.8567C35.3168 39.057 35.1061 39.1379 34.8325 39.039ZM31.5529 38.0389C31.4322 37.8809 31.5619 37.696 31.8445 37.6254C32.1258 37.5548 32.4534 37.6241 32.5742 37.7821C32.6949 37.94 32.5652 38.1262 32.2826 38.1968C32.0025 38.2674 31.675 38.1968 31.5529 38.0389ZM34.9211 37.8809C34.7592 37.6691 34.9352 37.42 35.3142 37.3263C35.6931 37.2325 36.1325 37.3301 36.2943 37.542C36.4562 37.7538 36.2802 38.0029 35.9012 38.0953C35.5223 38.1904 35.083 38.0928 34.9211 37.8809ZM34.4034 37.3352C34.212 37.2826 34.2043 37.0553 34.3867 36.8294C34.5691 36.6034 34.8723 36.4622 35.0637 36.5148C35.2551 36.5674 35.2628 36.7947 35.0817 37.0207C34.8993 37.2466 34.5948 37.3879 34.4034 37.3352ZM31.9563 37.072C31.5966 36.9192 31.305 36.5777 31.3037 36.3107C31.3024 36.0436 31.5927 35.9511 31.9524 36.1039C32.3108 36.258 32.6024 36.5983 32.6037 36.8653C32.605 37.1324 32.3147 37.2248 31.9563 37.072ZM32.8478 36.7536C32.6846 36.5135 32.6384 36.181 32.7463 36.0141C32.8529 35.8459 33.0713 35.9049 33.2344 36.145C33.3976 36.3864 33.4438 36.7177 33.3372 36.8846C33.2293 37.0528 33.0109 36.9937 32.8478 36.7536ZM33.7354 35.9922C33.756 35.6019 33.9757 35.2103 34.2261 35.1179C34.4766 35.0241 34.6629 35.2655 34.6436 35.6546C34.6231 36.0449 34.4021 36.4365 34.1529 36.5289C33.9011 36.6227 33.7149 36.3813 33.7354 35.9922Z" fill="#89E372"/>
<path fill-rule="evenodd" clip-rule="evenodd" d="M25.8786 40.2326L28.2294 44.0909C28.4851 44.5107 29.0349 44.6442 29.4536 44.3874L33.3113 42.0353C33.7313 41.7797 33.8636 41.2302 33.6093 40.8104L31.2572 36.9521C31.0016 36.5322 30.4531 36.4 30.033 36.6555L26.1754 39.0064C25.7566 39.2632 25.623 39.8127 25.8786 40.2326Z" fill="white"/>
<path fill-rule="evenodd" clip-rule="evenodd" d="M31.9265 42.8813C31.9163 42.7529 32.0126 42.6412 32.1398 42.6297C32.1912 42.6258 32.2413 42.6387 32.2824 42.6643L31.9265 42.8813ZM32.8707 42.1919C32.7756 42.1996 32.6921 42.1289 32.6844 42.0339C32.6767 41.9389 32.7474 41.8555 32.8424 41.8478C32.9388 41.84 33.021 41.9107 33.0287 42.0057C33.0364 42.0994 32.9658 42.1841 32.8707 42.1919ZM29.7838 43.8122C29.6888 43.8199 29.6053 43.7493 29.5976 43.6543C29.5899 43.5593 29.6605 43.4758 29.7556 43.4681C29.8506 43.4604 29.9341 43.531 29.9431 43.6273C29.9496 43.7198 29.8789 43.8032 29.7838 43.8122ZM33.0261 41.0864C32.854 41.1018 32.7024 40.9734 32.6883 40.8C32.6729 40.628 32.8013 40.4752 32.9748 40.4611C33.1469 40.4457 33.2985 40.5741 33.3139 40.7474C33.3267 40.9195 33.1983 41.0722 33.0261 41.0864ZM31.4859 41.9607C31.3909 41.9684 31.3074 41.8978 31.2984 41.8028C31.2894 41.7078 31.3613 41.6243 31.4564 41.6166C31.5514 41.6089 31.6349 41.6796 31.6426 41.7746C31.6516 41.8696 31.581 41.953 31.4859 41.9607ZM29.482 42.5758C29.3342 42.4872 29.2854 42.2946 29.3741 42.1456C29.4627 41.998 29.6554 41.9492 29.8044 42.0391C29.9521 42.1277 30.0009 42.3202 29.9123 42.4692C29.8224 42.6168 29.6297 42.6643 29.482 42.5758ZM28.1023 42.8736C28.0073 42.8826 27.9238 42.8107 27.9161 42.7157C27.9083 42.6207 27.979 42.5372 28.0741 42.5295C28.1691 42.5218 28.2526 42.5924 28.2603 42.6875C28.268 42.7825 28.1974 42.8659 28.1023 42.8736ZM29.7466 41.5987C29.6361 41.5332 29.6014 41.3907 29.6669 41.2802C29.7325 41.1711 29.875 41.1352 29.9842 41.2006C30.0934 41.2661 30.1294 41.4086 30.0639 41.5178C29.9971 41.6282 29.8545 41.6629 29.7466 41.5987ZM32.9015 39.6997C32.8065 39.7074 32.723 39.6368 32.7153 39.5418C32.7101 39.4943 32.7281 39.4468 32.7577 39.4134L32.9298 39.6959C32.9208 39.6984 32.9118 39.6997 32.9015 39.6997ZM31.6722 40.325C31.5437 40.3365 31.4307 40.2402 31.4204 40.1119C31.4088 39.9835 31.5052 39.8705 31.6336 39.8589C31.7621 39.8474 31.8751 39.9437 31.8867 40.072C31.8957 40.2004 31.8006 40.3147 31.6722 40.325ZM32.2451 38.9743C32.15 38.982 32.0665 38.9114 32.0576 38.8163C32.0498 38.7213 32.1205 38.6379 32.2156 38.6302C32.24 38.6289 32.2631 38.6315 32.2849 38.6379L32.4005 38.8279C32.389 38.9049 32.326 38.9678 32.2451 38.9743ZM29.157 40.5356C28.9835 40.5497 28.832 40.4213 28.8178 40.248C28.8037 40.0759 28.9322 39.9231 29.1043 39.909C29.2764 39.8949 29.428 40.0233 29.4434 40.1966C29.4576 40.3686 29.3278 40.5201 29.157 40.5356ZM27.7362 41.1172C27.6412 41.1262 27.5577 41.0543 27.5499 40.9593C27.541 40.8642 27.6129 40.7808 27.708 40.7731C27.803 40.7654 27.8865 40.836 27.8942 40.931C27.9032 41.026 27.8313 41.1095 27.7362 41.1172ZM31.0055 38.5801C30.9104 38.5878 30.8269 38.5172 30.8192 38.4222C30.8102 38.3272 30.8809 38.2437 30.9759 38.236C31.071 38.227 31.1545 38.2989 31.1622 38.3939C31.1699 38.4889 31.0993 38.5724 31.0055 38.5801ZM29.9483 39.1656C29.8532 39.1733 29.7697 39.1027 29.762 39.0077C29.753 38.9126 29.8249 38.8292 29.92 38.8215C30.0151 38.8138 30.0986 38.8844 30.1063 38.9794C30.114 39.0744 30.0446 39.1579 29.9483 39.1656ZM26.2795 40.6896C26.1844 40.6986 26.1009 40.6267 26.0919 40.5317C26.083 40.4367 26.1549 40.3545 26.25 40.3455C26.345 40.3365 26.4285 40.4084 26.4362 40.5035C26.4465 40.5985 26.3746 40.6819 26.2795 40.6896ZM27.8069 39.4455C27.6347 39.4596 27.4819 39.3312 27.469 39.1592C27.4549 38.9858 27.5821 38.8343 27.7555 38.8202C27.9276 38.8061 28.0792 38.9345 28.0946 39.1065C28.1087 39.2786 27.9803 39.4314 27.8069 39.4455ZM28.5583 38.114C28.4646 38.123 28.3798 38.0511 28.3721 37.9561C28.3631 37.8611 28.435 37.7776 28.5301 37.7686C28.6251 37.7609 28.7086 37.8316 28.7164 37.9278C28.7253 38.0229 28.6547 38.1063 28.5583 38.114Z" fill="#DFDFDF"/>
<path fill-rule="evenodd" clip-rule="evenodd" d="M44.3961 44.8758C44.4501 44.2684 43.836 43.7703 43.6266 43.2028C43.4006 42.5878 43.4841 41.7301 42.9843 41.2807C42.2765 40.6451 41.0292 41.255 40.7145 42.4131C40.3998 43.5713 40.9701 45.0221 41.9888 45.6525C43.0062 46.2817 44.3036 45.9158 44.3961 44.8758Z" fill="#850317"/>
<path fill-rule="evenodd" clip-rule="evenodd" d="M44.0685 45.0551C44.1392 44.7842 44.0133 44.5261 43.7872 44.4799C43.5611 44.4336 43.3196 44.6147 43.2476 44.8856C43.1757 45.1565 43.3016 45.4133 43.5303 45.4608C43.7563 45.5057 43.9978 45.3234 44.0685 45.0551Z" fill="#91081D"/>
<path fill-rule="evenodd" clip-rule="evenodd" d="M43.5342 43.6111C43.6421 43.6586 43.7526 43.6611 43.8464 43.6239C43.759 43.4852 43.6794 43.3453 43.6267 43.2015C43.5612 43.0243 43.5214 42.8279 43.4867 42.625C43.3583 42.6661 43.2542 42.7752 43.2144 42.9319C43.1463 43.1989 43.2889 43.5032 43.5342 43.6111Z" fill="#F1A84A"/>
<path fill-rule="evenodd" clip-rule="evenodd" d="M40.5885 43.7251L39.6559 45.1221C39.5544 45.2736 39.5956 45.4803 39.7471 45.5817L41.3002 46.6192C41.4518 46.7206 41.6573 46.6795 41.7601 46.528L42.694 45.1298C42.7955 44.9783 42.7544 44.7728 42.6028 44.6701L41.0497 43.6327C40.8956 43.5325 40.69 43.5723 40.5885 43.7251Z" fill="#FBCD00"/>
<path fill-rule="evenodd" clip-rule="evenodd" d="M35.7304 40.2673L34.7618 44.8048C34.6565 45.2978 34.9725 45.7857 35.4658 45.891L40.003 46.8604C40.4962 46.9657 40.9831 46.6498 41.0884 46.1568L42.057 41.6193C42.1623 41.1263 41.8463 40.6384 41.3531 40.5331L36.8159 39.5637C36.3226 39.4584 35.8357 39.7743 35.7304 40.2673Z" fill="white"/>
<path fill-rule="evenodd" clip-rule="evenodd" d="M38.3716 46.5112C38.4551 46.4085 38.6054 46.3931 38.7082 46.474C38.7493 46.5074 38.7763 46.5523 38.7891 46.5985L38.3716 46.5112ZM39.5624 46.6627C39.4854 46.6024 39.4738 46.4894 39.5342 46.4136C39.5958 46.3366 39.7063 46.3251 39.7834 46.3854C39.8605 46.447 39.872 46.5587 39.8116 46.6345C39.7513 46.7115 39.6382 46.7244 39.5624 46.6627ZM36.1172 45.6921C36.0401 45.6304 36.0285 45.52 36.0889 45.443C36.1493 45.3659 36.261 45.3531 36.3381 45.4147C36.4152 45.4764 36.4268 45.5881 36.3664 45.6638C36.306 45.7409 36.1942 45.7537 36.1172 45.6921ZM40.4578 45.9489C40.3178 45.8384 40.2972 45.6356 40.4064 45.4956C40.5169 45.357 40.7211 45.3351 40.8599 45.4443C40.9986 45.556 41.0217 45.7588 40.91 45.8975C40.7995 46.0362 40.5965 46.0593 40.4578 45.9489ZM38.6928 45.5136C38.6157 45.452 38.6028 45.3403 38.6645 45.2645C38.7249 45.1875 38.8366 45.1759 38.9137 45.2363C38.9908 45.2979 39.0036 45.4083 38.942 45.4854C38.8816 45.5611 38.7698 45.5739 38.6928 45.5136ZM36.7646 44.5583C36.7158 44.3876 36.8173 44.2091 36.9881 44.1616C37.159 44.1141 37.3362 44.2142 37.3838 44.385C37.4313 44.5558 37.3311 44.7342 37.1615 44.7817C36.9894 44.8293 36.8108 44.7291 36.7646 44.5583ZM35.525 43.8059C35.4492 43.7443 35.4363 43.6326 35.498 43.5569C35.5584 43.4811 35.6701 43.4683 35.7472 43.5286C35.8243 43.5902 35.8358 43.7019 35.7742 43.7777C35.7125 43.856 35.6008 43.8676 35.525 43.8059ZM37.651 44.0152C37.615 43.8894 37.6895 43.7584 37.8167 43.7212C37.9426 43.6853 38.0736 43.7597 38.1096 43.8855C38.1455 44.0114 38.071 44.1423 37.9451 44.1796C37.8167 44.2155 37.6856 44.1411 37.651 44.0152ZM41.3442 44.8267C41.2671 44.7663 41.2542 44.6546 41.3172 44.5776C41.348 44.5378 41.393 44.5147 41.4392 44.5108L41.3686 44.8421C41.3596 44.8395 41.3519 44.8331 41.3442 44.8267ZM39.9863 44.4248C39.8823 44.3426 39.8656 44.1898 39.9478 44.0871C40.03 43.9844 40.1816 43.9664 40.2844 44.0499C40.3884 44.1334 40.4051 44.2836 40.3229 44.3863C40.2407 44.4903 40.0891 44.507 39.9863 44.4248ZM41.366 43.8214C41.2889 43.761 41.2761 43.6493 41.3377 43.5723C41.3981 43.4965 41.5111 43.4837 41.5869 43.544C41.6062 43.5594 41.6229 43.5787 41.6332 43.6005L41.5844 43.8239C41.5227 43.8727 41.4315 43.874 41.366 43.8214ZM37.9606 42.8058C37.8205 42.6953 37.7987 42.4925 37.9104 42.3538C38.0209 42.2151 38.2239 42.192 38.3626 42.3024C38.5026 42.4129 38.5245 42.6157 38.414 42.7557C38.3035 42.8943 38.0993 42.9162 37.9606 42.8058ZM36.491 42.2382C36.4139 42.1779 36.4023 42.0649 36.4627 41.9892C36.5244 41.9134 36.6361 41.9006 36.7119 41.9622C36.7877 42.0238 36.8006 42.1342 36.7389 42.2113C36.6798 42.287 36.5681 42.2986 36.491 42.2382ZM40.7186 42.6517C40.6428 42.5913 40.6299 42.4796 40.6916 42.4026C40.752 42.3256 40.8637 42.314 40.9408 42.3743C41.0166 42.436 41.0294 42.5477 40.969 42.6234C40.9074 42.7018 40.7956 42.7133 40.7186 42.6517ZM39.5175 42.3448C39.4417 42.2832 39.4288 42.1715 39.4905 42.0957C39.5509 42.02 39.6626 42.0071 39.7397 42.0675C39.8168 42.1278 39.8296 42.2408 39.768 42.3166C39.7063 42.3936 39.5945 42.4052 39.5175 42.3448ZM35.7074 40.8914C35.6303 40.831 35.6175 40.718 35.6791 40.641C35.7395 40.5653 35.8513 40.5524 35.9283 40.6141C36.0041 40.6744 36.017 40.7861 35.9553 40.8631C35.8949 40.9402 35.7832 40.9517 35.7074 40.8914ZM37.7242 41.0416C37.5855 40.9312 37.5636 40.727 37.6741 40.5884C37.7846 40.4497 37.9875 40.4279 38.1275 40.5383C38.2663 40.6487 38.2894 40.8516 38.1776 40.9915C38.0659 41.1289 37.8629 41.152 37.7242 41.0416ZM39.2233 40.5781C39.1475 40.5178 39.1347 40.4061 39.1963 40.329C39.2567 40.2533 39.3685 40.2404 39.4455 40.3008C39.5226 40.3624 39.5355 40.4741 39.4738 40.5511C39.4121 40.6282 39.3004 40.641 39.2233 40.5781Z" fill="#DFDFDF"/>
<path fill-rule="evenodd" clip-rule="evenodd" d="M33.6301 40.2098L33.8678 39.772C34.2082 40.966 36.8313 43.2618 38.3651 43.602L37.9784 43.9615C35.5917 43.5352 33.8858 42.0009 33.6301 40.2098Z" fill="#83518D"/>
<path fill-rule="evenodd" clip-rule="evenodd" d="M33.8601 39.7784C35.2243 39.6089 35.2243 39.6089 35.2243 39.6089C35.5648 40.9737 36.8442 41.9958 38.5488 42.2513C38.378 43.6161 38.378 43.6161 38.378 43.6161C35.9912 43.2746 34.1157 41.739 33.8601 39.7784Z" fill="#C7AECC"/>
<path fill-rule="evenodd" clip-rule="evenodd" d="M22.8164 31.904V33.5847C22.8164 33.767 22.9641 33.916 23.1478 33.916H25.0156C25.198 33.916 25.347 33.767 25.347 33.5847V31.904C25.347 31.7217 25.198 31.5728 25.0156 31.5728H23.1478C22.9641 31.5728 22.8164 31.7217 22.8164 31.904Z" fill="#FBCD00"/>
<path fill-rule="evenodd" clip-rule="evenodd" d="M23.6837 31.7525C21.4292 30.7459 20.2602 28.7057 20.6379 26.9223L20.8511 26.5127L21.8249 27.2921C21.7067 28.6043 22.6072 30.0192 24.2617 30.7125C26.2811 31.7499 28.6781 31.2813 29.6004 29.7444C29.6043 29.7354 29.6082 29.7277 29.612 29.72L30.7039 29.5865L30.6487 30.0436C30.5909 30.213 30.5125 30.3633 30.3982 30.5276C29.2575 32.4202 26.2682 33.0275 23.6837 31.7525Z" fill="#FB6113"/>
<path fill-rule="evenodd" clip-rule="evenodd" d="M23.8093 31.3953C21.5934 30.3938 20.4604 28.3305 20.8522 26.5137L22.0199 26.8783C21.8902 28.2136 22.765 29.6452 24.3913 30.3322C26.3759 31.367 28.7473 30.8663 29.6748 29.2934C29.6786 29.2844 29.6825 29.2767 29.6863 29.269L30.7076 29.5875C30.6485 29.7595 30.5688 29.9136 30.4545 30.0818C29.3061 32.0193 26.349 32.6664 23.8093 31.3953Z" fill="#FB9528"/>
<path fill-rule="evenodd" clip-rule="evenodd" d="M41.5418 22.6092C40.9329 22.5823 40.4627 23.2178 39.9039 23.4528C39.3002 23.707 38.4395 23.6621 38.013 24.1821C37.4093 24.9165 38.076 26.1362 39.2475 26.3982C40.419 26.6614 41.8424 26.0245 42.4256 24.9794C43.0088 23.933 42.5849 22.6529 41.5418 22.6092Z" fill="#850317"/>
<path fill-rule="evenodd" clip-rule="evenodd" d="M41.7358 22.9278C41.4622 22.8687 41.2104 23.0061 41.1744 23.2346C41.1372 23.4619 41.3298 23.6956 41.6035 23.7533C41.8758 23.8137 42.1289 23.675 42.1648 23.4465C42.2021 23.2192 42.0094 22.9868 41.7358 22.9278Z" fill="#91081D"/>
<path fill-rule="evenodd" clip-rule="evenodd" d="M40.3177 23.5271C40.3601 23.4167 40.3575 23.3063 40.3164 23.2139C40.1828 23.3076 40.0466 23.3936 39.904 23.4514C39.7306 23.5246 39.5354 23.5734 39.335 23.617C39.3825 23.7429 39.4955 23.843 39.6535 23.8764C39.9233 23.9342 40.2213 23.7762 40.3177 23.5271Z" fill="#F1A84A"/>
<path fill-rule="evenodd" clip-rule="evenodd" d="M38.8712 21.3187L38.2392 22.8762C38.1711 23.0456 38.252 23.2382 38.4216 23.3076L40.1519 24.0099C40.3215 24.0792 40.5142 23.997 40.5836 23.8276L41.2156 22.2701C41.2837 22.1006 41.2027 21.9081 41.0332 21.8387L39.3028 21.1364C39.1333 21.0683 38.9406 21.1492 38.8712 21.3187Z" fill="#FBCD00"/>
<path fill-rule="evenodd" clip-rule="evenodd" d="M36.8954 25.9885L35.9615 27.3854C35.86 27.5382 35.9011 27.7436 36.0527 27.8451L37.6058 28.8825C37.7573 28.9839 37.9629 28.9428 38.0644 28.7913L38.997 27.3931C39.0984 27.2416 39.0573 27.0349 38.9058 26.9335L37.3527 25.896C37.2037 25.7959 36.9969 25.837 36.8954 25.9885Z" fill="#FBCD00"/>
<path fill-rule="evenodd" clip-rule="evenodd" d="M29.6836 25.0836C31.2277 23.3708 33.8727 23.2334 35.585 24.778C37.2974 26.3226 37.4348 28.9675 35.8895 30.6803C34.3441 32.3931 31.7004 32.5305 29.9881 30.9859C28.2744 29.4413 28.1383 26.7964 29.6836 25.0836Z" fill="#3B9100"/>
<path fill-rule="evenodd" clip-rule="evenodd" d="M30.2142 25.5636C31.4949 24.1435 33.6864 24.0306 35.1059 25.3107C36.5254 26.5908 36.6397 28.7825 35.359 30.2025C34.0782 31.6226 31.8867 31.7355 30.4673 30.4554C29.0478 29.1741 28.9347 26.9824 30.2142 25.5636Z" fill="#9CF088"/>
<path fill-rule="evenodd" clip-rule="evenodd" d="M33.1521 30.2001C32.9401 29.8727 32.8874 29.4259 33.0352 29.2037C33.1829 28.9816 33.4758 29.0664 33.6877 29.3938C33.901 29.7212 33.9524 30.168 33.8059 30.3901C33.6569 30.6135 33.364 30.5288 33.1521 30.2001ZM31.9946 29.5774C32.0101 29.2872 32.1745 28.9957 32.3608 28.9264C32.547 28.8571 32.6858 29.0355 32.6716 29.327C32.6562 29.6172 32.4918 29.9099 32.3055 29.978C32.118 30.0473 31.9792 29.8675 31.9946 29.5774ZM30.7024 29.6454C30.4467 29.5671 30.4454 29.2628 30.6985 28.9649C30.9516 28.6683 31.3652 28.4912 31.6195 28.5695C31.8752 28.6478 31.8778 28.9521 31.6234 29.25C31.3703 29.5466 30.9567 29.7237 30.7024 29.6454ZM34.0012 29.1922C33.7276 29.0946 33.495 28.8532 33.4822 28.6542C33.4706 28.4552 33.6813 28.3743 33.9549 28.4719C34.2285 28.5695 34.4598 28.8121 34.4726 29.0099C34.4855 29.2089 34.2735 29.2911 34.0012 29.1922ZM30.7216 28.192C30.6009 28.0341 30.7319 27.8492 31.0132 27.7786C31.2945 27.7079 31.6221 27.7773 31.7429 27.9352C31.8636 28.0931 31.7339 28.2793 31.4513 28.3499C31.1712 28.4205 30.8437 28.3486 30.7216 28.192ZM34.0898 28.0341C33.9279 27.8222 34.1039 27.5731 34.4829 27.4794C34.8618 27.3857 35.3012 27.482 35.463 27.6951C35.6249 27.907 35.4489 28.1548 35.0699 28.2485C34.691 28.3422 34.2517 28.2459 34.0898 28.0341ZM33.5721 27.4871C33.3794 27.4345 33.373 27.2072 33.5541 26.9812C33.7365 26.754 34.0397 26.6127 34.2311 26.6667C34.4225 26.7193 34.4302 26.9466 34.2491 27.1725C34.068 27.3985 33.7635 27.5397 33.5721 27.4871ZM31.125 27.2239C30.7666 27.0711 30.475 26.7296 30.4724 26.4625C30.4711 26.1954 30.7614 26.103 31.1198 26.2558C31.4782 26.4086 31.7698 26.7514 31.7711 27.0185C31.7737 27.2855 31.4834 27.3767 31.125 27.2239ZM32.0165 26.9068C31.8533 26.6667 31.8084 26.3341 31.915 26.1672C32.0216 25.999 32.24 26.0581 32.4031 26.2982C32.5663 26.5395 32.6125 26.8708 32.5059 27.0377C32.398 27.2059 32.1796 27.1469 32.0165 26.9068ZM32.9041 26.1441C32.9247 25.7551 33.1444 25.3622 33.3948 25.2697C33.6453 25.176 33.8316 25.4174 33.811 25.8064C33.7905 26.1967 33.5708 26.5883 33.3203 26.6821C33.0698 26.7745 32.8836 26.5344 32.9041 26.1441Z" fill="#89E372"/>
<path fill-rule="evenodd" clip-rule="evenodd" d="M42.0069 28.4885L42.4 28.1816C41.1655 28.0442 38.4653 25.8422 37.8731 24.3862L37.5828 24.8279C38.4023 27.1095 40.1995 28.5347 42.0069 28.4885Z" fill="#83518D"/>
<path fill-rule="evenodd" clip-rule="evenodd" d="M42.3933 28.1908C42.3343 26.817 42.3343 26.817 42.3343 26.817C40.9328 26.7079 39.7111 25.6178 39.1742 23.9795C37.8588 24.3749 37.8588 24.3749 37.8588 24.3749C38.5923 26.6719 40.4177 28.2653 42.3933 28.1908Z" fill="#C7AECC"/>
<path fill-rule="evenodd" clip-rule="evenodd" d="M40.5245 24.5094C38.0709 24.7803 36.0297 23.6119 35.4542 21.8824L35.4298 21.4215L36.663 21.6013C37.2244 22.7928 38.7183 23.5593 40.4949 23.3192C42.7635 23.1946 44.594 21.5756 44.612 19.7845C44.6107 19.7755 44.6095 19.7665 44.6095 19.7588L45.4843 19.0898L45.668 19.5123C45.7026 19.6869 45.7103 19.8576 45.6949 20.0567C45.6705 22.2676 43.3994 24.3027 40.5245 24.5094Z" fill="#FB6113"/>
<path fill-rule="evenodd" clip-rule="evenodd" d="M40.4524 24.1383C38.0348 24.3964 36.0142 23.1895 35.4323 21.4228L36.6243 21.1467C37.187 22.3639 38.6656 23.1574 40.4164 22.9263C42.6516 22.8172 44.4449 21.184 44.4488 19.3595C44.4475 19.3492 44.4462 19.3415 44.4462 19.3312L45.488 19.0898C45.524 19.2683 45.5329 19.4416 45.5201 19.6445C45.5098 21.8966 43.2862 23.9496 40.4524 24.1383Z" fill="#FB9528"/>
<path fill-rule="evenodd" clip-rule="evenodd" d="M25.8055 21.4818C27.7593 21.7977 29.0876 23.6414 28.7716 25.5956C28.4556 27.5498 26.6122 28.8787 24.6584 28.5615C22.7045 28.2457 21.3762 26.4019 21.6922 24.4478C22.0083 22.4936 23.8516 21.1647 25.8055 21.4818Z" fill="#F0331B"/>
<path fill-rule="evenodd" clip-rule="evenodd" d="M24.2447 22.6001C24.8394 22.6964 25.2441 23.2575 25.1477 23.852C25.0514 24.4464 24.49 24.8509 23.8953 24.7546C23.3005 24.6583 22.8959 24.0972 22.9922 23.5027C23.0886 22.9083 23.6499 22.5038 24.2447 22.6001Z" fill="#FB5039"/>
<path fill-rule="evenodd" clip-rule="evenodd" d="M41.5495 36.5248C43.5046 36.8368 44.838 38.6767 44.5259 40.6309C44.2137 42.5851 42.3742 43.9191 40.4191 43.6071C38.4652 43.2951 37.1318 41.4552 37.4427 39.501C37.7561 37.5455 39.5956 36.2128 41.5495 36.5248Z" fill="#F0331B"/>
<path fill-rule="evenodd" clip-rule="evenodd" d="M39.9925 37.6471C40.5872 37.7421 40.9932 38.3019 40.8981 38.8977C40.803 39.4921 40.243 39.8991 39.6482 39.8041C39.0534 39.7091 38.6475 39.1493 38.7426 38.5548C38.8363 37.9578 39.3964 37.5521 39.9925 37.6471Z" fill="#FB5039"/>
<path fill-rule="evenodd" clip-rule="evenodd" d="M24.9898 39.0082L24.056 40.4064C23.9545 40.5579 23.9956 40.7646 24.1472 40.866L25.7002 41.9035C25.8518 42.0049 26.0573 41.9638 26.1588 41.8123L27.0914 40.4141C27.1929 40.2626 27.1518 40.0559 27.0002 39.9544L25.4472 38.917C25.2969 38.8156 25.0913 38.8567 24.9898 39.0082Z" fill="#FBCD00"/>
<path fill-rule="evenodd" clip-rule="evenodd" d="M23.6436 33.5742C25.1607 32.3031 27.4241 32.5046 28.6946 34.0223C29.965 35.5399 29.7647 37.8035 28.2463 39.0733C26.7292 40.3444 24.4657 40.1429 23.1953 38.6265C21.9261 37.1076 22.1265 34.844 23.6436 33.5742Z" fill="#F0331B"/>
<path fill-rule="evenodd" clip-rule="evenodd" d="M23.7887 34.4625C24.2512 34.076 24.9397 34.1363 25.3264 34.5986C25.7131 35.0608 25.6527 35.7503 25.1902 36.1368C24.7278 36.5232 24.0392 36.4629 23.6526 36.0007C23.2646 35.5384 23.3263 34.8489 23.7887 34.4625Z" fill="#FB5039"/>
<path fill-rule="evenodd" clip-rule="evenodd" d="M25.6965 26.9762L24.2462 31.4996C24.0882 31.9913 24.3605 32.5203 24.8525 32.6782L29.3755 34.1291C29.8675 34.287 30.3968 34.0148 30.5535 33.5231L32.0038 28.9997C32.1618 28.508 31.8895 27.979 31.3988 27.8211L26.8757 26.3702C26.3825 26.2123 25.8545 26.4832 25.6965 26.9762Z" fill="white"/>
<path fill-rule="evenodd" clip-rule="evenodd" d="M27.7492 33.6067C27.8443 33.5104 27.9997 33.5104 28.0948 33.6042C28.1333 33.6427 28.1577 33.6902 28.1654 33.7402L27.7492 33.6067ZM28.9465 33.8828C28.8745 33.8134 28.8733 33.6979 28.9439 33.626C29.0133 33.5541 29.1289 33.5528 29.2008 33.6221C29.2715 33.6927 29.2728 33.8083 29.2034 33.8789C29.134 33.9521 29.0184 33.9547 28.9465 33.8828ZM25.5359 32.5436C25.464 32.473 25.4627 32.3587 25.5333 32.2868C25.6027 32.2149 25.7183 32.2136 25.7902 32.283C25.8622 32.3523 25.8622 32.4691 25.7928 32.541C25.7234 32.6117 25.6078 32.6129 25.5359 32.5436ZM29.933 33.2472C29.802 33.1201 29.8007 32.9108 29.9266 32.7799C30.0538 32.6502 30.2632 32.6476 30.3929 32.7747C30.5239 32.9018 30.5265 33.1111 30.3993 33.2408C30.2722 33.373 30.0615 33.3743 29.933 33.2472ZM28.1783 32.6232C28.1064 32.5539 28.1051 32.4383 28.1757 32.3664C28.2451 32.2945 28.3594 32.2932 28.4326 32.3639C28.5046 32.4332 28.5046 32.5487 28.4352 32.6206C28.3658 32.6925 28.2502 32.6938 28.1783 32.6232ZM26.3105 31.4535C26.2797 31.2751 26.3991 31.1043 26.579 31.0722C26.7575 31.0414 26.9284 31.1621 26.9592 31.3405C26.9913 31.519 26.8706 31.6898 26.692 31.7206C26.5135 31.7527 26.3426 31.632 26.3105 31.4535ZM25.1248 30.5612C25.0529 30.4919 25.0516 30.3763 25.1223 30.3031C25.1929 30.2325 25.3072 30.2312 25.3792 30.3005C25.4511 30.3699 25.4511 30.4854 25.3817 30.5573C25.3124 30.6292 25.1968 30.6305 25.1248 30.5612ZM27.2701 30.9913C27.247 30.8591 27.3356 30.732 27.4666 30.7088C27.5989 30.6857 27.7261 30.7743 27.7492 30.9066C27.7724 31.0388 27.6824 31.1659 27.5514 31.1878C27.4191 31.2121 27.2932 31.1223 27.2701 30.9913ZM30.9491 32.1944C30.8772 32.125 30.8759 32.0095 30.9466 31.9376C30.9825 31.9003 31.0301 31.8824 31.0776 31.8824L30.971 32.2136C30.9646 32.2085 30.9568 32.2021 30.9491 32.1944ZM29.6068 31.6461C29.5104 31.5511 29.5091 31.3958 29.6029 31.2995C29.698 31.2019 29.8534 31.2006 29.951 31.2956C30.0474 31.3906 30.0499 31.546 29.9549 31.6423C29.8598 31.7399 29.7044 31.7411 29.6068 31.6461ZM31.075 31.1723C31.0031 31.103 31.0018 30.9875 31.0725 30.9156C31.1418 30.8437 31.2574 30.8424 31.3294 30.913C31.3474 30.931 31.3602 30.9515 31.3705 30.9746L31.2998 31.1967C31.2292 31.2404 31.1367 31.2327 31.075 31.1723ZM27.7094 29.7908C27.5784 29.6637 27.5771 29.4544 27.7043 29.3247C27.8315 29.1938 28.0408 29.1925 28.1706 29.3183C28.3003 29.4454 28.3029 29.6547 28.1757 29.7857C28.0485 29.9154 27.8392 29.9179 27.7094 29.7908ZM26.2707 29.0602C26.1987 28.9909 26.1975 28.8754 26.2668 28.8035C26.3375 28.7316 26.4518 28.7303 26.5237 28.8009C26.5957 28.8702 26.597 28.9858 26.5276 29.0577C26.4569 29.1309 26.3426 29.1309 26.2707 29.0602ZM30.5355 29.9154C30.4636 29.846 30.4623 29.7305 30.5329 29.6586C30.6023 29.5867 30.7179 29.5854 30.7886 29.6573C30.8605 29.7253 30.8618 29.8409 30.7924 29.9128C30.7218 29.9847 30.6062 29.986 30.5355 29.9154ZM29.3434 29.4788C29.2715 29.4082 29.2702 29.2939 29.3408 29.222C29.4102 29.1514 29.5258 29.1501 29.5978 29.2195C29.6697 29.2888 29.671 29.4043 29.6003 29.4762C29.5297 29.5481 29.4141 29.5494 29.3434 29.4788ZM25.6091 27.6094C25.5372 27.5388 25.5359 27.4245 25.6053 27.3526C25.6759 27.2807 25.7902 27.2807 25.8635 27.35C25.9354 27.4206 25.9367 27.5362 25.866 27.6068C25.7954 27.6787 25.6798 27.68 25.6091 27.6094ZM27.649 27.9676C27.5193 27.8405 27.5167 27.6312 27.6439 27.5015C27.7711 27.3719 27.9805 27.3693 28.1102 27.4964C28.24 27.6235 28.2425 27.8328 28.1153 27.9625C27.9882 28.0934 27.7788 28.0947 27.649 27.9676ZM29.2239 27.6505C29.152 27.5811 29.1507 27.4656 29.2201 27.3937C29.2907 27.3218 29.4051 27.3205 29.477 27.3898C29.5489 27.4604 29.5502 27.5747 29.4809 27.6466C29.4115 27.7198 29.2959 27.7211 29.2239 27.6505Z" fill="#DFDFDF"/>
<path fill-rule="evenodd" clip-rule="evenodd" d="M30.9646 37.9743C29.1264 38.0642 27.915 36.6403 28.1758 34.7888C28.4378 32.9373 30.199 31.3606 32.0141 31.1899C33.8279 31.0178 35.0406 32.4417 34.7785 34.2932C34.5165 36.1447 32.7784 37.8035 30.9646 37.9743Z" fill="#1F2921"/>
<path fill-rule="evenodd" clip-rule="evenodd" d="M29.3563 37.0205C29.039 36.8459 28.8964 36.3554 29.0942 36.1204C29.1867 35.8277 29.6196 35.7905 29.96 36.046C30.3004 36.3028 30.4199 36.7123 30.3274 37.0051C30.1296 37.24 29.6967 37.2773 29.3563 37.0205Z" fill="#323633"/>
<path fill-rule="evenodd" clip-rule="evenodd" d="M45.3454 52.6435C43.1231 54.0148 40.2058 53.3228 38.8351 51.1015C37.7522 49.3451 37.9577 47.1547 39.1871 45.6357L46.8162 51.2145C46.4489 51.7769 45.9543 52.2673 45.3454 52.6435Z" fill="#78BA03"/>
<path fill-rule="evenodd" clip-rule="evenodd" d="M44.9664 52.0311C43.0819 53.1944 40.6091 52.6076 39.4466 50.724C38.5229 49.2218 38.7054 47.3485 39.769 46.062L46.233 50.7882C45.9209 51.2774 45.4931 51.7037 44.9664 52.0311Z" fill="#CFE99B"/>
<path fill-rule="evenodd" clip-rule="evenodd" d="M39.5313 49.7096C39.5108 49.612 39.5416 49.4644 39.697 49.4438L42.3214 48.893C42.5218 48.843 42.5218 48.9046 42.4126 49.0227L40.6104 51.0924C40.5551 51.1515 40.4459 51.1656 40.3535 51.0732C39.9694 50.7342 39.6906 50.29 39.5313 49.7096ZM41.1871 51.5136L42.6118 49.1678C42.6914 49.0291 42.7505 49.0099 42.7646 49.2153L43.0357 51.8834C43.0626 52.0387 42.9316 52.1119 42.8327 52.1222C42.2328 52.1453 41.7241 52.0156 41.2848 51.7511C41.1679 51.692 41.1486 51.5855 41.1871 51.5136ZM39.3785 48.6581C39.3181 48.1496 39.408 47.6296 39.6752 47.0942C39.7253 47.0069 39.8473 46.9183 39.9784 47.0056L42.2996 48.3461C42.4833 48.4437 42.4422 48.4886 42.2803 48.5053L39.5583 48.843C39.4761 48.8494 39.3849 48.7878 39.3785 48.6581ZM43.6484 51.8358L43.1449 49.1396C43.1127 48.9803 43.1423 48.929 43.2913 49.0728L45.2734 50.878C45.3967 50.9769 45.3492 51.1194 45.2811 51.1939C44.8521 51.6112 44.3845 51.8551 43.8809 51.9514C43.755 51.9835 43.669 51.9142 43.6484 51.8358Z" fill="#B7DF69"/>
<path fill-rule="evenodd" clip-rule="evenodd" d="M41.349 55.1231C38.8248 55.792 36.2338 54.2847 35.5646 51.7617C35.0366 49.7665 35.8664 47.7301 37.485 46.6323L43.1706 54.182C42.6568 54.6121 42.0414 54.9382 41.349 55.1231Z" fill="#81CB00"/>
<path fill-rule="evenodd" clip-rule="evenodd" d="M41.1652 54.4274C39.0238 54.9949 36.8272 53.7173 36.2607 51.5783C35.8111 49.8732 36.5279 48.1334 37.9191 47.209L42.7376 53.6056C42.2957 53.9831 41.7639 54.2669 41.1652 54.4274Z" fill="#D8F0AB"/>
<path fill-rule="evenodd" clip-rule="evenodd" d="M36.6346 50.6305C36.6423 50.5316 36.7155 50.3994 36.8697 50.4238L39.5429 50.6562C39.7484 50.6677 39.7304 50.7255 39.5917 50.8077L37.2666 52.2662C37.196 52.3073 37.088 52.2881 37.0264 52.1738C36.7566 51.7385 36.6192 51.2314 36.6346 50.6305ZM37.6969 52.8376L39.7407 51.0041C39.8576 50.8937 39.9193 50.8924 39.8718 51.094L39.3579 53.7261C39.3387 53.8827 39.1922 53.9148 39.0946 53.8969C38.5139 53.7453 38.0643 53.4744 37.7201 53.0931C37.6263 53.0019 37.6391 52.8941 37.6969 52.8376ZM36.7926 49.5802C36.8825 49.0756 37.1189 48.6044 37.5299 48.1691C37.6032 48.0998 37.7458 48.051 37.846 48.1717L39.6791 50.1285C39.8255 50.2748 39.7741 50.3056 39.6148 50.2748L36.9108 49.81C36.8311 49.7921 36.7618 49.706 36.7926 49.5802ZM39.9591 53.8583L40.2584 51.1312C40.2738 50.9694 40.3175 50.9284 40.4177 51.1107L41.7922 53.4115C41.8821 53.5425 41.7948 53.6645 41.7074 53.7158C41.1756 53.9906 40.6579 54.0882 40.1492 54.0355C40.0182 54.0317 39.9565 53.9392 39.9591 53.8583Z" fill="#C4E87E"/>
<path fill-rule="evenodd" clip-rule="evenodd" d="M36.6642 56.7138C34.0591 56.5276 32.0988 54.2601 32.2851 51.6563C32.4341 49.5968 33.8805 47.9405 35.7676 47.4282L38.6939 56.4146C38.067 56.6573 37.3797 56.7651 36.6642 56.7138Z" fill="#8DDD00"/>
<path fill-rule="evenodd" clip-rule="evenodd" d="M36.7156 55.9961C34.5074 55.8382 32.8426 53.9161 33.0019 51.7077C33.1316 49.95 34.3725 48.5364 35.9898 48.1152L38.4704 55.7291C37.9295 55.9435 37.3335 56.0385 36.7156 55.9961Z" fill="#E5FBBA"/>
<path fill-rule="evenodd" clip-rule="evenodd" d="M33.6634 50.9345C33.7033 50.8434 33.815 50.7419 33.9538 50.8164L36.406 51.9039C36.5974 51.9809 36.5615 52.031 36.4047 52.0631L33.7315 52.6871C33.6519 52.7025 33.5555 52.6499 33.535 52.5215C33.4194 52.0207 33.454 51.4982 33.6634 50.9345ZM33.9525 53.3663L36.4805 52.2968C36.6257 52.2313 36.6848 52.2493 36.5756 52.4239L35.2345 54.7478C35.1664 54.8891 35.0161 54.8737 34.93 54.8236C34.4291 54.4923 34.0925 54.0892 33.8921 53.6167C33.833 53.5011 33.8792 53.401 33.9525 53.3663ZM34.1554 49.9921C34.4046 49.544 34.781 49.1755 35.3103 48.8969C35.4028 48.8558 35.5531 48.8545 35.6083 49.0022L36.7066 51.4481C36.7978 51.6343 36.7387 51.6458 36.5974 51.5662L34.1914 50.2489C34.122 50.2052 34.0848 50.0999 34.1554 49.9921ZM35.7612 55.0675L36.9301 52.5844C36.9969 52.4367 37.0509 52.4123 37.0881 52.6165L37.6405 55.2383C37.6829 55.3911 37.5609 55.4784 37.462 55.4989C36.8698 55.5875 36.3482 55.5118 35.8832 55.2961C35.7612 55.2499 35.7316 55.142 35.7612 55.0675Z" fill="#CAEC89"/>
</svg>
