<svg width="65" height="65" viewBox="0 0 65 65" fill="none" xmlns="http://www.w3.org/2000/svg">
<path fill-rule="evenodd" clip-rule="evenodd" d="M10.4987 8.57311C23.7068 -3.57177 44.282 -2.70896 56.4278 10.499C68.5722 23.707 67.709 44.2823 54.5022 56.4272C41.2941 68.5721 20.7189 67.7093 8.57314 54.5013C-3.57133 41.2933 -2.70937 20.718 10.4987 8.57311Z" fill="white"/>
<path fill-rule="evenodd" clip-rule="evenodd" d="M15.0599 48.5377C6.20782 38.9106 6.83726 23.9141 16.4627 15.0612C26.0893 6.2084 41.0869 6.83754 49.9389 16.4646C58.791 26.0904 58.1629 41.0882 48.5362 49.941C38.9095 58.7926 23.912 58.1635 15.0599 48.5377ZM47.5342 48.851C56.5597 40.5515 57.1506 26.491 48.8496 17.4661C40.5512 8.43991 26.4901 7.85058 17.4646 16.1513C8.43914 24.4495 7.84952 38.5113 16.1492 47.5362C24.4476 56.5624 38.5087 57.1517 47.5342 48.851Z" fill="#D6DCDF"/>
<path fill-rule="evenodd" clip-rule="evenodd" d="M28.3517 56.4864C27.6928 56.5879 27.8186 55.5427 27.5887 55.3116C27.4474 55.1691 27.2444 55.3604 27.089 55.1152C26.8025 54.6632 27.2393 53.9763 27.1802 53.5115C27.1635 53.378 26.9618 53.143 26.7923 53.396C26.6625 53.5898 26.421 53.9956 26.2091 53.8659C25.7273 53.5693 26.2103 53.0198 26.394 52.4869C26.4968 52.1929 26.3003 51.9438 26.1474 52.1043C26.0344 52.2237 25.8288 52.4381 25.7004 52.3303C25.166 51.8758 26.1769 51.1465 26.3337 50.3248C26.4082 49.9344 26.2502 49.6789 26.0022 49.7097C25.7633 49.738 25.2957 50.2683 25.0992 50.0205C24.6162 49.4106 25.5899 48.7558 25.8982 48.2961C26.1898 47.8608 26.0742 47.7068 25.9676 47.4436C25.8442 47.1367 25.2508 47.1174 25.2238 46.7887C25.166 46.08 26.2733 45.8296 26.6086 45.1646C27.6529 48.8662 28.3569 52.6217 28.3517 56.4864Z" fill="#3A800F"/>
<path fill-rule="evenodd" clip-rule="evenodd" d="M28.4133 46.2974C28.4853 46.6196 27.9265 46.8174 27.9008 47.146C27.8789 47.4311 27.8147 47.6121 28.2232 47.9395C28.6548 48.2849 29.7814 48.6162 29.5026 49.3442C29.3896 49.6395 28.7846 49.2761 28.5482 49.3198C28.3016 49.3647 28.2296 49.6562 28.4172 50.0054C28.8141 50.7411 29.9985 51.134 29.6247 51.7272C29.536 51.8684 29.274 51.7259 29.1301 51.6463C28.9374 51.5384 28.8244 51.835 29.0106 52.0854C29.3459 52.5374 29.9715 52.9174 29.6016 53.3424C29.4397 53.5299 29.0864 53.2166 28.904 53.0702C28.6664 52.8802 28.5443 53.1652 28.5675 53.2975C28.6522 53.7584 29.2753 54.2822 29.1378 54.7997C29.0633 55.0809 28.8115 54.9589 28.7203 55.1386C28.5713 55.4275 29.0055 56.3866 28.3465 56.4881L26.6021 45.1675C27.1223 45.699 28.2553 45.604 28.4133 46.2974Z" fill="#4CA914"/>
<path fill-rule="evenodd" clip-rule="evenodd" d="M26.2513 42.8702C26.3361 42.8561 26.4171 42.9164 26.4299 42.9999L28.0947 53.8082C28.1076 53.8929 28.0498 53.9738 27.9637 53.9867C27.8789 53.9995 27.7993 53.9405 27.7864 53.8557L26.1216 43.0487C26.1075 42.9639 26.1666 42.8831 26.2513 42.8702Z" fill="#2E650C"/>
<path fill-rule="evenodd" clip-rule="evenodd" d="M32 56.4225C31.3782 56.6626 31.2768 55.6149 31.0031 55.439C30.8336 55.3299 30.6769 55.561 30.4726 55.3543C30.0949 54.9742 30.3737 54.2103 30.2183 53.7686C30.172 53.6415 29.9254 53.4566 29.8136 53.7391C29.7288 53.9561 29.5785 54.4042 29.3435 54.322C28.8116 54.1371 29.1636 53.4951 29.2291 52.9366C29.2651 52.6272 29.021 52.4256 28.9067 52.6156C28.8219 52.7556 28.6665 53.0111 28.5188 52.9327C27.8996 52.6041 28.7307 51.6745 28.7076 50.8386C28.696 50.4406 28.4892 50.2262 28.2528 50.3084C28.0268 50.388 27.6825 51.0055 27.4371 50.8065C26.8334 50.3135 27.6452 49.4661 27.8482 48.9499C28.0383 48.4633 27.8932 48.3375 27.7326 48.1012C27.5463 47.829 26.9631 47.9369 26.8655 47.621C26.6561 46.9418 27.6851 46.4591 27.87 45.7388C29.6839 49.131 31.1778 52.6477 32 56.4225Z" fill="#429111"/>
<path fill-rule="evenodd" clip-rule="evenodd" d="M29.8752 46.4577C30.0153 46.7568 29.5117 47.0688 29.5567 47.3962C29.5952 47.6787 29.5734 47.87 30.0422 48.1024C30.5381 48.3476 31.7096 48.4298 31.594 49.1989C31.5465 49.5122 30.8759 49.2862 30.655 49.3799C30.425 49.4762 30.416 49.7767 30.6743 50.0784C31.2202 50.7114 32.4598 50.8411 32.2235 51.501C32.1669 51.6589 31.8805 51.5742 31.7225 51.528C31.5105 51.4638 31.4643 51.7783 31.6993 51.9825C32.1245 52.3523 32.8182 52.5898 32.5472 53.0841C32.429 53.3024 32.0166 53.0713 31.8073 52.9686C31.5336 52.8338 31.4758 53.1368 31.5272 53.2626C31.7083 53.6953 32.429 54.0728 32.4059 54.6069C32.393 54.8971 32.122 54.8329 32.0706 55.0267C31.9871 55.3413 32.6165 56.1836 31.9948 56.425L27.8649 45.7412C28.4879 46.1495 29.5734 45.8131 29.8752 46.4577Z" fill="#54B11B"/>
<path fill-rule="evenodd" clip-rule="evenodd" d="M27.2317 43.6627L31.174 53.8624C31.2049 53.9433 31.1651 54.0332 31.0854 54.0653C31.0058 54.0961 30.9146 54.0563 30.8837 53.9754L26.9413 43.777C26.9105 43.6961 26.9503 43.6062 27.03 43.5741C27.1109 43.542 27.2021 43.5818 27.2317 43.6627Z" fill="#326F0D"/>
<path fill-rule="evenodd" clip-rule="evenodd" d="M21.8684 55.0372C21.2171 54.8934 21.7117 53.9638 21.5806 53.6659C21.4997 53.4823 21.2415 53.5876 21.185 53.3026C21.0809 52.7774 21.7348 52.2946 21.8478 51.8401C21.8812 51.7092 21.7759 51.4177 21.528 51.591C21.3379 51.7259 20.9653 52.016 20.815 51.8196C20.472 51.3702 21.1208 51.0312 21.4843 50.6011C21.686 50.3636 21.5922 50.0606 21.3931 50.1556C21.2441 50.2262 20.9756 50.352 20.8947 50.2057C20.5594 49.5894 21.7656 49.2735 22.2088 48.5635C22.4195 48.2258 22.3642 47.9318 22.1215 47.8701C21.8889 47.8111 21.2608 48.1372 21.1657 47.8342C20.9345 47.0908 22.0791 46.8314 22.5325 46.5143C22.9603 46.2139 22.9089 46.0277 22.905 45.7439C22.8999 45.414 22.354 45.1816 22.4465 44.8644C22.6481 44.1814 23.7709 44.3483 24.3245 43.8501C23.9635 47.6776 23.2673 51.4344 21.8684 55.0372Z" fill="#3A800F"/>
<path fill-rule="evenodd" clip-rule="evenodd" d="M25.599 45.555C25.5514 45.8811 24.958 45.8644 24.8154 46.161C24.6921 46.4178 24.5674 46.5642 24.8308 47.0161C25.1095 47.495 26.0396 48.2102 25.5193 48.788C25.3074 49.023 24.8732 48.4644 24.6368 48.4208C24.3902 48.3746 24.218 48.6185 24.2681 49.014C24.3735 49.8421 25.3356 50.6369 24.7743 51.0554C24.6394 51.1556 24.448 50.927 24.3426 50.8012C24.2013 50.6317 23.9894 50.868 24.0729 51.1684C24.2232 51.7103 24.6689 52.2919 24.1705 52.5551C23.9508 52.6719 23.735 52.2508 23.6181 52.0505C23.464 51.7873 23.2482 52.0094 23.2238 52.1417C23.1364 52.6013 23.5282 53.3152 23.2135 53.7479C23.0426 53.9828 22.8525 53.78 22.7009 53.9135C22.4582 54.1292 22.5173 55.1795 21.866 55.037L24.3208 43.8486C24.6111 44.5304 25.7017 44.8501 25.599 45.555Z" fill="#4CA914"/>
<path fill-rule="evenodd" clip-rule="evenodd" d="M24.8192 41.5787C24.9039 41.5967 24.9566 41.6814 24.9386 41.7649L22.5942 52.4461C22.5763 52.5295 22.4928 52.5834 22.408 52.5655C22.3245 52.5462 22.2705 52.4628 22.2898 52.3793L24.6342 41.6981C24.6509 41.6134 24.7344 41.5607 24.8192 41.5787Z" fill="#2E650C"/>
<path fill-rule="evenodd" clip-rule="evenodd" d="M25.2932 56.2914C24.6265 56.2914 24.9091 55.277 24.7177 55.0138C24.5983 54.852 24.3683 55.01 24.2527 54.7442C24.0382 54.2537 24.5739 53.6413 24.5867 53.1726C24.5906 53.0378 24.4261 52.7759 24.2193 52.9993C24.0613 53.1713 23.7607 53.5347 23.5719 53.3742C23.1416 53.0096 23.7029 52.5384 23.965 52.0402C24.1101 51.7641 23.9547 51.4881 23.78 51.6242C23.6502 51.7243 23.4126 51.9054 23.3034 51.7795C22.8448 51.2493 23.9547 50.6818 24.2347 49.8947C24.3683 49.5185 24.2527 49.2437 24.0022 49.236C23.762 49.2283 23.2186 49.6803 23.0619 49.4055C22.6765 48.7289 23.7389 48.2307 24.114 47.8224C24.4672 47.4372 24.3773 47.2677 24.3118 46.9904C24.236 46.6694 23.6528 46.559 23.6759 46.2303C23.7248 45.5203 24.859 45.442 25.2919 44.8359C25.7634 48.6557 25.888 52.4742 25.2932 56.2914Z" fill="#429111"/>
<path fill-rule="evenodd" clip-rule="evenodd" d="M26.9051 46.2316C26.9282 46.5603 26.345 46.6708 26.2705 46.9917C26.205 47.2691 26.1138 47.4386 26.4684 47.825C26.8435 48.232 27.9058 48.7302 27.5204 49.4081C27.3637 49.6829 26.8203 49.231 26.5801 49.2387C26.3309 49.2464 26.214 49.5211 26.3476 49.8973C26.6277 50.6844 27.7375 51.2532 27.2789 51.7822C27.1698 51.9093 26.9321 51.7269 26.8036 51.6268C26.6289 51.4907 26.4735 51.7668 26.6187 52.0428C26.882 52.5397 27.4421 53.0122 27.013 53.3768C26.8229 53.5373 26.521 53.1727 26.3643 53.0019C26.1575 52.7785 25.9931 53.0404 25.9969 53.1752C26.0111 53.6439 26.5467 54.2563 26.3322 54.7468C26.2153 55.0139 25.9866 54.8547 25.8685 55.0177C25.6771 55.2796 25.9597 56.294 25.293 56.294V44.8398C25.722 45.4433 26.855 45.5216 26.9051 46.2316Z" fill="#54B11B"/>
<path fill-rule="evenodd" clip-rule="evenodd" d="M25.4472 42.6713V53.6054C25.4472 53.6914 25.3778 53.7621 25.2917 53.7621C25.2057 53.7621 25.135 53.6914 25.135 53.6054V42.6713C25.135 42.5853 25.2044 42.5146 25.2917 42.5146C25.3778 42.5146 25.4472 42.5853 25.4472 42.6713Z" fill="#326F0D"/>
<path fill-rule="evenodd" clip-rule="evenodd" d="M33.4503 47.1535C33.5736 47.7506 33.0199 48.3155 32.8786 48.9036C32.7245 49.5404 32.9056 50.3827 32.4611 50.886C31.8317 51.5986 30.5227 51.1364 30.0757 50.0206C29.6299 48.9061 30.0307 47.4001 30.9697 46.6566C31.9088 45.9158 33.2409 46.1302 33.4503 47.1535Z" fill="#850317"/>
<path fill-rule="evenodd" clip-rule="evenodd" d="M32.7388 48.5093C32.8416 48.4489 32.9508 48.4348 33.0484 48.4605C32.9777 48.6068 32.9148 48.7558 32.8788 48.9047C32.8339 49.0883 32.8172 49.2873 32.8056 49.4928C32.6733 49.4658 32.5564 49.3708 32.4999 49.2193C32.401 48.9625 32.5089 48.6441 32.7388 48.5093Z" fill="#F1A84A"/>
<path fill-rule="evenodd" clip-rule="evenodd" d="M31.9162 39.6155C32.1012 39.975 31.5 40.3795 31.5706 40.7762C31.631 41.119 31.6117 41.3527 32.1962 41.6159C32.8128 41.8919 34.2464 41.9369 34.1424 42.8832C34.0987 43.2671 33.2714 43.0231 33.0042 43.1476C32.728 43.2773 32.7293 43.642 33.062 44.0002C33.757 44.7475 35.2779 44.8489 35.0197 45.6655C34.9581 45.8606 34.6048 45.7708 34.4096 45.7207C34.1475 45.6526 34.1064 46.0378 34.4031 46.2779C34.9388 46.7093 35.7969 46.9661 35.4899 47.5837C35.355 47.8546 34.8399 47.5927 34.5817 47.4759C34.2413 47.3243 34.1848 47.698 34.2528 47.8482C34.4943 48.3682 35.3923 48.7958 35.3897 49.4493C35.3871 49.8062 35.0531 49.7382 34.9979 49.9796C34.9106 50.3647 35.7147 51.3624 34.9748 51.6872L34.9696 51.6898C34.2272 52.0043 34.0524 50.7345 33.712 50.5329C33.5001 50.4084 33.3189 50.6973 33.0595 50.4546C32.5816 50.0078 32.8873 49.0615 32.6754 48.53C32.6137 48.3759 32.3028 48.1602 32.1795 48.512C32.0857 48.7816 31.9252 49.335 31.6336 49.2464C30.9759 49.0461 31.3767 48.2462 31.4319 47.5593C31.4614 47.1805 31.1531 46.9469 31.0234 47.1831C30.9258 47.359 30.7472 47.6774 30.5648 47.5876C29.7928 47.2139 30.7639 46.0404 30.6971 45.0209C30.665 44.5356 30.4017 44.2814 30.1178 44.3944C29.8441 44.5009 29.4523 45.2713 29.144 45.0389C28.3849 44.465 29.3355 43.3916 29.559 42.7522C29.7696 42.1487 29.5859 42.0024 29.3778 41.7225C29.1376 41.3989 28.4298 41.5568 28.2975 41.1768C28.0586 40.4937 28.873 39.9378 29.2635 39.2586L29.8621 39.0005C30.62 39.1828 31.5835 38.9722 31.9162 39.6155Z" fill="#3A9C00"/>
<path fill-rule="evenodd" clip-rule="evenodd" d="M40.0323 39.9132C40.3895 39.7476 40.7607 40.3523 41.1512 40.2997C41.4878 40.2547 41.7177 40.283 41.9965 39.7245C42.2906 39.1326 42.3947 37.7356 43.3145 37.8769C43.687 37.9346 43.4159 38.7333 43.5251 38.999C43.6407 39.2738 43.9979 39.2866 44.3614 38.9785C45.1193 38.3301 45.2811 36.8497 46.0673 37.136C46.2561 37.2041 46.1547 37.5456 46.0969 37.7331C46.0198 37.9847 46.3949 38.0425 46.6402 37.7626C47.0834 37.2567 47.3712 36.4298 47.9608 36.7547C48.2203 36.8985 47.9441 37.389 47.8182 37.638C47.6563 37.9629 48.0186 38.0335 48.1676 37.9732C48.684 37.7587 49.1413 36.8998 49.7772 36.9293C50.1253 36.9473 50.0457 37.2708 50.2782 37.3337C50.652 37.4352 51.6578 36.6905 51.9456 37.4275L51.9469 37.4326C52.223 38.1722 50.977 38.2877 50.765 38.6126C50.634 38.8141 50.9089 39.0042 50.6623 39.2468C50.2062 39.6949 49.2942 39.3585 48.7662 39.5434C48.6134 39.5974 48.3911 39.8914 48.729 40.0262C48.9872 40.1289 49.5216 40.31 49.4239 40.5899C49.2004 41.2241 48.4361 40.8004 47.7681 40.7182C47.3994 40.6733 47.1579 40.966 47.384 41.1009C47.551 41.2036 47.8529 41.391 47.7604 41.5669C47.3635 42.3052 46.2587 41.3089 45.2593 41.332C44.784 41.3422 44.5258 41.5888 44.6247 41.8712C44.7172 42.1421 45.4546 42.5569 45.2144 42.8483C44.6222 43.5673 43.6138 42.5928 42.9997 42.3489C42.4191 42.119 42.2675 42.2924 41.9862 42.4837C41.6586 42.7058 41.7858 43.4017 41.4081 43.516C40.7312 43.7214 40.2225 42.9035 39.575 42.494L39.3477 41.8995C39.5558 41.1612 39.39 40.2111 40.0323 39.9132Z" fill="#46BB00"/>
<path fill-rule="evenodd" clip-rule="evenodd" d="M18.188 44.217C18.4654 43.6739 19.2503 43.5801 19.7308 43.2116C20.2497 42.8123 20.6377 42.042 21.298 41.929C22.2357 41.7672 22.9666 42.9497 22.6134 44.0976C22.2627 45.2454 21.0064 46.1686 19.8091 46.1596C18.6145 46.1468 17.7114 45.1453 18.188 44.217Z" fill="#850317"/>
<path fill-rule="evenodd" clip-rule="evenodd" d="M18.369 44.5433C18.4538 44.2763 18.6978 44.1248 18.9136 44.2069C19.1294 44.2878 19.2373 44.5703 19.1526 44.8374C19.0691 45.1031 18.825 45.2546 18.6079 45.1737C18.3934 45.0916 18.2855 44.8091 18.369 44.5433Z" fill="#91081D"/>
<path fill-rule="evenodd" clip-rule="evenodd" d="M19.5933 43.6059C19.4751 43.5893 19.3813 43.5315 19.3209 43.4506C19.4686 43.38 19.6112 43.3042 19.732 43.2105C19.8823 43.0949 20.0197 42.9498 20.1572 42.7983C20.2433 42.9023 20.2741 43.05 20.2253 43.2028C20.1405 43.466 19.8566 43.6458 19.5933 43.6059Z" fill="#F1A84A"/>
<path fill-rule="evenodd" clip-rule="evenodd" d="M16.9472 43.0375C15.3247 42.1682 15.019 40.3232 16.197 38.8698C17.3749 37.4176 19.6975 36.9734 21.3405 37.7604C22.9834 38.5475 23.2892 40.3925 22.1125 41.8447C20.9345 43.2968 18.5902 43.8232 16.9472 43.0375Z" fill="#1F2921"/>
<path fill-rule="evenodd" clip-rule="evenodd" d="M16.0596 41.3915C15.8772 41.0782 16.0082 40.5839 16.2998 40.485C16.5297 40.2809 16.9202 40.4722 17.0795 40.8676C17.2401 41.2631 17.1309 41.6753 16.901 41.8781C16.6094 41.9783 16.2189 41.7857 16.0596 41.3915Z" fill="#323633"/>
<path fill-rule="evenodd" clip-rule="evenodd" d="M19.8659 42.3774L20.4324 43.9593C20.494 44.1313 20.6829 44.2212 20.855 44.1596L22.6136 43.5304C22.7857 43.4688 22.8756 43.2788 22.814 43.1067L22.2475 41.5249C22.1858 41.3529 21.997 41.263 21.8248 41.3246L20.0663 41.9537C19.8941 42.0167 19.8055 42.2054 19.8659 42.3774Z" fill="#FBCD00"/>
<path fill-rule="evenodd" clip-rule="evenodd" d="M46.2613 34.8418L46.7096 34.6235C46.2908 35.7919 47.0847 39.1854 48.1329 40.3577L47.6101 40.4244C45.917 38.6872 45.4263 36.4467 46.2613 34.8418Z" fill="#83518D"/>
<path fill-rule="evenodd" clip-rule="evenodd" d="M46.6993 34.625C47.9081 35.2811 47.9081 35.2811 47.9081 35.2811C47.3904 36.5882 47.8336 38.1649 49.0694 39.3666C48.1367 40.3758 48.1367 40.3758 48.1367 40.3758C46.3949 38.708 45.7641 36.3673 46.6993 34.625Z" fill="#C7AECC"/>
<path fill-rule="evenodd" clip-rule="evenodd" d="M45.9453 44.8205C47.7836 44.9103 48.9949 43.4864 48.7342 41.635C48.4734 39.7835 46.7109 38.2068 44.8958 38.0361C43.082 37.864 41.8693 39.2879 42.1314 41.1394C42.3922 42.9908 44.1302 44.6497 45.9453 44.8205Z" fill="#1F2921"/>
<path fill-rule="evenodd" clip-rule="evenodd" d="M47.5522 43.8667C47.8695 43.692 48.0121 43.2016 47.8143 42.9666C47.7218 42.6726 47.2889 42.6354 46.9485 42.8921C46.6081 43.1476 46.4886 43.5572 46.5811 43.8512C46.7789 44.0875 47.2118 44.1234 47.5522 43.8667Z" fill="#323633"/>
<path fill-rule="evenodd" clip-rule="evenodd" d="M29.4139 46.2125L29.6143 47.8803C29.6361 48.0613 29.8006 48.191 29.983 48.1692L31.8366 47.9471C32.0178 47.9252 32.1475 47.7596 32.1257 47.5786L31.9253 45.9094C31.9034 45.7284 31.739 45.5987 31.5566 45.6206L29.7029 45.8427C29.5218 45.8658 29.3921 46.0314 29.4139 46.2125Z" fill="#FBCD00"/>
<path fill-rule="evenodd" clip-rule="evenodd" d="M30.0693 49.2578C28.8669 50.5045 27.1173 50.3106 26.1025 48.8726C25.0877 47.4346 25.2778 45.2172 26.4108 43.9294C27.5438 42.6416 29.2934 42.8355 30.3082 44.2735C31.3231 45.7115 31.2023 47.9687 30.0693 49.2578Z" fill="#1F2921"/>
<path fill-rule="evenodd" clip-rule="evenodd" d="M28.3518 49.6404C28.0217 49.7251 27.6068 49.4812 27.5913 49.1923C27.4655 48.9316 27.7391 48.6273 28.1386 48.5824C28.5368 48.5375 28.8836 48.7416 29.0082 49.0023C29.0237 49.2924 28.75 49.5967 28.3518 49.6404Z" fill="#323633"/>
<path fill-rule="evenodd" clip-rule="evenodd" d="M30.1102 41.513C29.8314 41.8057 29.2521 41.3692 28.9001 41.5669C28.5956 41.7364 28.3683 41.7955 28.3117 42.4323C28.2527 43.1051 28.6791 44.4751 27.7517 44.6856C27.3753 44.7717 27.3342 43.9076 27.1299 43.697C26.9167 43.4774 26.5724 43.5994 26.3438 44.0295C25.8646 44.9309 26.268 46.401 25.4124 46.4241C25.2069 46.4292 25.1761 46.0659 25.1594 45.8656C25.1375 45.596 24.7612 45.6833 24.6314 46.0415C24.4002 46.6886 24.4362 47.5835 23.754 47.4962C23.4522 47.4577 23.5318 46.885 23.5575 46.6026C23.5896 46.2315 23.2184 46.3009 23.0976 46.4151C22.6866 46.8131 22.5748 47.8018 21.9582 48.0136C21.6203 48.1279 21.5754 47.7902 21.33 47.8172C20.9357 47.8609 20.2574 48.9484 19.7089 48.3552L19.705 48.3513C19.1642 47.7517 20.3075 47.1727 20.3859 46.7836C20.4347 46.5422 20.102 46.4665 20.2471 46.1416C20.513 45.5446 21.5073 45.5215 21.9402 45.1479C22.0648 45.04 22.1663 44.6754 21.7951 44.6741C21.5099 44.6741 20.9344 44.7023 20.9228 44.3993C20.8971 43.7111 21.7835 43.828 22.4502 43.6546C22.8189 43.5583 22.9383 43.1898 22.6724 43.1449C22.4733 43.1102 22.1149 43.046 22.1393 42.8432C22.2382 41.9919 23.6654 42.5247 24.607 42.128C25.0553 41.9393 25.2082 41.6067 25.0091 41.3756C24.8177 41.1522 23.9621 41.0341 24.0803 40.6669C24.3732 39.7617 25.6989 40.3086 26.3759 40.3099C27.0143 40.3112 27.094 40.0891 27.2905 39.8028C27.5179 39.4689 27.1364 38.8539 27.4524 38.6023C28.0189 38.1529 28.8102 38.7409 29.5809 38.8873L30.0202 39.3688C30.0948 40.1469 30.6086 40.9891 30.1102 41.513Z" fill="#46BB00"/>
<path fill-rule="evenodd" clip-rule="evenodd" d="M20.8341 35.3475C21.3968 35.1112 22.0571 35.5452 22.6621 35.5735C23.316 35.6017 24.1085 35.2627 24.6879 35.6017C25.5087 36.0832 25.3058 37.457 24.2974 38.108C23.289 38.7602 21.7333 38.6562 20.8239 37.8782C19.9157 37.0975 19.8707 35.7506 20.8341 35.3475Z" fill="#850317"/>
<path fill-rule="evenodd" clip-rule="evenodd" d="M20.7637 35.7134C21 35.5645 21.2839 35.6056 21.397 35.8072C21.5113 36.0088 21.4098 36.2938 21.1734 36.444C20.9384 36.593 20.6545 36.5531 20.5401 36.3503C20.4271 36.1487 20.5273 35.8624 20.7637 35.7134Z" fill="#91081D"/>
<path fill-rule="evenodd" clip-rule="evenodd" d="M22.3011 35.784C22.2228 35.6954 22.1868 35.5914 22.1932 35.4912C22.3512 35.5323 22.508 35.5657 22.6621 35.5721C22.8509 35.5798 23.0501 35.558 23.253 35.531C23.253 35.6658 23.1811 35.7994 23.0436 35.8841C22.8111 36.0292 22.4784 35.9855 22.3011 35.784Z" fill="#F1A84A"/>
<path fill-rule="evenodd" clip-rule="evenodd" d="M23.7527 44.7078C21.6614 43.7358 20.7519 41.2488 21.7256 39.156C22.4245 37.6499 23.9107 36.7575 25.4689 36.7383V45.0968C24.8921 45.0917 24.3089 44.9671 23.7527 44.7078Z" fill="#3B9100"/>
<path fill-rule="evenodd" clip-rule="evenodd" d="M24.0546 44.0592C22.3204 43.2542 21.5676 41.1922 22.373 39.4588C22.9524 38.2134 24.1792 37.4738 25.4676 37.4546V44.3828C24.9936 44.3764 24.5119 44.2724 24.0546 44.0592Z" fill="#9CF088"/>
<path fill-rule="evenodd" clip-rule="evenodd" d="M23.8376 42.5673C23.993 42.2091 24.3347 41.9176 24.6019 41.9176C24.8691 41.9176 24.9603 42.2078 24.8049 42.566C24.6508 42.9242 24.3078 43.2157 24.0406 43.2157C23.7734 43.2157 23.6835 42.9255 23.8376 42.5673ZM25.2558 42.7702C25.1851 42.4877 25.2558 42.1616 25.4138 42.0396C25.4318 42.0268 25.4498 42.0152 25.4678 42.0088V43.0886C25.3765 43.0475 25.2969 42.9345 25.2558 42.7702ZM23.6321 41.8213C23.4702 41.7058 23.5396 41.4901 23.7888 41.3398C24.038 41.1883 24.3707 41.1601 24.5326 41.2744C24.6944 41.3899 24.6251 41.6056 24.3759 41.7558C24.1279 41.9074 23.7952 41.9369 23.6321 41.8213ZM23.7323 40.7788C23.3443 40.7377 22.9641 40.4976 22.8844 40.2421C22.8048 39.9879 23.054 39.8132 23.4432 39.8543C23.8312 39.8954 24.2101 40.1355 24.2911 40.391C24.3707 40.6452 24.1202 40.8198 23.7323 40.7788ZM24.4915 40.2125C24.2654 40.0302 24.1241 39.7272 24.1755 39.5359C24.2281 39.3433 24.4555 39.3356 24.6816 39.5166C24.909 39.7002 25.0503 40.002 24.9976 40.1946C24.9449 40.3859 24.7176 40.3949 24.4915 40.2125ZM25.1158 39.2226C25.0207 38.8439 25.1158 38.4047 25.3264 38.2417C25.3727 38.207 25.4202 38.1865 25.4678 38.1826V39.6707C25.3187 39.6463 25.18 39.4833 25.1158 39.2226Z" fill="#89E372"/>
<path fill-rule="evenodd" clip-rule="evenodd" d="M36.6591 44.4199C36.7825 45.017 36.2288 45.5819 36.0875 46.1712C35.9333 46.8068 36.1145 47.6503 35.67 48.1536C35.0406 48.8662 33.7303 48.404 33.2845 47.2883C32.8388 46.1738 33.2396 44.6677 34.1786 43.9243C35.1176 43.1809 36.4497 43.3966 36.6591 44.4199Z" fill="#850317"/>
<path fill-rule="evenodd" clip-rule="evenodd" d="M36.3135 44.2785C36.4162 44.5391 36.3186 44.81 36.1002 44.8832C35.8806 44.9551 35.6198 44.8036 35.5196 44.5417C35.4168 44.2811 35.5132 44.0101 35.7328 43.9382C35.9512 43.865 36.2133 44.0178 36.3135 44.2785Z" fill="#91081D"/>
<path fill-rule="evenodd" clip-rule="evenodd" d="M35.9473 45.7744C36.0501 45.714 36.158 45.6999 36.2569 45.7256C36.1862 45.872 36.1233 46.0209 36.0873 46.1698C36.0423 46.3522 36.0256 46.5525 36.0141 46.7579C35.8818 46.7309 35.7649 46.6359 35.7084 46.4844C35.6095 46.2289 35.7174 45.9105 35.9473 45.7744Z" fill="#F1A84A"/>
<path fill-rule="evenodd" clip-rule="evenodd" d="M32.2786 39.5218C34.2338 39.8338 35.5659 41.6737 35.255 43.6279C34.9429 45.5821 33.1033 46.9161 31.1482 46.6041C29.1943 46.2921 27.8609 44.4522 28.1718 42.498C28.484 40.5439 30.3235 39.2098 32.2786 39.5218Z" fill="#F0331B"/>
<path fill-rule="evenodd" clip-rule="evenodd" d="M30.7206 40.6442C31.3154 40.7392 31.7213 41.299 31.6262 41.8947C31.5312 42.4892 30.9711 42.8962 30.3763 42.8012C29.7816 42.7062 29.3757 42.1464 29.4707 41.5506C29.5645 40.9549 30.1259 40.5492 30.7206 40.6442Z" fill="#FB5039"/>
<path fill-rule="evenodd" clip-rule="evenodd" d="M27.7016 42.9473L26.7677 44.3442C26.6663 44.4958 26.7074 44.7025 26.859 44.8039L28.412 45.8413C28.5636 45.9428 28.7691 45.9017 28.8706 45.7502L29.8032 44.3519C29.9047 44.2004 29.8636 43.995 29.712 43.8923L28.159 42.8549C28.0087 42.7547 27.8031 42.7945 27.7016 42.9473Z" fill="#FBCD00"/>
<path fill-rule="evenodd" clip-rule="evenodd" d="M44.8148 34.9135L43.8809 36.3105C43.7794 36.462 43.8205 36.6687 43.9721 36.7701L45.5252 37.8063C45.6768 37.9077 45.8823 37.8666 45.9851 37.7151L46.9177 36.3169C47.0192 36.1654 46.9781 35.9587 46.8265 35.8572L45.2734 34.8198C45.1218 34.7196 44.9163 34.7607 44.8148 34.9135Z" fill="#FBCD00"/>
<path fill-rule="evenodd" clip-rule="evenodd" d="M46.1369 37.1119C45.7284 36.66 44.9461 36.7729 44.386 36.5405C43.781 36.2889 43.2081 35.6456 42.5388 35.7073C41.5921 35.7946 41.1913 37.1247 41.8297 38.1429C42.4656 39.1598 43.9172 39.726 45.072 39.4076C46.2256 39.0879 46.837 37.8861 46.1369 37.1119Z" fill="#850317"/>
<path fill-rule="evenodd" clip-rule="evenodd" d="M46.0458 37.4739C45.8955 37.2377 45.6206 37.1555 45.433 37.2891C45.2455 37.4239 45.2134 37.7243 45.3649 37.9606C45.5152 38.1968 45.7901 38.279 45.9777 38.1442C46.1652 38.0106 46.1974 37.7102 46.0458 37.4739Z" fill="#91081D"/>
<path fill-rule="evenodd" clip-rule="evenodd" d="M44.6223 36.8858C44.7315 36.8395 44.8073 36.7586 44.8446 36.6662C44.684 36.6354 44.5273 36.5994 44.386 36.5404C44.2113 36.4685 44.0404 36.3645 43.8683 36.2515C43.8117 36.3747 43.8195 36.525 43.9081 36.6598C44.0571 36.8909 44.377 36.9923 44.6223 36.8858Z" fill="#F1A84A"/>
<path fill-rule="evenodd" clip-rule="evenodd" d="M34.6781 44.9454C33.7738 42.6484 34.3686 40.3719 35.8857 39.364L36.325 39.2202L36.474 40.4579C35.472 41.3118 35.1226 42.9527 35.8189 44.6064C36.5344 46.7622 38.5743 48.1052 40.3085 47.6545C40.3175 47.6506 40.3252 47.6481 40.3329 47.6455L41.2077 48.3145L40.848 48.6021C40.6887 48.6817 40.5269 48.7343 40.3303 48.7715C38.1889 49.3236 35.63 47.6635 34.6781 44.9454Z" fill="#FB6113"/>
<path fill-rule="evenodd" clip-rule="evenodd" d="M35.0173 44.7781C34.136 42.512 34.7719 40.2458 36.3237 39.2212L36.9017 40.2984C35.8741 41.16 35.4964 42.7944 36.176 44.425C36.8671 46.5538 38.9121 47.8558 40.6746 47.3833C40.6836 47.3794 40.6913 47.3768 40.7003 47.373L41.2064 48.3154C41.0432 48.3976 40.8788 48.4515 40.6797 48.4913C38.5049 49.0717 35.9409 47.4629 35.0173 44.7781Z" fill="#FB9528"/>
<path fill-rule="evenodd" clip-rule="evenodd" d="M33.5633 41.6083L32.6294 43.0065C32.528 43.158 32.5691 43.3647 32.7206 43.4662L34.2737 44.5036C34.4253 44.605 34.6308 44.5639 34.7336 44.4124L35.6675 43.0142C35.769 42.8627 35.7279 42.6573 35.5763 42.5545L34.0232 41.5171C33.8716 41.4157 33.6648 41.4568 33.5633 41.6083Z" fill="#FBCD00"/>
<path fill-rule="evenodd" clip-rule="evenodd" d="M25.8786 40.2331L28.2294 44.0913C28.4851 44.5112 29.0349 44.6447 29.4536 44.3879L33.3113 42.0357C33.7313 41.7802 33.8636 41.2307 33.6093 40.8109L31.2572 36.9526C31.0016 36.5327 30.4531 36.4005 30.033 36.656L26.1754 39.0069C25.7566 39.2637 25.623 39.8132 25.8786 40.2331Z" fill="white"/>
<path fill-rule="evenodd" clip-rule="evenodd" d="M31.9265 42.8818C31.9163 42.7534 32.0126 42.6417 32.1398 42.6302C32.1912 42.6263 32.2413 42.6392 32.2824 42.6648L31.9265 42.8818ZM32.8707 42.1923C32.7756 42.2 32.6921 42.1294 32.6844 42.0344C32.6767 41.9394 32.7474 41.8559 32.8424 41.8482C32.9388 41.8405 33.021 41.9112 33.0287 42.0062C33.0364 42.0999 32.9658 42.1846 32.8707 42.1923ZM29.7838 43.8127C29.6888 43.8204 29.6053 43.7498 29.5976 43.6548C29.5899 43.5597 29.6605 43.4763 29.7556 43.4686C29.8506 43.4609 29.9341 43.5315 29.9431 43.6278C29.9496 43.7202 29.8789 43.8037 29.7838 43.8127ZM33.0261 41.0869C32.854 41.1023 32.7024 40.9739 32.6883 40.8005C32.6729 40.6285 32.8013 40.4757 32.9748 40.4616C33.1469 40.4462 33.2985 40.5746 33.3139 40.7479C33.3267 40.9199 33.1983 41.0727 33.0261 41.0869ZM31.4859 41.9612C31.3909 41.9689 31.3074 41.8983 31.2984 41.8033C31.2894 41.7083 31.3613 41.6248 31.4564 41.6171C31.5514 41.6094 31.6349 41.68 31.6426 41.7751C31.6516 41.8701 31.581 41.9535 31.4859 41.9612ZM29.482 42.5762C29.3342 42.4876 29.2854 42.2951 29.3741 42.1461C29.4627 41.9985 29.6554 41.9497 29.8044 42.0396C29.9521 42.1281 30.0009 42.3207 29.9123 42.4697C29.8224 42.6173 29.6297 42.6648 29.482 42.5762ZM28.1023 42.8741C28.0073 42.8831 27.9238 42.8112 27.9161 42.7162C27.9083 42.6212 27.979 42.5377 28.0741 42.53C28.1691 42.5223 28.2526 42.5929 28.2603 42.6879C28.268 42.783 28.1974 42.8664 28.1023 42.8741ZM29.7466 41.5992C29.6361 41.5337 29.6014 41.3912 29.6669 41.2807C29.7325 41.1716 29.875 41.1357 29.9842 41.2011C30.0934 41.2666 30.1294 41.4091 30.0639 41.5183C29.9971 41.6287 29.8545 41.6634 29.7466 41.5992ZM32.9015 39.7002C32.8065 39.7079 32.723 39.6373 32.7153 39.5423C32.7101 39.4948 32.7281 39.4473 32.7577 39.4139L32.9298 39.6963C32.9208 39.6989 32.9118 39.7002 32.9015 39.7002ZM31.6722 40.3255C31.5437 40.337 31.4307 40.2407 31.4204 40.1123C31.4088 39.9839 31.5052 39.871 31.6336 39.8594C31.7621 39.8478 31.8751 39.9441 31.8867 40.0725C31.8957 40.2009 31.8006 40.3152 31.6722 40.3255ZM32.2451 38.9748C32.15 38.9825 32.0665 38.9118 32.0576 38.8168C32.0498 38.7218 32.1205 38.6384 32.2156 38.6307C32.24 38.6294 32.2631 38.6319 32.2849 38.6384L32.4005 38.8284C32.389 38.9054 32.326 38.9683 32.2451 38.9748ZM29.157 40.536C28.9835 40.5502 28.832 40.4218 28.8178 40.2484C28.8037 40.0764 28.9322 39.9236 29.1043 39.9095C29.2764 39.8954 29.428 40.0237 29.4434 40.1971C29.4576 40.3691 29.3278 40.5206 29.157 40.536ZM27.7362 41.1177C27.6412 41.1267 27.5577 41.0548 27.5499 40.9597C27.541 40.8647 27.6129 40.7813 27.708 40.7736C27.803 40.7659 27.8865 40.8365 27.8942 40.9315C27.9032 41.0265 27.8313 41.11 27.7362 41.1177ZM31.0055 38.5806C30.9104 38.5883 30.8269 38.5177 30.8192 38.4227C30.8102 38.3276 30.8809 38.2442 30.9759 38.2365C31.071 38.2275 31.1545 38.2994 31.1622 38.3944C31.1699 38.4894 31.0993 38.5729 31.0055 38.5806ZM29.9483 39.1661C29.8532 39.1738 29.7697 39.1032 29.762 39.0081C29.753 38.9131 29.8249 38.8297 29.92 38.822C30.0151 38.8143 30.0986 38.8849 30.1063 38.9799C30.114 39.0749 30.0446 39.1584 29.9483 39.1661ZM26.2795 40.6901C26.1844 40.6991 26.1009 40.6272 26.0919 40.5322C26.083 40.4372 26.1549 40.355 26.25 40.346C26.345 40.337 26.4285 40.4089 26.4362 40.5039C26.4465 40.599 26.3746 40.6824 26.2795 40.6901ZM27.8069 39.446C27.6347 39.4601 27.4819 39.3317 27.469 39.1596C27.4549 38.9863 27.5821 38.8348 27.7555 38.8207C27.9276 38.8066 28.0792 38.935 28.0946 39.107C28.1087 39.2791 27.9803 39.4318 27.8069 39.446ZM28.5583 38.1145C28.4646 38.1235 28.3798 38.0516 28.3721 37.9566C28.3631 37.8616 28.435 37.7781 28.5301 37.7691C28.6251 37.7614 28.7086 37.832 28.7164 37.9283C28.7253 38.0234 28.6547 38.1068 28.5583 38.1145Z" fill="#DFDFDF"/>
<path fill-rule="evenodd" clip-rule="evenodd" d="M44.3961 44.8758C44.4501 44.2684 43.836 43.7703 43.6266 43.2028C43.4006 42.5878 43.4841 41.7301 42.9843 41.2807C42.2765 40.6451 41.0292 41.255 40.7145 42.4131C40.3998 43.5713 40.9701 45.0221 41.9888 45.6525C43.0062 46.2817 44.3036 45.9158 44.3961 44.8758Z" fill="#850317"/>
<path fill-rule="evenodd" clip-rule="evenodd" d="M44.0684 45.0556C44.139 44.7846 44.0131 44.5266 43.7871 44.4803C43.561 44.4341 43.3195 44.6152 43.2475 44.8861C43.1756 45.157 43.3015 45.4138 43.5301 45.4613C43.7562 45.5062 43.9977 45.3239 44.0684 45.0556Z" fill="#91081D"/>
<path fill-rule="evenodd" clip-rule="evenodd" d="M43.5342 43.6111C43.6421 43.6586 43.7526 43.6611 43.8464 43.6239C43.759 43.4852 43.6794 43.3453 43.6267 43.2015C43.5612 43.0243 43.5214 42.8279 43.4867 42.625C43.3583 42.6661 43.2542 42.7752 43.2144 42.9319C43.1463 43.1989 43.2889 43.5032 43.5342 43.6111Z" fill="#F1A84A"/>
<path fill-rule="evenodd" clip-rule="evenodd" d="M40.5885 43.7256L39.6559 45.1226C39.5544 45.2741 39.5956 45.4808 39.7471 45.5822L41.3002 46.6196C41.4518 46.7211 41.6573 46.68 41.7601 46.5285L42.694 45.1303C42.7955 44.9788 42.7544 44.7733 42.6028 44.6706L41.0497 43.6332C40.8956 43.533 40.69 43.5728 40.5885 43.7256Z" fill="#FBCD00"/>
<path fill-rule="evenodd" clip-rule="evenodd" d="M35.7304 40.2678L34.7618 44.8053C34.6565 45.2983 34.9725 45.7862 35.4658 45.8915L40.003 46.8609C40.4962 46.9662 40.9831 46.6503 41.0884 46.1573L42.057 41.6198C42.1623 41.1268 41.8463 40.6389 41.3531 40.5336L36.8159 39.5642C36.3226 39.4589 35.8357 39.7748 35.7304 40.2678Z" fill="white"/>
<path fill-rule="evenodd" clip-rule="evenodd" d="M38.3716 46.5117C38.4551 46.409 38.6054 46.3936 38.7082 46.4745C38.7493 46.5079 38.7763 46.5528 38.7891 46.599L38.3716 46.5117ZM39.5624 46.6632C39.4854 46.6029 39.4738 46.4899 39.5342 46.4141C39.5958 46.3371 39.7063 46.3255 39.7834 46.3859C39.8605 46.4475 39.872 46.5592 39.8116 46.635C39.7513 46.712 39.6382 46.7248 39.5624 46.6632ZM36.1172 45.6926C36.0401 45.6309 36.0285 45.5205 36.0889 45.4435C36.1493 45.3664 36.261 45.3536 36.3381 45.4152C36.4152 45.4768 36.4268 45.5886 36.3664 45.6643C36.306 45.7413 36.1942 45.7542 36.1172 45.6926ZM40.4578 45.9493C40.3178 45.8389 40.2972 45.6361 40.4064 45.4961C40.5169 45.3574 40.7211 45.3356 40.8599 45.4448C40.9986 45.5565 41.0217 45.7593 40.91 45.898C40.7995 46.0367 40.5965 46.0598 40.4578 45.9493ZM38.6928 45.5141C38.6157 45.4525 38.6028 45.3408 38.6645 45.265C38.7249 45.188 38.8366 45.1764 38.9137 45.2368C38.9908 45.2984 39.0036 45.4088 38.942 45.4858C38.8816 45.5616 38.7698 45.5744 38.6928 45.5141ZM36.7646 44.5588C36.7158 44.3881 36.8173 44.2096 36.9881 44.1621C37.159 44.1146 37.3362 44.2147 37.3838 44.3855C37.4313 44.5563 37.3311 44.7347 37.1615 44.7822C36.9894 44.8297 36.8108 44.7296 36.7646 44.5588ZM35.525 43.8064C35.4492 43.7448 35.4363 43.6331 35.498 43.5573C35.5584 43.4816 35.6701 43.4688 35.7472 43.5291C35.8243 43.5907 35.8358 43.7024 35.7742 43.7782C35.7125 43.8565 35.6008 43.8681 35.525 43.8064ZM37.651 44.0157C37.615 43.8899 37.6895 43.7589 37.8167 43.7217C37.9426 43.6857 38.0736 43.7602 38.1096 43.886C38.1455 44.0119 38.071 44.1428 37.9451 44.1801C37.8167 44.216 37.6856 44.1415 37.651 44.0157ZM41.3442 44.8272C41.2671 44.7668 41.2542 44.6551 41.3172 44.5781C41.348 44.5383 41.393 44.5152 41.4392 44.5113L41.3686 44.8426C41.3596 44.84 41.3519 44.8336 41.3442 44.8272ZM39.9863 44.4253C39.8823 44.3431 39.8656 44.1903 39.9478 44.0876C40.03 43.9849 40.1816 43.9669 40.2844 44.0504C40.3884 44.1338 40.4051 44.2841 40.3229 44.3868C40.2407 44.4908 40.0891 44.5075 39.9863 44.4253ZM41.366 43.8218C41.2889 43.7615 41.2761 43.6498 41.3377 43.5728C41.3981 43.497 41.5111 43.4842 41.5869 43.5445C41.6062 43.5599 41.6229 43.5792 41.6332 43.601L41.5844 43.8244C41.5227 43.8732 41.4315 43.8745 41.366 43.8218ZM37.9606 42.8062C37.8205 42.6958 37.7987 42.493 37.9104 42.3543C38.0209 42.2156 38.2239 42.1925 38.3626 42.3029C38.5026 42.4134 38.5245 42.6162 38.414 42.7562C38.3035 42.8948 38.0993 42.9167 37.9606 42.8062ZM36.491 42.2387C36.4139 42.1784 36.4023 42.0654 36.4627 41.9896C36.5244 41.9139 36.6361 41.9011 36.7119 41.9627C36.7877 42.0243 36.8006 42.1347 36.7389 42.2118C36.6798 42.2875 36.5681 42.2991 36.491 42.2387ZM40.7186 42.6522C40.6428 42.5918 40.6299 42.4801 40.6916 42.4031C40.752 42.326 40.8637 42.3145 40.9408 42.3748C41.0166 42.4365 41.0294 42.5482 40.969 42.6239C40.9074 42.7022 40.7956 42.7138 40.7186 42.6522ZM39.5175 42.3453C39.4417 42.2837 39.4288 42.172 39.4905 42.0962C39.5509 42.0205 39.6626 42.0076 39.7397 42.068C39.8168 42.1283 39.8296 42.2413 39.768 42.3171C39.7063 42.3941 39.5945 42.4056 39.5175 42.3453ZM35.7074 40.8919C35.6303 40.8315 35.6175 40.7185 35.6791 40.6415C35.7395 40.5657 35.8513 40.5529 35.9283 40.6145C36.0041 40.6749 36.017 40.7866 35.9553 40.8636C35.8949 40.9407 35.7832 40.9522 35.7074 40.8919ZM37.7242 41.0421C37.5855 40.9317 37.5636 40.7275 37.6741 40.5889C37.7846 40.4502 37.9875 40.4284 38.1275 40.5388C38.2663 40.6492 38.2894 40.8521 38.1776 40.992C38.0659 41.1294 37.8629 41.1525 37.7242 41.0421ZM39.2233 40.5786C39.1475 40.5182 39.1347 40.4065 39.1963 40.3295C39.2567 40.2537 39.3685 40.2409 39.4455 40.3013C39.5226 40.3629 39.5355 40.4746 39.4738 40.5516C39.4121 40.6287 39.3004 40.6415 39.2233 40.5786Z" fill="#DFDFDF"/>
<path fill-rule="evenodd" clip-rule="evenodd" d="M33.6301 40.2098L33.8678 39.772C34.2082 40.966 36.8313 43.2618 38.3651 43.602L37.9784 43.9615C35.5917 43.5352 33.8858 42.0009 33.6301 40.2098Z" fill="#83518D"/>
<path fill-rule="evenodd" clip-rule="evenodd" d="M33.8601 39.7784C35.2243 39.6089 35.2243 39.6089 35.2243 39.6089C35.5648 40.9737 36.8442 41.9958 38.5488 42.2513C38.378 43.6161 38.378 43.6161 38.378 43.6161C35.9912 43.2746 34.1157 41.739 33.8601 39.7784Z" fill="#C7AECC"/>
<path fill-rule="evenodd" clip-rule="evenodd" d="M41.5495 36.5253C43.5046 36.8373 44.838 38.6772 44.5259 40.6314C44.2137 42.5855 42.3742 43.9196 40.4191 43.6076C38.4652 43.2956 37.1318 41.4557 37.4427 39.5015C37.7561 37.546 39.5956 36.2133 41.5495 36.5253Z" fill="#F0331B"/>
<path fill-rule="evenodd" clip-rule="evenodd" d="M39.9925 37.6476C40.5872 37.7426 40.9932 38.3024 40.8981 38.8981C40.803 39.4926 40.243 39.8996 39.6482 39.8046C39.0534 39.7096 38.6475 39.1498 38.7426 38.5553C38.8363 37.9583 39.3964 37.5526 39.9925 37.6476Z" fill="#FB5039"/>
<path fill-rule="evenodd" clip-rule="evenodd" d="M24.9898 39.0082L24.056 40.4064C23.9545 40.5579 23.9956 40.7646 24.1472 40.866L25.7002 41.9035C25.8518 42.0049 26.0573 41.9638 26.1588 41.8123L27.0914 40.4141C27.1929 40.2626 27.1518 40.0559 27.0002 39.9544L25.4472 38.917C25.2969 38.8156 25.0913 38.8567 24.9898 39.0082Z" fill="#FBCD00"/>
<path fill-rule="evenodd" clip-rule="evenodd" d="M45.3453 52.644C43.1229 54.0153 40.2057 53.3232 38.835 51.102C37.7521 49.3456 37.9576 47.1551 39.187 45.6362L46.8161 51.215C46.4487 51.7774 45.9542 52.2678 45.3453 52.644Z" fill="#78BA03"/>
<path fill-rule="evenodd" clip-rule="evenodd" d="M44.9663 52.0316C43.0818 53.1948 40.609 52.6081 39.4464 50.7245C38.5228 49.2223 38.7052 47.349 39.7689 46.0625L46.2329 50.7887C45.9207 51.2779 45.493 51.7042 44.9663 52.0316Z" fill="#CFE99B"/>
<path fill-rule="evenodd" clip-rule="evenodd" d="M39.5312 49.7101C39.5106 49.6125 39.5415 49.4649 39.6969 49.4443L42.3213 48.8935C42.5217 48.8434 42.5217 48.9051 42.4125 49.0232L40.6102 51.0929C40.555 51.152 40.4458 51.1661 40.3533 51.0737C39.9692 50.7347 39.6905 50.2905 39.5312 49.7101ZM41.187 51.5141L42.6116 49.1683C42.6913 49.0296 42.7504 49.0104 42.7645 49.2158L43.0355 51.8838C43.0625 52.0392 42.9315 52.1124 42.8326 52.1227C42.2327 52.1458 41.724 52.0161 41.2847 51.7516C41.1678 51.6925 41.1485 51.586 41.187 51.5141ZM39.3783 48.6586C39.318 48.1501 39.4079 47.6301 39.6751 47.0947C39.7252 47.0074 39.8472 46.9188 39.9782 47.0061L42.2995 48.3466C42.4832 48.4441 42.4421 48.4891 42.2802 48.5058L39.5582 48.8434C39.476 48.8499 39.3848 48.7882 39.3783 48.6586ZM43.6483 51.8363L43.1447 49.14C43.1126 48.9808 43.1422 48.9295 43.2912 49.0733L45.2733 50.8785C45.3966 50.9774 45.3491 51.1199 45.281 51.1944C44.8519 51.6116 44.3844 51.8556 43.8808 51.9519C43.7549 51.984 43.6688 51.9147 43.6483 51.8363Z" fill="#B7DF69"/>
<path fill-rule="evenodd" clip-rule="evenodd" d="M41.3489 55.1236C38.8247 55.7925 36.2337 54.2852 35.5644 51.7622C35.0365 49.7669 35.8663 47.7306 37.4849 46.6328L43.1705 54.1824C42.6566 54.6126 42.0413 54.9387 41.3489 55.1236Z" fill="#81CB00"/>
<path fill-rule="evenodd" clip-rule="evenodd" d="M41.1651 54.4278C39.0237 54.9953 36.8271 53.7178 36.2606 51.5788C35.811 49.8737 36.5278 48.1339 37.919 47.2095L42.7374 53.6061C42.2956 53.9836 41.7637 54.2673 41.1651 54.4278Z" fill="#D8F0AB"/>
<path fill-rule="evenodd" clip-rule="evenodd" d="M36.6345 50.631C36.6422 50.5321 36.7154 50.3999 36.8695 50.4243L39.5428 50.6566C39.7483 50.6682 39.7303 50.726 39.5916 50.8082L37.2665 52.2667C37.1958 52.3078 37.0879 52.2886 37.0263 52.1743C36.7565 51.739 36.6191 51.2319 36.6345 50.631ZM37.6968 52.8381L39.7406 51.0046C39.8575 50.8942 39.9192 50.8929 39.8716 51.0945L39.3578 53.7266C39.3385 53.8832 39.1921 53.9153 39.0945 53.8973C38.5138 53.7458 38.0642 53.4749 37.7199 53.0936C37.6262 53.0024 37.639 52.8946 37.6968 52.8381ZM36.7925 49.5807C36.8824 49.0761 37.1188 48.6049 37.5298 48.1696C37.603 48.1003 37.7456 48.0515 37.8458 48.1722L39.6789 50.1289C39.8254 50.2753 39.774 50.3061 39.6147 50.2753L36.9107 49.8105C36.831 49.7925 36.7616 49.7065 36.7925 49.5807ZM39.959 53.8588L40.2583 51.1317C40.2737 50.9699 40.3174 50.9288 40.4176 51.1112L41.7921 53.412C41.882 53.543 41.7947 53.6649 41.7073 53.7163C41.1755 53.9911 40.6578 54.0887 40.1491 54.036C40.0181 54.0322 39.9564 53.9397 39.959 53.8588Z" fill="#C4E87E"/>
<path fill-rule="evenodd" clip-rule="evenodd" d="M36.6641 56.7142C34.059 56.5281 32.0987 54.2606 32.285 51.6568C32.434 49.5973 33.8804 47.941 35.7675 47.4287L38.6937 56.4151C38.0669 56.6577 37.3796 56.7656 36.6641 56.7142Z" fill="#8DDD00"/>
<path fill-rule="evenodd" clip-rule="evenodd" d="M36.7155 55.9966C34.5073 55.8387 32.8425 53.9166 33.0018 51.7082C33.1315 49.9505 34.3724 48.5369 35.9897 48.1157L38.4702 55.7296C37.9294 55.944 37.3334 56.039 36.7155 55.9966Z" fill="#E5FBBA"/>
<path fill-rule="evenodd" clip-rule="evenodd" d="M33.6633 50.935C33.7031 50.8438 33.8149 50.7424 33.9536 50.8169L36.4059 51.9044C36.5973 51.9814 36.5613 52.0315 36.4046 52.0636L33.7314 52.6876C33.6518 52.703 33.5554 52.6504 33.5349 52.522C33.4192 52.0212 33.4539 51.4987 33.6633 50.935ZM33.9523 53.3668L36.4804 52.2973C36.6256 52.2318 36.6847 52.2498 36.5755 52.4244L35.2344 54.7483C35.1663 54.8896 35.016 54.8742 34.9299 54.8241C34.4289 54.4928 34.0924 54.0897 33.892 53.6172C33.8329 53.5016 33.8791 53.4015 33.9523 53.3668ZM34.1553 49.9926C34.4045 49.5445 34.7809 49.176 35.3102 48.8974C35.4026 48.8563 35.5529 48.855 35.6082 49.0027L36.7065 51.4486C36.7977 51.6348 36.7386 51.6463 36.5973 51.5667L34.1913 50.2494C34.1219 50.2057 34.0847 50.1004 34.1553 49.9926ZM35.761 55.068L36.93 52.5849C36.9968 52.4372 37.0508 52.4128 37.088 52.617L37.6404 55.2388C37.6828 55.3916 37.5608 55.4789 37.4618 55.4994C36.8696 55.588 36.3481 55.5123 35.8831 55.2966C35.761 55.2504 35.7315 55.1425 35.761 55.068Z" fill="#CAEC89"/>
</svg>
