<svg width="65" height="65" viewBox="0 0 65 65" fill="none" xmlns="http://www.w3.org/2000/svg">
<path fill-rule="evenodd" clip-rule="evenodd" d="M10.4987 8.57311C23.7068 -3.57177 44.282 -2.70896 56.4278 10.499C68.5722 23.707 67.709 44.2823 54.5022 56.4272C41.2941 68.5721 20.7189 67.7093 8.57314 54.5013C-3.57133 41.2933 -2.70937 20.718 10.4987 8.57311Z" fill="white"/>
<path fill-rule="evenodd" clip-rule="evenodd" d="M15.0599 48.5377C6.20782 38.9106 6.83726 23.9141 16.4627 15.0612C26.0893 6.2084 41.0869 6.83754 49.9389 16.4646C58.791 26.0904 58.1629 41.0882 48.5362 49.941C38.9095 58.7926 23.912 58.1635 15.0599 48.5377ZM47.5342 48.851C56.5597 40.5515 57.1506 26.491 48.8496 17.4661C40.5512 8.43991 26.4901 7.85058 17.4646 16.1513C8.43914 24.4495 7.84952 38.5113 16.1492 47.5362C24.4476 56.5624 38.5087 57.1517 47.5342 48.851Z" fill="#D6DCDF"/>
<path fill-rule="evenodd" clip-rule="evenodd" d="M17.4314 49.3554C16.1443 48.0497 17.7885 46.5256 17.2619 45.5216C16.3215 43.7279 13.5122 44.6177 12.9418 43.4904C12.1749 41.9727 15.0537 40.8583 14.008 39.2097C13.4299 38.2981 12.3214 38.6704 12.0118 37.9463C11.7754 37.3942 12.3663 36.5827 12.3663 36.1783C12.3663 35.4759 9.50682 36.6186 9.28588 34.7916C9.07135 33.0159 12.9174 34.0931 12.8108 32.4497C12.744 31.4212 11.1395 31.4905 11.146 30.6804C11.1524 29.7354 13.2244 29.8766 13.1216 28.6453C13.042 27.6965 10.2378 26.1968 10.7567 24.7768C11.2641 23.3888 14.3394 24.7126 14.9637 23.3785C15.4185 22.4066 13.9977 21.8712 14.6464 21.0418C15.1359 20.4152 16.0017 21.3332 16.5631 20.6501C17.303 19.7488 16.3126 18.9412 17.2516 18.1118C17.6511 17.6919 18.6158 17.9834 19.3545 18.4019C19.894 18.8064 19.9364 19.2121 19.5433 19.6166C12.839 26.4921 12.6091 37.502 19.1862 44.6549C19.8259 45.3508 20.508 45.9864 21.2248 46.5603C22.3321 47.6183 22.2538 48.0882 21.7502 48.6737C20.8009 49.7804 18.7173 50.6612 17.4314 49.3554Z" fill="#38B20A"/>
<path fill-rule="evenodd" clip-rule="evenodd" d="M28.3519 56.4864C27.6929 56.5879 27.8188 55.5427 27.5888 55.3116C27.4475 55.1691 27.2446 55.3604 27.0891 55.1152C26.8027 54.6632 27.2394 53.9763 27.1803 53.5115C27.1636 53.378 26.9619 53.143 26.7924 53.396C26.6626 53.5898 26.4211 53.9956 26.2092 53.8659C25.7275 53.5693 26.2105 53.0198 26.3942 52.4869C26.4969 52.1929 26.3004 51.9438 26.1475 52.1043C26.0345 52.2237 25.8289 52.4381 25.7005 52.3303C25.1661 51.8758 26.1771 51.1465 26.3338 50.3248C26.4083 49.9344 26.2503 49.6789 26.0024 49.7097C25.7634 49.738 25.2958 50.2683 25.0993 50.0205C24.6163 49.4106 25.59 48.7558 25.8983 48.2961C26.1899 47.8608 26.0743 47.7068 25.9677 47.4436C25.8444 47.1367 25.2509 47.1174 25.2239 46.7887C25.1661 46.08 26.2734 45.8296 26.6087 45.1646C27.6531 48.8662 28.357 52.6217 28.3519 56.4864Z" fill="#3A800F"/>
<path fill-rule="evenodd" clip-rule="evenodd" d="M28.4134 46.2974C28.4854 46.6196 27.9266 46.8174 27.9009 47.146C27.8791 47.4311 27.8148 47.6121 28.2233 47.9395C28.6549 48.2849 29.7815 48.6162 29.5028 49.3442C29.3897 49.6395 28.7847 49.2761 28.5483 49.3198C28.3017 49.3647 28.2297 49.6562 28.4173 50.0054C28.8142 50.7411 29.9986 51.134 29.6248 51.7272C29.5362 51.8684 29.2741 51.7259 29.1302 51.6463C28.9375 51.5384 28.8245 51.835 29.0108 52.0854C29.346 52.5374 29.9716 52.9174 29.6017 53.3424C29.4398 53.5299 29.0866 53.2166 28.9041 53.0702C28.6665 52.8802 28.5445 53.1652 28.5676 53.2975C28.6524 53.7584 29.2754 54.2822 29.1379 54.7997C29.0634 55.0809 28.8117 54.9589 28.7205 55.1386C28.5714 55.4275 29.0056 56.3866 28.3466 56.4881L26.6022 45.1675C27.1224 45.699 28.2554 45.604 28.4134 46.2974Z" fill="#4CA914"/>
<path fill-rule="evenodd" clip-rule="evenodd" d="M26.2515 42.8702C26.3362 42.8561 26.4172 42.9164 26.43 42.9999L28.0948 53.8082C28.1077 53.8929 28.0499 53.9738 27.9638 53.9867C27.879 53.9995 27.7994 53.9405 27.7865 53.8557L26.1217 43.0487C26.1076 42.9639 26.1667 42.8831 26.2515 42.8702Z" fill="#2E650C"/>
<path fill-rule="evenodd" clip-rule="evenodd" d="M32.0001 56.4225C31.3784 56.6626 31.2769 55.6149 31.0033 55.439C30.8337 55.3299 30.677 55.561 30.4727 55.3543C30.0951 54.9742 30.3738 54.2103 30.2184 53.7686C30.1721 53.6415 29.9255 53.4566 29.8137 53.7391C29.729 53.9561 29.5787 54.4042 29.3436 54.322C28.8118 54.1371 29.1637 53.4951 29.2293 52.9366C29.2652 52.6272 29.0211 52.4256 28.9068 52.6156C28.822 52.7556 28.6666 53.0111 28.5189 52.9327C27.8997 52.6041 28.7308 51.6745 28.7077 50.8386C28.6961 50.4406 28.4893 50.2262 28.253 50.3084C28.0269 50.388 27.6826 51.0055 27.4373 50.8065C26.8335 50.3135 27.6454 49.4661 27.8483 48.9499C28.0384 48.4633 27.8933 48.3375 27.7327 48.1012C27.5464 47.829 26.9632 47.9369 26.8656 47.621C26.6562 46.9418 27.6852 46.4591 27.8702 45.7388C29.684 49.131 31.178 52.6477 32.0001 56.4225Z" fill="#429111"/>
<path fill-rule="evenodd" clip-rule="evenodd" d="M29.8754 46.4577C30.0154 46.7568 29.5118 47.0688 29.5568 47.3962C29.5953 47.6787 29.5735 47.87 30.0424 48.1024C30.5382 48.3476 31.7097 48.4298 31.5941 49.1989C31.5466 49.5122 30.8761 49.2862 30.6551 49.3799C30.4252 49.4762 30.4162 49.7767 30.6744 50.0784C31.2203 50.7114 32.4599 50.8411 32.2236 51.501C32.1671 51.6589 31.8806 51.5742 31.7226 51.528C31.5106 51.4638 31.4644 51.7783 31.6995 51.9825C32.1247 52.3523 32.8183 52.5898 32.5473 53.0841C32.4291 53.3024 32.0168 53.0713 31.8074 52.9686C31.5338 52.8338 31.476 53.1368 31.5273 53.2626C31.7085 53.6953 32.4291 54.0728 32.406 54.6069C32.3931 54.8971 32.1221 54.8329 32.0707 55.0267C31.9872 55.3413 32.6167 56.1836 31.9949 56.425L27.865 45.7412C28.488 46.1495 29.5735 45.8131 29.8754 46.4577Z" fill="#54B11B"/>
<path fill-rule="evenodd" clip-rule="evenodd" d="M27.2318 43.6627L31.1742 53.8624C31.205 53.9433 31.1652 54.0332 31.0855 54.0653C31.0059 54.0961 30.9147 54.0563 30.8839 53.9754L26.9415 43.777C26.9106 43.6961 26.9505 43.6062 27.0301 43.5741C27.111 43.542 27.2022 43.5818 27.2318 43.6627Z" fill="#326F0D"/>
<path fill-rule="evenodd" clip-rule="evenodd" d="M21.8685 55.0372C21.2172 54.8934 21.7118 53.9638 21.5808 53.6659C21.4998 53.4823 21.2416 53.5876 21.1851 53.3026C21.0811 52.7774 21.7349 52.2946 21.848 51.8401C21.8814 51.7092 21.776 51.4177 21.5281 51.591C21.338 51.7259 20.9654 52.016 20.8151 51.8196C20.4722 51.3702 21.1209 51.0312 21.4844 50.6011C21.6861 50.3636 21.5923 50.0606 21.3932 50.1556C21.2442 50.2262 20.9757 50.352 20.8948 50.2057C20.5595 49.5894 21.7657 49.2735 22.2089 48.5635C22.4196 48.2258 22.3644 47.9318 22.1216 47.8701C21.8891 47.8111 21.2609 48.1372 21.1658 47.8342C20.9346 47.0908 22.0792 46.8314 22.5326 46.5143C22.9604 46.2139 22.909 46.0277 22.9052 45.7439C22.9 45.414 22.3541 45.1816 22.4466 44.8644C22.6483 44.1814 23.771 44.3483 24.3246 43.8501C23.9637 47.6776 23.2674 51.4344 21.8685 55.0372Z" fill="#3A800F"/>
<path fill-rule="evenodd" clip-rule="evenodd" d="M25.5991 45.555C25.5516 45.8811 24.9581 45.8644 24.8155 46.161C24.6922 46.4178 24.5676 46.5642 24.8309 47.0161C25.1097 47.495 26.0397 48.2102 25.5194 48.788C25.3075 49.023 24.8733 48.4644 24.6369 48.4208C24.3903 48.3746 24.2182 48.6185 24.2683 49.014C24.3736 49.8421 25.3358 50.6369 24.7744 51.0554C24.6395 51.1556 24.4481 50.927 24.3428 50.8012C24.2015 50.6317 23.9895 50.868 24.073 51.1684C24.2233 51.7103 24.6691 52.2919 24.1706 52.5551C23.951 52.6719 23.7352 52.2508 23.6183 52.0505C23.4641 51.7873 23.2483 52.0094 23.2239 52.1417C23.1365 52.6013 23.5283 53.3152 23.2136 53.7479C23.0428 53.9828 22.8526 53.78 22.7011 53.9135C22.4583 54.1292 22.5174 55.1795 21.8661 55.037L24.3209 43.8486C24.6112 44.5304 25.7019 44.8501 25.5991 45.555Z" fill="#4CA914"/>
<path fill-rule="evenodd" clip-rule="evenodd" d="M24.8193 41.5787C24.9041 41.5967 24.9567 41.6814 24.9387 41.7649L22.5944 52.4461C22.5764 52.5295 22.4929 52.5834 22.4081 52.5655C22.3246 52.5462 22.2707 52.4628 22.2899 52.3793L24.6343 41.6981C24.651 41.6134 24.7345 41.5607 24.8193 41.5787Z" fill="#2E650C"/>
<path fill-rule="evenodd" clip-rule="evenodd" d="M25.2933 56.2914C24.6267 56.2914 24.9093 55.277 24.7179 55.0138C24.5984 54.852 24.3685 55.01 24.2528 54.7442C24.0383 54.2537 24.574 53.6413 24.5868 53.1726C24.5907 53.0378 24.4263 52.7759 24.2194 52.9993C24.0614 53.1713 23.7608 53.5347 23.572 53.3742C23.1417 53.0096 23.703 52.5384 23.9651 52.0402C24.1102 51.7641 23.9548 51.4881 23.7801 51.6242C23.6504 51.7243 23.4127 51.9054 23.3035 51.7795C22.8449 51.2493 23.9548 50.6818 24.2349 49.8947C24.3685 49.5185 24.2528 49.2437 24.0023 49.236C23.7621 49.2283 23.2187 49.6803 23.062 49.4055C22.6767 48.7289 23.739 48.2307 24.1141 47.8224C24.4674 47.4372 24.3774 47.2677 24.3119 46.9904C24.2361 46.6694 23.6529 46.559 23.6761 46.2303C23.7249 45.5203 24.8592 45.442 25.2921 44.8359C25.7635 48.6557 25.8881 52.4742 25.2933 56.2914Z" fill="#429111"/>
<path fill-rule="evenodd" clip-rule="evenodd" d="M26.9052 46.2316C26.9284 46.5603 26.3452 46.6708 26.2707 46.9917C26.2051 47.2691 26.1139 47.4386 26.4685 47.825C26.8436 48.232 27.9059 48.7302 27.5206 49.4081C27.3638 49.6829 26.8205 49.231 26.5802 49.2387C26.331 49.2464 26.2141 49.5211 26.3477 49.8973C26.6278 50.6844 27.7377 51.2532 27.2791 51.7822C27.1699 51.9093 26.9322 51.7269 26.8038 51.6268C26.6291 51.4907 26.4736 51.7668 26.6188 52.0428C26.8821 52.5397 27.4422 53.0122 27.0132 53.3768C26.823 53.5373 26.5212 53.1727 26.3644 53.0019C26.1576 52.7785 25.9932 53.0404 25.997 53.1752C26.0112 53.6439 26.5469 54.2563 26.3323 54.7468C26.2154 55.0139 25.9868 54.8547 25.8686 55.0177C25.6772 55.2796 25.9598 56.294 25.2931 56.294V44.8398C25.7221 45.4433 26.8552 45.5216 26.9052 46.2316Z" fill="#54B11B"/>
<path fill-rule="evenodd" clip-rule="evenodd" d="M25.4473 42.6713V53.6054C25.4473 53.6914 25.3779 53.7621 25.2919 53.7621C25.2058 53.7621 25.1351 53.6914 25.1351 53.6054V42.6713C25.1351 42.5853 25.2045 42.5146 25.2919 42.5146C25.3779 42.5146 25.4473 42.5853 25.4473 42.6713Z" fill="#326F0D"/>
<path fill-rule="evenodd" clip-rule="evenodd" d="M33.4503 47.1535C33.5736 47.7506 33.0199 48.3155 32.8786 48.9036C32.7245 49.5404 32.9056 50.3827 32.4611 50.886C31.8317 51.5986 30.5227 51.1364 30.0757 50.0206C29.6299 48.9061 30.0307 47.4001 30.9697 46.6566C31.9088 45.9158 33.2409 46.1302 33.4503 47.1535Z" fill="#850317"/>
<path fill-rule="evenodd" clip-rule="evenodd" d="M32.7388 48.5093C32.8416 48.4489 32.9508 48.4348 33.0484 48.4605C32.9777 48.6068 32.9148 48.7558 32.8788 48.9047C32.8339 49.0883 32.8172 49.2873 32.8056 49.4928C32.6733 49.4658 32.5564 49.3708 32.4999 49.2193C32.401 48.9625 32.5089 48.6441 32.7388 48.5093Z" fill="#F1A84A"/>
<path fill-rule="evenodd" clip-rule="evenodd" d="M31.9163 39.6155C32.1013 39.975 31.5001 40.3795 31.5708 40.7762C31.6311 41.119 31.6119 41.3527 32.1963 41.6159C32.8129 41.8919 34.2465 41.9369 34.1425 42.8832C34.0988 43.2671 33.2715 43.0231 33.0043 43.1476C32.7282 43.2773 32.7294 43.642 33.0622 44.0002C33.7571 44.7475 35.2781 44.8489 35.0199 45.6655C34.9582 45.8606 34.6049 45.7708 34.4097 45.7207C34.1476 45.6526 34.1065 46.0378 34.4033 46.2779C34.9389 46.7093 35.797 46.9661 35.49 47.5837C35.3551 47.8546 34.84 47.5927 34.5818 47.4759C34.2414 47.3243 34.1849 47.698 34.253 47.8482C34.4945 48.3682 35.3924 48.7958 35.3898 49.4493C35.3873 49.8062 35.0533 49.7382 34.998 49.9796C34.9107 50.3647 35.7148 51.3624 34.9749 51.6872L34.9698 51.6898C34.2273 52.0043 34.0526 50.7345 33.7122 50.5329C33.5002 50.4084 33.3191 50.6973 33.0596 50.4546C32.5817 50.0078 32.8875 49.0615 32.6755 48.53C32.6138 48.3759 32.303 48.1602 32.1796 48.512C32.0859 48.7816 31.9253 49.335 31.6337 49.2464C30.976 49.0461 31.3768 48.2462 31.432 47.5593C31.4616 47.1805 31.1533 46.9469 31.0235 47.1831C30.9259 47.359 30.7473 47.6774 30.5649 47.5876C29.7929 47.2139 30.764 46.0404 30.6972 45.0209C30.6651 44.5356 30.4018 44.2814 30.1179 44.3944C29.8443 44.5009 29.4525 45.2713 29.1442 45.0389C28.385 44.465 29.3356 43.3916 29.5591 42.7522C29.7698 42.1487 29.5861 42.0024 29.378 41.7225C29.1377 41.3989 28.4299 41.5568 28.2976 41.1768C28.0587 40.4937 28.8731 39.9378 29.2636 39.2586L29.8623 39.0005C30.6202 39.1828 31.5836 38.9722 31.9163 39.6155Z" fill="#3A9C00"/>
<path fill-rule="evenodd" clip-rule="evenodd" d="M15.7666 26.9851C17.5291 27.2702 18.7276 28.9329 18.4424 30.6957C18.1572 32.4573 16.495 33.6565 14.7325 33.3715C12.9701 33.0865 11.7716 31.4237 12.0567 29.6609C12.3419 27.898 14.0042 26.6988 15.7666 26.9851Z" fill="#F0331B"/>
<path fill-rule="evenodd" clip-rule="evenodd" d="M14.3589 27.9929C14.8958 28.0802 15.2607 28.586 15.1733 29.1227C15.0859 29.6594 14.5811 30.0241 14.0441 29.9368C13.5072 29.8495 13.1424 29.3436 13.2297 28.8069C13.3158 28.2715 13.8219 27.9056 14.3589 27.9929Z" fill="#FB5039"/>
<path fill-rule="evenodd" clip-rule="evenodd" d="M12.4085 36.4929C12.6873 35.9498 13.4709 35.8574 13.9513 35.4876C14.4703 35.0883 14.857 34.3179 15.5185 34.2037C16.4563 34.0432 17.1872 35.2257 16.8339 36.3722C16.4832 37.5214 15.2269 38.4432 14.0297 38.4343C12.8337 38.4227 11.932 37.4212 12.4085 36.4929Z" fill="#850317"/>
<path fill-rule="evenodd" clip-rule="evenodd" d="M12.5897 36.8178C12.6745 36.5507 12.9186 36.4005 13.1344 36.4814C13.3515 36.561 13.4581 36.8434 13.3733 37.1118C13.2898 37.3788 13.0458 37.5291 12.8287 37.4482C12.6129 37.3673 12.505 37.0848 12.5897 36.8178Z" fill="#91081D"/>
<path fill-rule="evenodd" clip-rule="evenodd" d="M13.8126 35.882C13.6944 35.8653 13.5994 35.8075 13.5403 35.7279C13.688 35.6573 13.8293 35.5816 13.9513 35.4878C14.1004 35.3723 14.2391 35.2272 14.3765 35.0757C14.4626 35.1797 14.4934 35.3273 14.4446 35.4814C14.3598 35.742 14.076 35.9218 13.8126 35.882Z" fill="#F1A84A"/>
<path fill-rule="evenodd" clip-rule="evenodd" d="M13.2552 32.6307C14.6683 30.8075 17.294 30.4737 19.1181 31.8847C20.4322 32.9016 20.973 34.5489 20.6454 36.0704L12.4948 34.2177C12.6283 33.6579 12.8801 33.116 13.2552 32.6307Z" fill="#46A605"/>
<path fill-rule="evenodd" clip-rule="evenodd" d="M13.8203 33.0698C14.9918 31.5586 17.1692 31.2812 18.6799 32.4509C19.7666 33.2919 20.215 34.6529 19.9465 35.9125L13.1921 34.3756C13.3026 33.9146 13.5107 33.4691 13.8203 33.0698Z" fill="#9CF088"/>
<path fill-rule="evenodd" clip-rule="evenodd" d="M15.3234 33.1892C15.6381 33.4203 15.8462 33.8183 15.7871 34.079C15.728 34.3383 15.4249 34.364 15.1089 34.1329C14.7942 33.9031 14.5873 33.5038 14.6464 33.2444C14.7042 32.9838 15.0074 32.9581 15.3234 33.1892ZM14.8109 34.5271C15.1012 34.5207 15.4043 34.6619 15.4878 34.8429C15.4968 34.8635 15.5032 34.884 15.5071 34.9033L14.4537 34.6632C14.5128 34.5836 14.6413 34.5297 14.8109 34.5271ZM16.0954 33.1545C16.2432 33.0223 16.4397 33.1379 16.5309 33.4139C16.6221 33.69 16.5759 34.0225 16.4281 34.1547C16.2804 34.287 16.0839 34.1714 15.994 33.8954C15.9015 33.6193 15.9477 33.2868 16.0954 33.1545ZM17.091 33.4832C17.2169 33.1135 17.5355 32.7963 17.8014 32.7745C18.0673 32.754 18.1816 33.0351 18.0544 33.4062C17.9285 33.776 17.61 34.0918 17.3441 34.1137C17.0794 34.1355 16.9651 33.8517 17.091 33.4832ZM17.4751 34.3486C17.7025 34.1676 18.03 34.0982 18.2047 34.1907C18.3807 34.2844 18.3383 34.5078 18.1122 34.6889C17.8849 34.8699 17.556 34.9405 17.3813 34.8468C17.2053 34.7518 17.2477 34.5297 17.4751 34.3486ZM18.3011 35.1781C18.6916 35.1691 19.0988 35.3591 19.2106 35.6005C19.235 35.6531 19.244 35.7045 19.2375 35.752L17.786 35.4207C17.8425 35.2808 18.0326 35.1819 18.3011 35.1781Z" fill="#89E372"/>
<path fill-rule="evenodd" clip-rule="evenodd" d="M15.8861 36.6969C13.4633 37.1682 11.3335 36.1705 10.618 34.4937L10.5576 34.0366L11.8011 34.1162C12.4588 35.2576 14.0093 35.8983 15.7602 35.5144C18.0095 35.2037 19.7026 33.4421 19.5741 31.6536C19.5728 31.6446 19.5703 31.6356 19.5703 31.6279L20.3873 30.8896L20.6044 31.2967C20.6545 31.4674 20.675 31.6369 20.6776 31.8372C20.8317 34.0417 18.734 36.254 15.8861 36.6969Z" fill="#FB6113"/>
<path fill-rule="evenodd" clip-rule="evenodd" d="M15.7846 36.3336C13.3953 36.7881 11.2821 35.7507 10.5576 34.0379L11.7227 33.6643C12.3843 34.8327 13.9219 35.5003 15.6484 35.128C17.8669 34.8352 19.5202 33.0608 19.375 31.2415C19.3737 31.2325 19.3711 31.2248 19.3699 31.2158L20.3885 30.8896C20.4399 31.0643 20.463 31.2376 20.4656 31.4392C20.6416 33.6835 18.5927 35.9125 15.7846 36.3336Z" fill="#FB9528"/>
<path fill-rule="evenodd" clip-rule="evenodd" d="M15.6344 36.4439V38.4649C15.6344 38.6844 15.813 38.8629 16.0326 38.8629H18.2781C18.4977 38.8629 18.6763 38.6844 18.6763 38.4649V36.4439C18.6763 36.2244 18.4977 36.0459 18.2781 36.0459H16.0326C15.813 36.0459 15.6344 36.2244 15.6344 36.4439Z" fill="#FBCD00"/>
<path fill-rule="evenodd" clip-rule="evenodd" d="M16.5362 31.9104L17.7605 33.5179C17.8928 33.6925 18.1433 33.7272 18.318 33.5937L20.1048 32.234C20.2795 32.1004 20.3142 31.8514 20.1806 31.6767L18.9564 30.0692C18.8228 29.8946 18.5736 29.8599 18.3989 29.9935L16.612 31.3532C16.4373 31.4854 16.4026 31.7358 16.5362 31.9104Z" fill="#FBCD00"/>
<path fill-rule="evenodd" clip-rule="evenodd" d="M17.736 33.1689V37.6871C17.736 38.1789 18.1355 38.5782 18.6275 38.5782H23.1453C23.6373 38.5782 24.0368 38.1789 24.0368 37.6871V33.1689C24.0368 32.6771 23.6373 32.2778 23.1453 32.2778H18.6275C18.1355 32.2778 17.736 32.6771 17.736 33.1689Z" fill="white"/>
<path fill-rule="evenodd" clip-rule="evenodd" d="M21.5216 38.5794C21.5807 38.4652 21.7195 38.4189 21.8351 38.4754C21.88 38.4986 21.916 38.5358 21.9379 38.5794H21.5216ZM22.6868 38.4806C22.602 38.4382 22.5673 38.3342 22.6097 38.2495C22.6521 38.1634 22.7561 38.1301 22.8409 38.1724C22.927 38.2161 22.9617 38.3188 22.9193 38.4035C22.8769 38.4896 22.7728 38.5229 22.6868 38.4806ZM19.2094 38.2572C19.1246 38.2148 19.0899 38.1108 19.1323 38.0261C19.1747 37.94 19.2788 37.9066 19.3635 37.949C19.4483 37.9914 19.483 38.0954 19.4419 38.1814C19.3982 38.2662 19.2942 38.3008 19.2094 38.2572ZM23.3946 37.619C23.2391 37.542 23.1775 37.3533 23.2546 37.1979C23.3316 37.0438 23.5205 36.9809 23.6759 37.058C23.8313 37.135 23.893 37.3237 23.8172 37.4778C23.7388 37.6332 23.5487 37.6961 23.3946 37.619ZM21.6257 37.5625C21.5396 37.5202 21.5062 37.4162 21.5486 37.3302C21.591 37.2454 21.6951 37.2107 21.7799 37.2531C21.8646 37.2955 21.8993 37.3995 21.8569 37.4855C21.8145 37.5703 21.7105 37.6049 21.6257 37.5625ZM19.5948 37.0451C19.5138 36.8923 19.5729 36.7023 19.7258 36.6214C19.8787 36.5418 20.0675 36.6009 20.1484 36.7537C20.2281 36.9065 20.169 37.0965 20.0161 37.1761C19.8645 37.257 19.6744 37.1979 19.5948 37.0451ZM18.2614 36.5816C18.1753 36.5392 18.1419 36.4352 18.1843 36.3492C18.2267 36.2645 18.3307 36.2298 18.4168 36.2722C18.5029 36.3145 18.5363 36.4185 18.4939 36.5046C18.4502 36.5893 18.3462 36.624 18.2614 36.5816ZM20.327 36.3479C20.2679 36.2349 20.3116 36.095 20.4246 36.0359C20.5377 35.9756 20.6777 36.0205 20.7368 36.1322C20.7971 36.2452 20.7522 36.3852 20.6404 36.4442C20.5274 36.5046 20.3874 36.4609 20.327 36.3479ZM24.0099 36.3698C23.9238 36.3287 23.8904 36.2234 23.9328 36.1374C23.9547 36.0937 23.9932 36.0642 24.0369 36.0501V36.3813C24.0279 36.3775 24.0189 36.3749 24.0099 36.3698ZM22.6354 36.2632C22.5198 36.2067 22.4735 36.0655 22.5301 35.9499C22.5879 35.8343 22.7292 35.7881 22.8435 35.8446C22.9591 35.9024 23.0053 36.0423 22.9475 36.1579C22.891 36.2735 22.751 36.321 22.6354 36.2632ZM23.8275 35.4081C23.7427 35.3657 23.708 35.2604 23.7504 35.1757C23.7928 35.0897 23.8968 35.0563 23.9829 35.0986C24.0048 35.1102 24.0227 35.1243 24.0382 35.1423V35.3644C23.9868 35.4235 23.8994 35.444 23.8275 35.4081ZM20.3771 35.1333C20.2217 35.0563 20.16 34.8675 20.2371 34.7122C20.3141 34.5581 20.5043 34.4952 20.6584 34.5722C20.8126 34.6493 20.8755 34.8393 20.7984 34.9934C20.7214 35.1474 20.5312 35.2103 20.3771 35.1333ZM18.8626 34.8906C18.7765 34.8483 18.7431 34.7443 18.7842 34.6582C18.8266 34.5735 18.9306 34.5388 19.0167 34.5812C19.1015 34.6236 19.1362 34.7276 19.0938 34.8136C19.0514 34.8984 18.9473 34.933 18.8626 34.8906ZM22.9732 34.4259C22.8884 34.3835 22.8538 34.2795 22.8962 34.1947C22.9385 34.1087 23.0426 34.074 23.1274 34.1164C23.2134 34.1588 23.2481 34.2628 23.2057 34.3475C23.1621 34.4336 23.058 34.4682 22.9732 34.4259ZM21.767 34.3771C21.6809 34.3347 21.6463 34.2307 21.6899 34.1447C21.7323 34.0599 21.8364 34.0253 21.9212 34.0676C22.0072 34.11 22.0406 34.214 21.9995 34.2987C21.9558 34.3848 21.8518 34.4194 21.767 34.3771ZM17.8413 33.7685C17.7565 33.7261 17.7206 33.6221 17.763 33.5361C17.8053 33.4513 17.9094 33.4167 17.9955 33.459C18.0802 33.5014 18.1149 33.6054 18.0725 33.6902C18.0301 33.7762 17.9261 33.8108 17.8413 33.7685ZM19.7939 33.5014C19.6397 33.4244 19.5768 33.2343 19.6539 33.0803C19.7309 32.9262 19.9198 32.8633 20.0752 32.9403C20.2294 33.0186 20.2936 33.2061 20.2152 33.3615C20.1369 33.5155 19.948 33.5772 19.7939 33.5014ZM21.1286 32.7554C21.0425 32.7131 21.0091 32.6091 21.0515 32.5243C21.0939 32.4396 21.1979 32.4049 21.284 32.4473C21.3688 32.4897 21.4035 32.5937 21.3624 32.6797C21.3174 32.7644 21.2133 32.7991 21.1286 32.7554Z" fill="#DFDFDF"/>
<path fill-rule="evenodd" clip-rule="evenodd" d="M40.0323 39.9132C40.3895 39.7476 40.7607 40.3523 41.1512 40.2997C41.4878 40.2547 41.7177 40.283 41.9965 39.7245C42.2906 39.1326 42.3947 37.7356 43.3145 37.8769C43.687 37.9346 43.4159 38.7333 43.5251 38.999C43.6407 39.2738 43.9979 39.2866 44.3614 38.9785C45.1193 38.3301 45.2811 36.8497 46.0673 37.136C46.2561 37.2041 46.1547 37.5456 46.0969 37.7331C46.0198 37.9847 46.3949 38.0425 46.6402 37.7626C47.0834 37.2567 47.3712 36.4298 47.9608 36.7547C48.2203 36.8985 47.9441 37.389 47.8182 37.638C47.6563 37.9629 48.0186 38.0335 48.1676 37.9732C48.684 37.7587 49.1413 36.8998 49.7772 36.9293C50.1253 36.9473 50.0457 37.2708 50.2782 37.3337C50.652 37.4352 51.6578 36.6905 51.9456 37.4275L51.9469 37.4326C52.223 38.1722 50.977 38.2877 50.765 38.6126C50.634 38.8141 50.9089 39.0042 50.6623 39.2468C50.2062 39.6949 49.2942 39.3585 48.7662 39.5434C48.6134 39.5974 48.3911 39.8914 48.729 40.0262C48.9872 40.1289 49.5216 40.31 49.4239 40.5899C49.2004 41.2241 48.4361 40.8004 47.7681 40.7182C47.3994 40.6733 47.1579 40.966 47.384 41.1009C47.551 41.2036 47.8529 41.391 47.7604 41.5669C47.3635 42.3052 46.2587 41.3089 45.2593 41.332C44.784 41.3422 44.5258 41.5888 44.6247 41.8712C44.7172 42.1421 45.4546 42.5569 45.2144 42.8483C44.6222 43.5673 43.6138 42.5928 42.9997 42.3489C42.4191 42.119 42.2675 42.2924 41.9862 42.4837C41.6586 42.7058 41.7858 43.4017 41.4081 43.516C40.7312 43.7214 40.2225 42.9035 39.575 42.494L39.3477 41.8995C39.5558 41.1612 39.39 40.2111 40.0323 39.9132Z" fill="#46BB00"/>
<path fill-rule="evenodd" clip-rule="evenodd" d="M15.4803 24.6558C15.0127 22.8763 16.1547 21.3959 18.0212 21.2688C19.8864 21.1417 21.7927 22.5399 22.3361 24.2796C22.8782 26.0194 21.7362 27.4998 19.871 27.6269C18.0045 27.754 16.0236 26.3956 15.4803 24.6558Z" fill="#1F2921"/>
<path fill-rule="evenodd" clip-rule="evenodd" d="M16.0813 22.8856C16.1866 22.539 16.6375 22.2976 16.9086 22.444C17.2143 22.4735 17.3402 22.8895 17.1603 23.276C16.9792 23.6624 16.6041 23.8627 16.2984 23.8332C16.0261 23.6881 15.9002 23.2721 16.0813 22.8856Z" fill="#323633"/>
<path fill-rule="evenodd" clip-rule="evenodd" d="M18.188 44.217C18.4654 43.6739 19.2503 43.5801 19.7308 43.2116C20.2497 42.8123 20.6377 42.042 21.298 41.929C22.2357 41.7672 22.9666 42.9497 22.6134 44.0976C22.2627 45.2454 21.0064 46.1686 19.8091 46.1596C18.6145 46.1468 17.7114 45.1453 18.188 44.217Z" fill="#850317"/>
<path fill-rule="evenodd" clip-rule="evenodd" d="M18.369 44.5433C18.4538 44.2763 18.6978 44.1248 18.9136 44.2069C19.1294 44.2878 19.2373 44.5703 19.1526 44.8374C19.0691 45.1031 18.825 45.2546 18.6079 45.1737C18.3934 45.0916 18.2855 44.8091 18.369 44.5433Z" fill="#91081D"/>
<path fill-rule="evenodd" clip-rule="evenodd" d="M19.5933 43.6059C19.4751 43.5893 19.3813 43.5315 19.3209 43.4506C19.4686 43.38 19.6112 43.3042 19.732 43.2105C19.8823 43.0949 20.0197 42.9498 20.1572 42.7983C20.2433 42.9023 20.2741 43.05 20.2253 43.2028C20.1405 43.466 19.8566 43.6458 19.5933 43.6059Z" fill="#F1A84A"/>
<path fill-rule="evenodd" clip-rule="evenodd" d="M16.9472 43.037C15.3247 42.1677 15.019 40.3227 16.197 38.8693C17.3749 37.4171 19.6975 36.9729 21.3405 37.76C22.9834 38.547 23.2892 40.392 22.1125 41.8442C20.9345 43.2963 18.5902 43.8228 16.9472 43.037Z" fill="#1F2921"/>
<path fill-rule="evenodd" clip-rule="evenodd" d="M16.0596 41.391C15.8772 41.0777 16.0082 40.5834 16.2998 40.4845C16.5297 40.2804 16.9202 40.4717 17.0795 40.8672C17.2401 41.2626 17.1309 41.6748 16.901 41.8776C16.6094 41.9778 16.2189 41.7852 16.0596 41.391Z" fill="#323633"/>
<path fill-rule="evenodd" clip-rule="evenodd" d="M19.8659 42.377L20.4324 43.9588C20.494 44.1308 20.6829 44.2207 20.855 44.1591L22.6136 43.5299C22.7857 43.4683 22.8756 43.2783 22.814 43.1062L22.2475 41.5244C22.1858 41.3524 21.997 41.2625 21.8248 41.3241L20.0663 41.9533C19.8941 42.0162 19.8055 42.2049 19.8659 42.377Z" fill="#FBCD00"/>
<path fill-rule="evenodd" clip-rule="evenodd" d="M50.2925 34.5808C49.884 34.1288 49.1017 34.2406 48.5429 34.0094C47.9378 33.7578 47.3649 33.1145 46.6969 33.1749C45.7489 33.2622 45.3494 34.5924 45.9866 35.6105C46.6224 36.6287 48.0753 37.1949 49.2288 36.8752C50.3811 36.5555 50.9939 35.3537 50.2925 34.5808Z" fill="#850317"/>
<path fill-rule="evenodd" clip-rule="evenodd" d="M50.2026 34.9427C50.0523 34.7064 49.7761 34.6243 49.5885 34.7578C49.401 34.8926 49.3689 35.1931 49.5205 35.4293C49.6695 35.6655 49.9457 35.7477 50.1332 35.6129C50.322 35.4781 50.3529 35.1777 50.2026 34.9427Z" fill="#91081D"/>
<path fill-rule="evenodd" clip-rule="evenodd" d="M48.7781 34.3548C48.8872 34.3073 48.963 34.2277 49.0003 34.134C48.8397 34.1044 48.683 34.0672 48.5417 34.0081C48.3683 33.9362 48.1961 33.8309 48.024 33.7192C47.9675 33.8412 47.9752 33.9927 48.0625 34.1275C48.2128 34.3586 48.534 34.4601 48.7781 34.3548Z" fill="#F1A84A"/>
<path fill-rule="evenodd" clip-rule="evenodd" d="M46.2614 34.8418L46.7097 34.6235C46.2909 35.7919 47.0848 39.1854 48.133 40.3577L47.6102 40.4244C45.9171 38.6872 45.4264 36.4467 46.2614 34.8418Z" fill="#83518D"/>
<path fill-rule="evenodd" clip-rule="evenodd" d="M46.6994 34.625C47.9082 35.2811 47.9082 35.2811 47.9082 35.2811C47.3905 36.5882 47.8337 38.1649 49.0695 39.3666C48.1369 40.3758 48.1369 40.3758 48.1369 40.3758C46.395 38.708 45.7642 36.3673 46.6994 34.625Z" fill="#C7AECC"/>
<path fill-rule="evenodd" clip-rule="evenodd" d="M45.9453 44.8205C47.7836 44.9103 48.9949 43.4864 48.7342 41.635C48.4734 39.7835 46.7109 38.2068 44.8958 38.0361C43.082 37.864 41.8693 39.2879 42.1314 41.1394C42.3922 42.9908 44.1302 44.6497 45.9453 44.8205Z" fill="#1F2921"/>
<path fill-rule="evenodd" clip-rule="evenodd" d="M47.5522 43.8667C47.8695 43.692 48.0121 43.2016 47.8143 42.9666C47.7218 42.6726 47.2889 42.6354 46.9485 42.8921C46.6081 43.1476 46.4886 43.5572 46.5811 43.8512C46.7789 44.0875 47.2118 44.1234 47.5522 43.8667Z" fill="#323633"/>
<path fill-rule="evenodd" clip-rule="evenodd" d="M16.1095 26.2327L16.676 27.8146C16.7377 27.9866 16.9265 28.0765 17.0987 28.0149L18.8573 27.3857C19.0294 27.3241 19.1193 27.1341 19.0576 26.962L18.4911 25.3789C18.4295 25.2069 18.2394 25.117 18.0685 25.1786L16.3099 25.8077C16.1378 25.8707 16.0479 26.0607 16.1095 26.2327Z" fill="#FBCD00"/>
<path fill-rule="evenodd" clip-rule="evenodd" d="M13.5815 26.225L13.7177 25.7461C14.3099 26.8362 17.3698 28.5066 18.9408 28.5066L18.6415 28.9406C16.2175 29.0446 14.22 27.9173 13.5815 26.225Z" fill="#83518D"/>
<path fill-rule="evenodd" clip-rule="evenodd" d="M13.7114 25.755C15.0063 25.2915 15.0063 25.2915 15.0063 25.2915C15.6357 26.5498 17.1066 27.2701 18.8266 27.1481C18.9564 28.5168 18.9564 28.5168 18.9564 28.5168C16.5529 28.703 14.3871 27.6129 13.7114 25.755Z" fill="#C7AECC"/>
<path fill-rule="evenodd" clip-rule="evenodd" d="M24.0892 31.619L23.8529 31.1812C23.5112 32.3752 20.8893 34.6709 19.3542 35.0112L19.7422 35.3694C22.1277 34.9444 23.8323 33.4101 24.0892 31.619Z" fill="#83518D"/>
<path fill-rule="evenodd" clip-rule="evenodd" d="M23.8594 31.1888C22.4952 31.0181 22.4952 31.0181 22.4952 31.0181C22.1547 32.3829 20.8753 33.4062 19.1707 33.6617C19.3415 35.0253 19.3415 35.0253 19.3415 35.0253C21.7283 34.6838 23.6038 33.1494 23.8594 31.1888Z" fill="#C7AECC"/>
<path fill-rule="evenodd" clip-rule="evenodd" d="M19.0682 25.9154C20.6135 24.2026 23.2572 24.0652 24.9708 25.6111C26.6832 27.1557 26.8206 29.8006 25.2753 31.5121C23.7299 33.2249 21.0862 33.3623 19.3739 31.8177C17.6603 30.2731 17.5241 27.6282 19.0682 25.9154Z" fill="#3B9100"/>
<path fill-rule="evenodd" clip-rule="evenodd" d="M19.6 26.3944C20.8807 24.9743 23.0722 24.8613 24.4916 26.1401C25.9111 27.4202 26.0254 29.6119 24.7447 31.0307C23.464 32.452 21.2725 32.5637 19.853 31.2849C18.4336 30.0061 18.3192 27.8131 19.6 26.3944Z" fill="#9CF088"/>
<path fill-rule="evenodd" clip-rule="evenodd" d="M22.5379 31.0321C22.3247 30.7047 22.2733 30.2579 22.421 30.0358C22.5688 29.8124 22.8604 29.8984 23.0723 30.2258C23.2856 30.5532 23.3369 31 23.1905 31.2221C23.0428 31.4443 22.7499 31.3595 22.5379 31.0321ZM21.3805 30.4081C21.3959 30.118 21.5591 29.8265 21.7466 29.7559C21.9329 29.6865 22.0716 29.8663 22.0562 30.1565C22.0408 30.4466 21.8764 30.7394 21.6901 30.8087C21.5038 30.878 21.3651 30.6983 21.3805 30.4081ZM20.0882 30.4762C19.8326 30.3979 19.83 30.0936 20.0844 29.797C20.3374 29.5004 20.7511 29.3232 21.0054 29.4015C21.261 29.4798 21.2623 29.7841 21.008 30.082C20.7562 30.3773 20.3426 30.5545 20.0882 30.4762ZM23.3858 30.0229C23.1121 29.9241 22.8809 29.684 22.8681 29.485C22.8552 29.286 23.0672 29.2051 23.3408 29.3026C23.6144 29.4002 23.8456 29.6429 23.8598 29.8393C23.8713 30.0409 23.6594 30.1218 23.3858 30.0229ZM20.1075 29.0227C19.9867 28.8661 20.1165 28.6799 20.3991 28.6093C20.6804 28.5387 21.008 28.608 21.1287 28.7659C21.2508 28.9239 21.1197 29.11 20.8371 29.1807C20.5571 29.2513 20.2295 29.1807 20.1075 29.0227ZM23.4757 28.8648C23.3138 28.653 23.4898 28.4039 23.8688 28.3101C24.2477 28.2164 24.6858 28.314 24.8476 28.5259C25.0095 28.7377 24.8335 28.9868 24.4545 29.0792C24.0769 29.1742 23.6375 29.0767 23.4757 28.8648ZM22.958 28.3191C22.7666 28.2665 22.7589 28.0392 22.9413 27.8133C23.1237 27.586 23.4269 27.446 23.6183 27.4987C23.8097 27.5513 23.8174 27.7786 23.6362 28.0046C23.4538 28.2305 23.1494 28.3718 22.958 28.3191ZM20.5109 28.0559C20.1525 27.9031 19.8608 27.5616 19.8583 27.2945C19.857 27.0275 20.1473 26.935 20.5057 27.0891C20.8641 27.2419 21.157 27.5847 21.1583 27.8505C21.1596 28.1163 20.8693 28.2087 20.5109 28.0559ZM21.4024 27.7375C21.2392 27.4974 21.193 27.1661 21.2996 26.9979C21.4062 26.8298 21.6259 26.8888 21.789 27.1289C21.9522 27.3703 21.9984 27.7016 21.8918 27.8698C21.7852 28.0367 21.5655 27.9789 21.4024 27.7375ZM22.29 26.9761C22.3106 26.5858 22.5302 26.1942 22.7807 26.1017C23.0312 26.008 23.2175 26.2494 23.1969 26.6384C23.1764 27.0288 22.9567 27.4204 22.7062 27.5141C22.4557 27.6065 22.2694 27.3652 22.29 26.9761Z" fill="#89E372"/>
<path fill-rule="evenodd" clip-rule="evenodd" d="M38.328 31.7733L38.0904 31.3354C37.7499 32.5295 35.1268 34.8252 33.593 35.1655L33.9797 35.525C36.3677 35.0974 38.0724 33.5631 38.328 31.7733Z" fill="#83518D"/>
<path fill-rule="evenodd" clip-rule="evenodd" d="M38.0993 31.3417C36.735 31.1709 36.735 31.1709 36.735 31.1709C36.3946 32.5357 35.1152 33.5578 33.4105 33.8133C33.5814 35.1781 33.5814 35.1781 33.5814 35.1781C35.9681 34.8366 37.8436 33.3023 38.0993 31.3417Z" fill="#C7AECC"/>
<path fill-rule="evenodd" clip-rule="evenodd" d="M29.4139 46.2125L29.6143 47.8803C29.6361 48.0613 29.8006 48.191 29.983 48.1692L31.8366 47.9471C32.0178 47.9252 32.1475 47.7596 32.1257 47.5786L31.9253 45.9094C31.9034 45.7284 31.739 45.5987 31.5566 45.6206L29.7029 45.8427C29.5218 45.8658 29.3921 46.0314 29.4139 46.2125Z" fill="#FBCD00"/>
<path fill-rule="evenodd" clip-rule="evenodd" d="M30.0693 49.2578C28.8669 50.5045 27.1173 50.3106 26.1025 48.8726C25.0877 47.4346 25.2778 45.2172 26.4108 43.9294C27.5438 42.6416 29.2934 42.8355 30.3082 44.2735C31.3231 45.7115 31.2023 47.9687 30.0693 49.2578Z" fill="#1F2921"/>
<path fill-rule="evenodd" clip-rule="evenodd" d="M28.3518 49.6404C28.0217 49.7251 27.6068 49.4812 27.5913 49.1923C27.4655 48.9316 27.7391 48.6273 28.1386 48.5824C28.5368 48.5375 28.8836 48.7416 29.0082 49.0023C29.0237 49.2924 28.75 49.5967 28.3518 49.6404Z" fill="#323633"/>
<path fill-rule="evenodd" clip-rule="evenodd" d="M30.1102 41.513C29.8314 41.8057 29.2521 41.3692 28.9001 41.5669C28.5956 41.7364 28.3683 41.7955 28.3117 42.4323C28.2527 43.1051 28.6791 44.4751 27.7517 44.6856C27.3753 44.7717 27.3342 43.9076 27.1299 43.697C26.9167 43.4774 26.5724 43.5994 26.3438 44.0295C25.8646 44.9309 26.268 46.401 25.4124 46.4241C25.2069 46.4292 25.1761 46.0659 25.1594 45.8656C25.1375 45.596 24.7612 45.6833 24.6314 46.0415C24.4002 46.6886 24.4362 47.5835 23.754 47.4962C23.4522 47.4577 23.5318 46.885 23.5575 46.6026C23.5896 46.2315 23.2184 46.3009 23.0976 46.4151C22.6866 46.8131 22.5748 47.8018 21.9582 48.0136C21.6203 48.1279 21.5754 47.7902 21.33 47.8172C20.9357 47.8609 20.2574 48.9484 19.7089 48.3552L19.705 48.3513C19.1642 47.7517 20.3075 47.1727 20.3859 46.7836C20.4347 46.5422 20.102 46.4665 20.2471 46.1416C20.513 45.5446 21.5073 45.5215 21.9402 45.1479C22.0648 45.04 22.1663 44.6754 21.7951 44.6741C21.5099 44.6741 20.9344 44.7023 20.9228 44.3993C20.8971 43.7111 21.7835 43.828 22.4502 43.6546C22.8189 43.5583 22.9383 43.1898 22.6724 43.1449C22.4733 43.1102 22.1149 43.046 22.1393 42.8432C22.2382 41.9919 23.6654 42.5247 24.607 42.128C25.0553 41.9393 25.2082 41.6067 25.0091 41.3756C24.8177 41.1522 23.9621 41.0341 24.0803 40.6669C24.3732 39.7617 25.6989 40.3086 26.3759 40.3099C27.0143 40.3112 27.094 40.0891 27.2905 39.8028C27.5179 39.4689 27.1364 38.8539 27.4524 38.6023C28.0189 38.1529 28.8102 38.7409 29.5809 38.8873L30.0202 39.3688C30.0948 40.1469 30.6086 40.9891 30.1102 41.513Z" fill="#46BB00"/>
<path fill-rule="evenodd" clip-rule="evenodd" d="M20.8341 35.3475C21.3968 35.1112 22.0571 35.5452 22.6621 35.5735C23.316 35.6017 24.1085 35.2627 24.6879 35.6017C25.5087 36.0832 25.3058 37.457 24.2974 38.108C23.289 38.7602 21.7333 38.6562 20.8239 37.8782C19.9157 37.0975 19.8707 35.7506 20.8341 35.3475Z" fill="#850317"/>
<path fill-rule="evenodd" clip-rule="evenodd" d="M20.7637 35.7134C21 35.5645 21.2839 35.6056 21.397 35.8072C21.5113 36.0088 21.4098 36.2938 21.1734 36.444C20.9384 36.593 20.6545 36.5531 20.5401 36.3503C20.4271 36.1487 20.5273 35.8624 20.7637 35.7134Z" fill="#91081D"/>
<path fill-rule="evenodd" clip-rule="evenodd" d="M22.3011 35.784C22.2228 35.6954 22.1868 35.5914 22.1932 35.4912C22.3512 35.5323 22.508 35.5657 22.6621 35.5721C22.8509 35.5798 23.0501 35.558 23.253 35.531C23.253 35.6658 23.1811 35.7994 23.0436 35.8841C22.8111 36.0292 22.4784 35.9855 22.3011 35.784Z" fill="#F1A84A"/>
<path fill-rule="evenodd" clip-rule="evenodd" d="M23.7527 44.7078C21.6614 43.7358 20.7519 41.2488 21.7256 39.156C22.4245 37.6499 23.9107 36.7575 25.4689 36.7383V45.0968C24.8921 45.0917 24.3089 44.9671 23.7527 44.7078Z" fill="#3B9100"/>
<path fill-rule="evenodd" clip-rule="evenodd" d="M24.0546 44.0592C22.3204 43.2542 21.5676 41.1922 22.373 39.4588C22.9524 38.2134 24.1792 37.4738 25.4676 37.4546V44.3828C24.9936 44.3764 24.5119 44.2724 24.0546 44.0592Z" fill="#9CF088"/>
<path fill-rule="evenodd" clip-rule="evenodd" d="M23.8376 42.5673C23.993 42.2091 24.3347 41.9176 24.6019 41.9176C24.8691 41.9176 24.9603 42.2078 24.8049 42.566C24.6508 42.9242 24.3078 43.2157 24.0406 43.2157C23.7734 43.2157 23.6835 42.9255 23.8376 42.5673ZM25.2558 42.7702C25.1851 42.4877 25.2558 42.1616 25.4138 42.0396C25.4318 42.0268 25.4498 42.0152 25.4678 42.0088V43.0886C25.3765 43.0475 25.2969 42.9345 25.2558 42.7702ZM23.6321 41.8213C23.4702 41.7058 23.5396 41.4901 23.7888 41.3398C24.038 41.1883 24.3707 41.1601 24.5326 41.2744C24.6944 41.3899 24.6251 41.6056 24.3759 41.7558C24.1279 41.9074 23.7952 41.9369 23.6321 41.8213ZM23.7323 40.7788C23.3443 40.7377 22.9641 40.4976 22.8844 40.2421C22.8048 39.9879 23.054 39.8132 23.4432 39.8543C23.8312 39.8954 24.2101 40.1355 24.2911 40.391C24.3707 40.6452 24.1202 40.8198 23.7323 40.7788ZM24.4915 40.2125C24.2654 40.0302 24.1241 39.7272 24.1755 39.5359C24.2281 39.3433 24.4555 39.3356 24.6816 39.5166C24.909 39.7002 25.0503 40.002 24.9976 40.1946C24.9449 40.3859 24.7176 40.3949 24.4915 40.2125ZM25.1158 39.2226C25.0207 38.8439 25.1158 38.4047 25.3264 38.2417C25.3727 38.207 25.4202 38.1865 25.4678 38.1826V39.6707C25.3187 39.6463 25.18 39.4833 25.1158 39.2226Z" fill="#89E372"/>
<path fill-rule="evenodd" clip-rule="evenodd" d="M36.6591 44.4199C36.7825 45.017 36.2288 45.5819 36.0875 46.1712C35.9333 46.8068 36.1145 47.6503 35.67 48.1536C35.0406 48.8662 33.7303 48.404 33.2845 47.2883C32.8388 46.1738 33.2396 44.6677 34.1786 43.9243C35.1176 43.1809 36.4497 43.3966 36.6591 44.4199Z" fill="#850317"/>
<path fill-rule="evenodd" clip-rule="evenodd" d="M36.3135 44.2785C36.4162 44.5391 36.3186 44.81 36.1002 44.8832C35.8806 44.9551 35.6198 44.8036 35.5196 44.5417C35.4168 44.2811 35.5132 44.0101 35.7328 43.9382C35.9512 43.865 36.2133 44.0178 36.3135 44.2785Z" fill="#91081D"/>
<path fill-rule="evenodd" clip-rule="evenodd" d="M35.9473 45.7744C36.0501 45.714 36.158 45.6999 36.2569 45.7256C36.1862 45.872 36.1233 46.0209 36.0873 46.1698C36.0423 46.3522 36.0256 46.5525 36.0141 46.7579C35.8818 46.7309 35.7649 46.6359 35.7084 46.4844C35.6095 46.2289 35.7174 45.9105 35.9473 45.7744Z" fill="#F1A84A"/>
<path fill-rule="evenodd" clip-rule="evenodd" d="M32.2786 39.5218C34.2338 39.8338 35.5659 41.6737 35.255 43.6279C34.9429 45.5821 33.1033 46.9161 31.1482 46.6041C29.1943 46.2921 27.8609 44.4522 28.1718 42.498C28.484 40.5439 30.3235 39.2098 32.2786 39.5218Z" fill="#F0331B"/>
<path fill-rule="evenodd" clip-rule="evenodd" d="M30.7206 40.6442C31.3154 40.7392 31.7213 41.299 31.6262 41.8947C31.5312 42.4892 30.9711 42.8962 30.3763 42.8012C29.7816 42.7062 29.3757 42.1464 29.4707 41.5506C29.5645 40.9549 30.1259 40.5492 30.7206 40.6442Z" fill="#FB5039"/>
<path fill-rule="evenodd" clip-rule="evenodd" d="M27.7016 42.9473L26.7677 44.3442C26.6663 44.4958 26.7074 44.7025 26.859 44.8039L28.412 45.8413C28.5636 45.9428 28.7691 45.9017 28.8706 45.7502L29.8032 44.3519C29.9047 44.2004 29.8636 43.995 29.712 43.8923L28.159 42.8549C28.0087 42.7547 27.8031 42.7945 27.7016 42.9473Z" fill="#FBCD00"/>
<path fill-rule="evenodd" clip-rule="evenodd" d="M44.8148 34.9135L43.8809 36.3105C43.7794 36.462 43.8205 36.6687 43.9721 36.7701L45.5252 37.8063C45.6768 37.9077 45.8823 37.8666 45.9851 37.7151L46.9177 36.3169C47.0192 36.1654 46.9781 35.9587 46.8265 35.8572L45.2734 34.8198C45.1218 34.7196 44.9163 34.7607 44.8148 34.9135Z" fill="#FBCD00"/>
<path fill-rule="evenodd" clip-rule="evenodd" d="M46.1369 37.1119C45.7284 36.66 44.9461 36.7729 44.386 36.5405C43.781 36.2889 43.2081 35.6456 42.5388 35.7073C41.5921 35.7946 41.1913 37.1247 41.8297 38.1429C42.4656 39.1598 43.9172 39.726 45.072 39.4076C46.2256 39.0879 46.837 37.8861 46.1369 37.1119Z" fill="#850317"/>
<path fill-rule="evenodd" clip-rule="evenodd" d="M46.0458 37.4739C45.8955 37.2377 45.6206 37.1555 45.433 37.2891C45.2455 37.4239 45.2134 37.7243 45.3649 37.9606C45.5152 38.1968 45.7901 38.279 45.9777 38.1442C46.1652 38.0106 46.1974 37.7102 46.0458 37.4739Z" fill="#91081D"/>
<path fill-rule="evenodd" clip-rule="evenodd" d="M44.6223 36.8858C44.7315 36.8395 44.8073 36.7586 44.8446 36.6662C44.684 36.6354 44.5273 36.5994 44.386 36.5404C44.2113 36.4685 44.0404 36.3645 43.8683 36.2515C43.8117 36.3747 43.8195 36.525 43.9081 36.6598C44.0571 36.8909 44.377 36.9923 44.6223 36.8858Z" fill="#F1A84A"/>
<path fill-rule="evenodd" clip-rule="evenodd" d="M33.8819 35.458C34.2711 35.3476 34.5473 36.0165 34.9519 36.0255C35.3001 36.0332 35.5261 36.0987 35.8987 35.5787C36.2905 35.0279 36.6193 33.6322 37.525 33.9211C37.8924 34.0392 37.489 34.8045 37.5596 35.0895C37.6316 35.3861 37.9913 35.4567 38.4062 35.2012C39.2771 34.6684 39.6766 33.197 40.4256 33.6117C40.6054 33.7105 40.4474 34.0392 40.36 34.2203C40.2406 34.4642 40.6105 34.5811 40.9034 34.3371C41.4314 33.8967 41.854 33.1071 42.3974 33.5308C42.6376 33.717 42.2779 34.1702 42.1122 34.4C41.8964 34.7043 42.2522 34.8327 42.4128 34.7955C42.969 34.6607 43.5677 33.8659 44.2074 33.9982C44.5555 34.0713 44.4232 34.3846 44.648 34.486C45.009 34.6478 46.1471 34.0559 46.318 34.8456L46.3192 34.8507C46.4798 35.6416 45.2016 35.562 44.937 35.856C44.7726 36.0383 45.0205 36.2733 44.7315 36.48C44.1997 36.8601 43.3326 36.3747 42.7686 36.4762C42.6055 36.5057 42.3332 36.7676 42.653 36.9589C42.8984 37.1053 43.4084 37.3724 43.2645 37.6394C42.9369 38.2454 42.233 37.6946 41.5701 37.5059C41.204 37.4006 40.9137 37.6574 41.1205 37.832C41.2734 37.963 41.5496 38.1992 41.4262 38.3623C40.9073 39.0453 39.949 37.8628 38.9367 37.7255C38.455 37.66 38.1544 37.8693 38.2096 38.1697C38.261 38.4586 38.938 38.9953 38.649 39.2521C37.9373 39.8838 37.0728 38.7385 36.4896 38.3931C35.9411 38.067 35.7599 38.2185 35.4452 38.3661C35.0804 38.5382 35.0958 39.2623 34.6963 39.3175C33.9795 39.4164 33.5954 38.5087 33.0071 37.9912L32.8722 37.3544C33.2023 36.6418 33.1856 35.6557 33.8819 35.458Z" fill="#46BB00"/>
<path fill-rule="evenodd" clip-rule="evenodd" d="M34.6781 44.9449C33.7738 42.6479 34.3686 40.3714 35.8857 39.3635L36.325 39.2197L36.474 40.4575C35.472 41.3113 35.1226 42.9522 35.8189 44.6059C36.5344 46.7617 38.5743 48.1047 40.3085 47.654C40.3175 47.6502 40.3252 47.6476 40.3329 47.645L41.2077 48.314L40.848 48.6016C40.6887 48.6812 40.5269 48.7338 40.3303 48.771C38.1889 49.3231 35.63 47.663 34.6781 44.9449Z" fill="#FB6113"/>
<path fill-rule="evenodd" clip-rule="evenodd" d="M35.0173 44.7781C34.136 42.512 34.7719 40.2458 36.3237 39.2212L36.9017 40.2984C35.8741 41.16 35.4964 42.7944 36.176 44.425C36.8671 46.5538 38.9121 47.8558 40.6746 47.3833C40.6836 47.3794 40.6913 47.3768 40.7003 47.373L41.2064 48.3154C41.0432 48.3976 40.8788 48.4515 40.6797 48.4913C38.5049 49.0717 35.9409 47.4629 35.0173 44.7781Z" fill="#FB9528"/>
<path fill-rule="evenodd" clip-rule="evenodd" d="M34.1784 31.0088L33.2458 32.4058C33.1443 32.5573 33.1854 32.764 33.337 32.8654L34.89 33.9029C35.0416 34.0043 35.2472 33.9632 35.3499 33.8117L36.2825 32.4135C36.384 32.262 36.3429 32.0565 36.1913 31.9538L34.6383 30.9164C34.4854 30.8162 34.2799 30.856 34.1784 31.0088Z" fill="#FBCD00"/>
<path fill-rule="evenodd" clip-rule="evenodd" d="M33.5633 41.6083L32.6294 43.0065C32.528 43.158 32.5691 43.3647 32.7206 43.4662L34.2737 44.5036C34.4253 44.605 34.6308 44.5639 34.7336 44.4124L35.6675 43.0142C35.769 42.8627 35.7279 42.6573 35.5763 42.5545L34.0232 41.5171C33.8716 41.4157 33.6648 41.4568 33.5633 41.6083Z" fill="#FBCD00"/>
<path fill-rule="evenodd" clip-rule="evenodd" d="M30.5136 34.9302C32.0577 33.2175 34.7026 33.0801 36.4163 34.6247C38.1286 36.1693 38.2661 38.8142 36.7207 40.527C35.1767 42.2398 32.5317 42.3772 30.8193 40.8326C29.1057 39.288 28.9695 36.6443 30.5136 34.9302Z" fill="#3B9100"/>
<path fill-rule="evenodd" clip-rule="evenodd" d="M31.0455 35.4103C32.3262 33.9902 34.5177 33.8772 35.9372 35.1573C37.3567 36.4374 37.471 38.6291 36.1902 40.0479C34.9095 41.468 32.718 41.581 31.2985 40.3009C29.8791 39.022 29.766 36.8303 31.0455 35.4103Z" fill="#9CF088"/>
<path fill-rule="evenodd" clip-rule="evenodd" d="M33.9834 40.0482C33.7714 39.7208 33.7187 39.2753 33.8665 39.0519C34.0142 38.8298 34.3058 38.9158 34.519 39.2419C34.7323 39.5706 34.7837 40.0161 34.6359 40.2383C34.4882 40.4604 34.1966 40.3756 33.9834 40.0482ZM32.8259 39.4242C32.8414 39.1341 33.0058 38.8426 33.1921 38.7733C33.3783 38.7039 33.5171 38.8837 33.5016 39.1739C33.4862 39.464 33.3231 39.7555 33.1368 39.8248C32.9506 39.8942 32.8105 39.7144 32.8259 39.4242ZM31.5337 39.4923C31.278 39.414 31.2767 39.1084 31.5298 38.8118C31.7829 38.5152 32.1965 38.338 32.4508 38.4163C32.7065 38.4947 32.7078 38.7989 32.4547 39.0955C32.2016 39.3934 31.788 39.5706 31.5337 39.4923ZM34.8325 39.039C34.5576 38.9402 34.3263 38.6988 34.3135 38.5011C34.3006 38.3021 34.5126 38.2212 34.7862 38.3188C35.0598 38.4163 35.2911 38.6577 35.3039 38.8567C35.3168 39.057 35.1061 39.1379 34.8325 39.039ZM31.5529 38.0389C31.4322 37.8809 31.5619 37.696 31.8445 37.6254C32.1258 37.5548 32.4534 37.6241 32.5742 37.7821C32.6949 37.94 32.5652 38.1262 32.2826 38.1968C32.0025 38.2674 31.675 38.1968 31.5529 38.0389ZM34.9211 37.8809C34.7592 37.6691 34.9352 37.42 35.3142 37.3263C35.6931 37.2325 36.1325 37.3301 36.2943 37.542C36.4562 37.7538 36.2802 38.0029 35.9012 38.0953C35.5223 38.1904 35.083 38.0928 34.9211 37.8809ZM34.4034 37.3352C34.212 37.2826 34.2043 37.0553 34.3867 36.8294C34.5691 36.6034 34.8723 36.4622 35.0637 36.5148C35.2551 36.5674 35.2628 36.7947 35.0817 37.0207C34.8993 37.2466 34.5948 37.3879 34.4034 37.3352ZM31.9563 37.072C31.5966 36.9192 31.305 36.5777 31.3037 36.3107C31.3024 36.0436 31.5927 35.9511 31.9524 36.1039C32.3108 36.258 32.6024 36.5983 32.6037 36.8653C32.605 37.1324 32.3147 37.2248 31.9563 37.072ZM32.8478 36.7536C32.6846 36.5135 32.6384 36.181 32.7463 36.0141C32.8529 35.8459 33.0713 35.9049 33.2344 36.145C33.3976 36.3864 33.4438 36.7177 33.3372 36.8846C33.2293 37.0528 33.0109 36.9937 32.8478 36.7536ZM33.7354 35.9922C33.756 35.6019 33.9757 35.2103 34.2261 35.1179C34.4766 35.0241 34.6629 35.2655 34.6436 35.6546C34.6231 36.0449 34.4021 36.4365 34.1529 36.5289C33.9011 36.6227 33.7149 36.3813 33.7354 35.9922Z" fill="#89E372"/>
<path fill-rule="evenodd" clip-rule="evenodd" d="M25.8786 40.2331L28.2294 44.0913C28.4851 44.5112 29.0349 44.6447 29.4536 44.3879L33.3113 42.0357C33.7313 41.7802 33.8636 41.2307 33.6093 40.8109L31.2572 36.9526C31.0016 36.5327 30.4531 36.4005 30.033 36.656L26.1754 39.0069C25.7566 39.2637 25.623 39.8132 25.8786 40.2331Z" fill="white"/>
<path fill-rule="evenodd" clip-rule="evenodd" d="M31.9265 42.8818C31.9163 42.7534 32.0126 42.6417 32.1398 42.6302C32.1912 42.6263 32.2413 42.6392 32.2824 42.6648L31.9265 42.8818ZM32.8707 42.1923C32.7756 42.2 32.6921 42.1294 32.6844 42.0344C32.6767 41.9394 32.7474 41.8559 32.8424 41.8482C32.9388 41.8405 33.021 41.9112 33.0287 42.0062C33.0364 42.0999 32.9658 42.1846 32.8707 42.1923ZM29.7838 43.8127C29.6888 43.8204 29.6053 43.7498 29.5976 43.6548C29.5899 43.5597 29.6605 43.4763 29.7556 43.4686C29.8506 43.4609 29.9341 43.5315 29.9431 43.6278C29.9496 43.7202 29.8789 43.8037 29.7838 43.8127ZM33.0261 41.0869C32.854 41.1023 32.7024 40.9739 32.6883 40.8005C32.6729 40.6285 32.8013 40.4757 32.9748 40.4616C33.1469 40.4462 33.2985 40.5746 33.3139 40.7479C33.3267 40.9199 33.1983 41.0727 33.0261 41.0869ZM31.4859 41.9612C31.3909 41.9689 31.3074 41.8983 31.2984 41.8033C31.2894 41.7083 31.3613 41.6248 31.4564 41.6171C31.5514 41.6094 31.6349 41.68 31.6426 41.7751C31.6516 41.8701 31.581 41.9535 31.4859 41.9612ZM29.482 42.5762C29.3342 42.4876 29.2854 42.2951 29.3741 42.1461C29.4627 41.9985 29.6554 41.9497 29.8044 42.0396C29.9521 42.1281 30.0009 42.3207 29.9123 42.4697C29.8224 42.6173 29.6297 42.6648 29.482 42.5762ZM28.1023 42.8741C28.0073 42.8831 27.9238 42.8112 27.9161 42.7162C27.9083 42.6212 27.979 42.5377 28.0741 42.53C28.1691 42.5223 28.2526 42.5929 28.2603 42.6879C28.268 42.783 28.1974 42.8664 28.1023 42.8741ZM29.7466 41.5992C29.6361 41.5337 29.6014 41.3912 29.6669 41.2807C29.7325 41.1716 29.875 41.1357 29.9842 41.2011C30.0934 41.2666 30.1294 41.4091 30.0639 41.5183C29.9971 41.6287 29.8545 41.6634 29.7466 41.5992ZM32.9015 39.7002C32.8065 39.7079 32.723 39.6373 32.7153 39.5423C32.7101 39.4948 32.7281 39.4473 32.7577 39.4139L32.9298 39.6963C32.9208 39.6989 32.9118 39.7002 32.9015 39.7002ZM31.6722 40.3255C31.5437 40.337 31.4307 40.2407 31.4204 40.1123C31.4088 39.9839 31.5052 39.871 31.6336 39.8594C31.7621 39.8478 31.8751 39.9441 31.8867 40.0725C31.8957 40.2009 31.8006 40.3152 31.6722 40.3255ZM32.2451 38.9748C32.15 38.9825 32.0665 38.9118 32.0576 38.8168C32.0498 38.7218 32.1205 38.6384 32.2156 38.6307C32.24 38.6294 32.2631 38.6319 32.2849 38.6384L32.4005 38.8284C32.389 38.9054 32.326 38.9683 32.2451 38.9748ZM29.157 40.536C28.9835 40.5502 28.832 40.4218 28.8178 40.2484C28.8037 40.0764 28.9322 39.9236 29.1043 39.9095C29.2764 39.8954 29.428 40.0237 29.4434 40.1971C29.4576 40.3691 29.3278 40.5206 29.157 40.536ZM27.7362 41.1177C27.6412 41.1267 27.5577 41.0548 27.5499 40.9597C27.541 40.8647 27.6129 40.7813 27.708 40.7736C27.803 40.7659 27.8865 40.8365 27.8942 40.9315C27.9032 41.0265 27.8313 41.11 27.7362 41.1177ZM31.0055 38.5806C30.9104 38.5883 30.8269 38.5177 30.8192 38.4227C30.8102 38.3276 30.8809 38.2442 30.9759 38.2365C31.071 38.2275 31.1545 38.2994 31.1622 38.3944C31.1699 38.4894 31.0993 38.5729 31.0055 38.5806ZM29.9483 39.1661C29.8532 39.1738 29.7697 39.1032 29.762 39.0081C29.753 38.9131 29.8249 38.8297 29.92 38.822C30.0151 38.8143 30.0986 38.8849 30.1063 38.9799C30.114 39.0749 30.0446 39.1584 29.9483 39.1661ZM26.2795 40.6901C26.1844 40.6991 26.1009 40.6272 26.0919 40.5322C26.083 40.4372 26.1549 40.355 26.25 40.346C26.345 40.337 26.4285 40.4089 26.4362 40.5039C26.4465 40.599 26.3746 40.6824 26.2795 40.6901ZM27.8069 39.446C27.6347 39.4601 27.4819 39.3317 27.469 39.1596C27.4549 38.9863 27.5821 38.8348 27.7555 38.8207C27.9276 38.8066 28.0792 38.935 28.0946 39.107C28.1087 39.2791 27.9803 39.4318 27.8069 39.446ZM28.5583 38.1145C28.4646 38.1235 28.3798 38.0516 28.3721 37.9566C28.3631 37.8616 28.435 37.7781 28.5301 37.7691C28.6251 37.7614 28.7086 37.832 28.7164 37.9283C28.7253 38.0234 28.6547 38.1068 28.5583 38.1145Z" fill="#DFDFDF"/>
<path fill-rule="evenodd" clip-rule="evenodd" d="M44.3961 44.8758C44.4501 44.2684 43.836 43.7703 43.6266 43.2028C43.4006 42.5878 43.4841 41.7301 42.9843 41.2807C42.2765 40.6451 41.0292 41.255 40.7145 42.4131C40.3998 43.5713 40.9701 45.0221 41.9888 45.6525C43.0062 46.2817 44.3036 45.9158 44.3961 44.8758Z" fill="#850317"/>
<path fill-rule="evenodd" clip-rule="evenodd" d="M44.0685 45.0556C44.1392 44.7846 44.0133 44.5266 43.7872 44.4803C43.5611 44.4341 43.3196 44.6152 43.2476 44.8861C43.1757 45.157 43.3016 45.4138 43.5303 45.4613C43.7563 45.5062 43.9978 45.3239 44.0685 45.0556Z" fill="#91081D"/>
<path fill-rule="evenodd" clip-rule="evenodd" d="M43.5342 43.6111C43.6421 43.6586 43.7526 43.6611 43.8464 43.6239C43.759 43.4852 43.6794 43.3453 43.6267 43.2015C43.5612 43.0243 43.5214 42.8279 43.4867 42.625C43.3583 42.6661 43.2542 42.7752 43.2144 42.9319C43.1463 43.1989 43.2889 43.5032 43.5342 43.6111Z" fill="#F1A84A"/>
<path fill-rule="evenodd" clip-rule="evenodd" d="M40.5885 43.7251L39.6559 45.1221C39.5544 45.2736 39.5956 45.4803 39.7471 45.5817L41.3002 46.6192C41.4518 46.7206 41.6573 46.6795 41.7601 46.528L42.694 45.1298C42.7955 44.9783 42.7544 44.7728 42.6028 44.6701L41.0497 43.6327C40.8956 43.5325 40.69 43.5723 40.5885 43.7251Z" fill="#FBCD00"/>
<path fill-rule="evenodd" clip-rule="evenodd" d="M35.7304 40.2678L34.7618 44.8053C34.6565 45.2983 34.9725 45.7862 35.4658 45.8915L40.003 46.8609C40.4962 46.9662 40.9831 46.6503 41.0884 46.1573L42.057 41.6198C42.1623 41.1268 41.8463 40.6389 41.3531 40.5336L36.8159 39.5642C36.3226 39.4589 35.8357 39.7748 35.7304 40.2678Z" fill="white"/>
<path fill-rule="evenodd" clip-rule="evenodd" d="M38.3716 46.5117C38.4551 46.409 38.6054 46.3936 38.7082 46.4745C38.7493 46.5079 38.7763 46.5528 38.7891 46.599L38.3716 46.5117ZM39.5624 46.6632C39.4854 46.6029 39.4738 46.4899 39.5342 46.4141C39.5958 46.3371 39.7063 46.3255 39.7834 46.3859C39.8605 46.4475 39.872 46.5592 39.8116 46.635C39.7513 46.712 39.6382 46.7248 39.5624 46.6632ZM36.1172 45.6926C36.0401 45.6309 36.0285 45.5205 36.0889 45.4435C36.1493 45.3664 36.261 45.3536 36.3381 45.4152C36.4152 45.4768 36.4268 45.5886 36.3664 45.6643C36.306 45.7413 36.1942 45.7542 36.1172 45.6926ZM40.4578 45.9493C40.3178 45.8389 40.2972 45.6361 40.4064 45.4961C40.5169 45.3574 40.7211 45.3356 40.8599 45.4448C40.9986 45.5565 41.0217 45.7593 40.91 45.898C40.7995 46.0367 40.5965 46.0598 40.4578 45.9493ZM38.6928 45.5141C38.6157 45.4525 38.6028 45.3408 38.6645 45.265C38.7249 45.188 38.8366 45.1764 38.9137 45.2368C38.9908 45.2984 39.0036 45.4088 38.942 45.4858C38.8816 45.5616 38.7698 45.5744 38.6928 45.5141ZM36.7646 44.5588C36.7158 44.3881 36.8173 44.2096 36.9881 44.1621C37.159 44.1146 37.3362 44.2147 37.3838 44.3855C37.4313 44.5563 37.3311 44.7347 37.1615 44.7822C36.9894 44.8297 36.8108 44.7296 36.7646 44.5588ZM35.525 43.8064C35.4492 43.7448 35.4363 43.6331 35.498 43.5573C35.5584 43.4816 35.6701 43.4688 35.7472 43.5291C35.8243 43.5907 35.8358 43.7024 35.7742 43.7782C35.7125 43.8565 35.6008 43.8681 35.525 43.8064ZM37.651 44.0157C37.615 43.8899 37.6895 43.7589 37.8167 43.7217C37.9426 43.6857 38.0736 43.7602 38.1096 43.886C38.1455 44.0119 38.071 44.1428 37.9451 44.1801C37.8167 44.216 37.6856 44.1415 37.651 44.0157ZM41.3442 44.8272C41.2671 44.7668 41.2542 44.6551 41.3172 44.5781C41.348 44.5383 41.393 44.5152 41.4392 44.5113L41.3686 44.8426C41.3596 44.84 41.3519 44.8336 41.3442 44.8272ZM39.9863 44.4253C39.8823 44.3431 39.8656 44.1903 39.9478 44.0876C40.03 43.9849 40.1816 43.9669 40.2844 44.0504C40.3884 44.1338 40.4051 44.2841 40.3229 44.3868C40.2407 44.4908 40.0891 44.5075 39.9863 44.4253ZM41.366 43.8218C41.2889 43.7615 41.2761 43.6498 41.3377 43.5728C41.3981 43.497 41.5111 43.4842 41.5869 43.5445C41.6062 43.5599 41.6229 43.5792 41.6332 43.601L41.5844 43.8244C41.5227 43.8732 41.4315 43.8745 41.366 43.8218ZM37.9606 42.8062C37.8205 42.6958 37.7987 42.493 37.9104 42.3543C38.0209 42.2156 38.2239 42.1925 38.3626 42.3029C38.5026 42.4134 38.5245 42.6162 38.414 42.7562C38.3035 42.8948 38.0993 42.9167 37.9606 42.8062ZM36.491 42.2387C36.4139 42.1784 36.4023 42.0654 36.4627 41.9896C36.5244 41.9139 36.6361 41.9011 36.7119 41.9627C36.7877 42.0243 36.8006 42.1347 36.7389 42.2118C36.6798 42.2875 36.5681 42.2991 36.491 42.2387ZM40.7186 42.6522C40.6428 42.5918 40.6299 42.4801 40.6916 42.4031C40.752 42.326 40.8637 42.3145 40.9408 42.3748C41.0166 42.4365 41.0294 42.5482 40.969 42.6239C40.9074 42.7022 40.7956 42.7138 40.7186 42.6522ZM39.5175 42.3453C39.4417 42.2837 39.4288 42.172 39.4905 42.0962C39.5509 42.0205 39.6626 42.0076 39.7397 42.068C39.8168 42.1283 39.8296 42.2413 39.768 42.3171C39.7063 42.3941 39.5945 42.4056 39.5175 42.3453ZM35.7074 40.8919C35.6303 40.8315 35.6175 40.7185 35.6791 40.6415C35.7395 40.5657 35.8513 40.5529 35.9283 40.6145C36.0041 40.6749 36.017 40.7866 35.9553 40.8636C35.8949 40.9407 35.7832 40.9522 35.7074 40.8919ZM37.7242 41.0421C37.5855 40.9317 37.5636 40.7275 37.6741 40.5889C37.7846 40.4502 37.9875 40.4284 38.1275 40.5388C38.2663 40.6492 38.2894 40.8521 38.1776 40.992C38.0659 41.1294 37.8629 41.1525 37.7242 41.0421ZM39.2233 40.5786C39.1475 40.5182 39.1347 40.4065 39.1963 40.3295C39.2567 40.2537 39.3685 40.2409 39.4455 40.3013C39.5226 40.3629 39.5355 40.4746 39.4738 40.5516C39.4121 40.6287 39.3004 40.6415 39.2233 40.5786Z" fill="#DFDFDF"/>
<path fill-rule="evenodd" clip-rule="evenodd" d="M33.6301 40.2098L33.8678 39.772C34.2082 40.966 36.8313 43.2618 38.3651 43.602L37.9784 43.9615C35.5917 43.5352 33.8858 42.0009 33.6301 40.2098Z" fill="#83518D"/>
<path fill-rule="evenodd" clip-rule="evenodd" d="M33.8601 39.7784C35.2243 39.6089 35.2243 39.6089 35.2243 39.6089C35.5648 40.9737 36.8442 41.9958 38.5488 42.2513C38.378 43.6161 38.378 43.6161 38.378 43.6161C35.9912 43.2746 34.1157 41.739 33.8601 39.7784Z" fill="#C7AECC"/>
<path fill-rule="evenodd" clip-rule="evenodd" d="M22.8164 31.904V33.5847C22.8164 33.767 22.9641 33.916 23.1478 33.916H25.0156C25.198 33.916 25.347 33.767 25.347 33.5847V31.904C25.347 31.7217 25.198 31.5728 25.0156 31.5728H23.1478C22.9641 31.5728 22.8164 31.7217 22.8164 31.904Z" fill="#FBCD00"/>
<path fill-rule="evenodd" clip-rule="evenodd" d="M23.6837 31.7525C21.4292 30.7459 20.2602 28.7057 20.6379 26.9223L20.8511 26.5127L21.8249 27.2921C21.7067 28.6043 22.6072 30.0192 24.2617 30.7125C26.2811 31.7499 28.6781 31.2813 29.6004 29.7444C29.6043 29.7354 29.6082 29.7277 29.612 29.72L30.7039 29.5865L30.6487 30.0436C30.5909 30.213 30.5125 30.3633 30.3982 30.5276C29.2575 32.4202 26.2682 33.0275 23.6837 31.7525Z" fill="#FB6113"/>
<path fill-rule="evenodd" clip-rule="evenodd" d="M23.8093 31.3958C21.5934 30.3943 20.4604 28.331 20.8522 26.5142L22.0199 26.8788C21.8902 28.2141 22.765 29.6457 24.3913 30.3326C26.3759 31.3675 28.7473 30.8668 29.6748 29.2939C29.6786 29.2849 29.6825 29.2772 29.6863 29.2695L30.7076 29.5879C30.6485 29.76 30.5688 29.9141 30.4545 30.0823C29.3061 32.0198 26.349 32.6669 23.8093 31.3958Z" fill="#FB9528"/>
<path fill-rule="evenodd" clip-rule="evenodd" d="M41.5495 36.5248C43.5046 36.8368 44.838 38.6767 44.5259 40.6309C44.2137 42.5851 42.3742 43.9191 40.4191 43.6071C38.4652 43.2951 37.1318 41.4552 37.4427 39.501C37.7561 37.5455 39.5956 36.2128 41.5495 36.5248Z" fill="#F0331B"/>
<path fill-rule="evenodd" clip-rule="evenodd" d="M39.9925 37.6471C40.5872 37.7421 40.9932 38.3019 40.8981 38.8977C40.803 39.4921 40.243 39.8991 39.6482 39.8041C39.0534 39.7091 38.6475 39.1493 38.7426 38.5548C38.8363 37.9578 39.3964 37.5521 39.9925 37.6471Z" fill="#FB5039"/>
<path fill-rule="evenodd" clip-rule="evenodd" d="M24.9898 39.0082L24.056 40.4064C23.9545 40.5579 23.9956 40.7646 24.1472 40.866L25.7002 41.9035C25.8518 42.0049 26.0573 41.9638 26.1588 41.8123L27.0914 40.4141C27.1929 40.2626 27.1518 40.0559 27.0002 39.9544L25.4472 38.917C25.2969 38.8156 25.0913 38.8567 24.9898 39.0082Z" fill="#FBCD00"/>
<path fill-rule="evenodd" clip-rule="evenodd" d="M23.6436 33.5742C25.1607 32.3031 27.4241 32.5046 28.6946 34.0223C29.965 35.5399 29.7647 37.8035 28.2463 39.0733C26.7292 40.3444 24.4657 40.1429 23.1953 38.6265C21.9261 37.1076 22.1265 34.844 23.6436 33.5742Z" fill="#F0331B"/>
<path fill-rule="evenodd" clip-rule="evenodd" d="M23.7887 34.4625C24.2512 34.076 24.9397 34.1363 25.3264 34.5986C25.7131 35.0608 25.6527 35.7503 25.1902 36.1368C24.7278 36.5232 24.0392 36.4629 23.6526 36.0007C23.2646 35.5384 23.3263 34.8489 23.7887 34.4625Z" fill="#FB5039"/>
<path fill-rule="evenodd" clip-rule="evenodd" d="M25.6965 26.9762L24.2462 31.4996C24.0882 31.9913 24.3605 32.5203 24.8525 32.6782L29.3755 34.1291C29.8675 34.287 30.3968 34.0148 30.5535 33.5231L32.0038 28.9997C32.1618 28.508 31.8895 27.979 31.3988 27.8211L26.8757 26.3702C26.3825 26.2123 25.8545 26.4832 25.6965 26.9762Z" fill="white"/>
<path fill-rule="evenodd" clip-rule="evenodd" d="M27.7492 33.6067C27.8443 33.5104 27.9997 33.5104 28.0948 33.6042C28.1333 33.6427 28.1577 33.6902 28.1654 33.7402L27.7492 33.6067ZM28.9465 33.8828C28.8745 33.8134 28.8733 33.6979 28.9439 33.626C29.0133 33.5541 29.1289 33.5528 29.2008 33.6221C29.2715 33.6927 29.2728 33.8083 29.2034 33.8789C29.134 33.9521 29.0184 33.9547 28.9465 33.8828ZM25.5359 32.5436C25.464 32.473 25.4627 32.3587 25.5333 32.2868C25.6027 32.2149 25.7183 32.2136 25.7902 32.283C25.8622 32.3523 25.8622 32.4691 25.7928 32.541C25.7234 32.6117 25.6078 32.6129 25.5359 32.5436ZM29.933 33.2472C29.802 33.1201 29.8007 32.9108 29.9266 32.7799C30.0538 32.6502 30.2632 32.6476 30.3929 32.7747C30.5239 32.9018 30.5265 33.1111 30.3993 33.2408C30.2722 33.373 30.0615 33.3743 29.933 33.2472ZM28.1783 32.6232C28.1064 32.5539 28.1051 32.4383 28.1757 32.3664C28.2451 32.2945 28.3594 32.2932 28.4326 32.3639C28.5046 32.4332 28.5046 32.5487 28.4352 32.6206C28.3658 32.6925 28.2502 32.6938 28.1783 32.6232ZM26.3105 31.4535C26.2797 31.2751 26.3991 31.1043 26.579 31.0722C26.7575 31.0414 26.9284 31.1621 26.9592 31.3405C26.9913 31.519 26.8706 31.6898 26.692 31.7206C26.5135 31.7527 26.3426 31.632 26.3105 31.4535ZM25.1248 30.5612C25.0529 30.4919 25.0516 30.3763 25.1223 30.3031C25.1929 30.2325 25.3072 30.2312 25.3792 30.3005C25.4511 30.3699 25.4511 30.4854 25.3817 30.5573C25.3124 30.6292 25.1968 30.6305 25.1248 30.5612ZM27.2701 30.9913C27.247 30.8591 27.3356 30.732 27.4666 30.7088C27.5989 30.6857 27.7261 30.7743 27.7492 30.9066C27.7724 31.0388 27.6824 31.1659 27.5514 31.1878C27.4191 31.2121 27.2932 31.1223 27.2701 30.9913ZM30.9491 32.1944C30.8772 32.125 30.8759 32.0095 30.9466 31.9376C30.9825 31.9003 31.0301 31.8824 31.0776 31.8824L30.971 32.2136C30.9646 32.2085 30.9568 32.2021 30.9491 32.1944ZM29.6068 31.6461C29.5104 31.5511 29.5091 31.3958 29.6029 31.2995C29.698 31.2019 29.8534 31.2006 29.951 31.2956C30.0474 31.3906 30.0499 31.546 29.9549 31.6423C29.8598 31.7399 29.7044 31.7411 29.6068 31.6461ZM31.075 31.1723C31.0031 31.103 31.0018 30.9875 31.0725 30.9156C31.1418 30.8437 31.2574 30.8424 31.3294 30.913C31.3474 30.931 31.3602 30.9515 31.3705 30.9746L31.2998 31.1967C31.2292 31.2404 31.1367 31.2327 31.075 31.1723ZM27.7094 29.7908C27.5784 29.6637 27.5771 29.4544 27.7043 29.3247C27.8315 29.1938 28.0408 29.1925 28.1706 29.3183C28.3003 29.4454 28.3029 29.6547 28.1757 29.7857C28.0485 29.9154 27.8392 29.9179 27.7094 29.7908ZM26.2707 29.0602C26.1987 28.9909 26.1975 28.8754 26.2668 28.8035C26.3375 28.7316 26.4518 28.7303 26.5237 28.8009C26.5957 28.8702 26.597 28.9858 26.5276 29.0577C26.4569 29.1309 26.3426 29.1309 26.2707 29.0602ZM30.5355 29.9154C30.4636 29.846 30.4623 29.7305 30.5329 29.6586C30.6023 29.5867 30.7179 29.5854 30.7886 29.6573C30.8605 29.7253 30.8618 29.8409 30.7924 29.9128C30.7218 29.9847 30.6062 29.986 30.5355 29.9154ZM29.3434 29.4788C29.2715 29.4082 29.2702 29.2939 29.3408 29.222C29.4102 29.1514 29.5258 29.1501 29.5978 29.2195C29.6697 29.2888 29.671 29.4043 29.6003 29.4762C29.5297 29.5481 29.4141 29.5494 29.3434 29.4788ZM25.6091 27.6094C25.5372 27.5388 25.5359 27.4245 25.6053 27.3526C25.6759 27.2807 25.7902 27.2807 25.8635 27.35C25.9354 27.4206 25.9367 27.5362 25.866 27.6068C25.7954 27.6787 25.6798 27.68 25.6091 27.6094ZM27.649 27.9676C27.5193 27.8405 27.5167 27.6312 27.6439 27.5015C27.7711 27.3719 27.9805 27.3693 28.1102 27.4964C28.24 27.6235 28.2425 27.8328 28.1153 27.9625C27.9882 28.0934 27.7788 28.0947 27.649 27.9676ZM29.2239 27.6505C29.152 27.5811 29.1507 27.4656 29.2201 27.3937C29.2907 27.3218 29.4051 27.3205 29.477 27.3898C29.5489 27.4604 29.5502 27.5747 29.4809 27.6466C29.4115 27.7198 29.2959 27.7211 29.2239 27.6505Z" fill="#DFDFDF"/>
<path fill-rule="evenodd" clip-rule="evenodd" d="M30.9646 37.9743C29.1264 38.0642 27.915 36.6403 28.1758 34.7888C28.4378 32.9373 30.199 31.3606 32.0141 31.1899C33.8279 31.0178 35.0406 32.4417 34.7785 34.2932C34.5165 36.1447 32.7784 37.8035 30.9646 37.9743Z" fill="#1F2921"/>
<path fill-rule="evenodd" clip-rule="evenodd" d="M29.3563 37.0205C29.039 36.8459 28.8964 36.3554 29.0942 36.1204C29.1867 35.8277 29.6196 35.7905 29.96 36.046C30.3004 36.3028 30.4199 36.7123 30.3274 37.0051C30.1296 37.24 29.6967 37.2773 29.3563 37.0205Z" fill="#323633"/>
<path fill-rule="evenodd" clip-rule="evenodd" d="M45.3454 52.6435C43.1231 54.0148 40.2058 53.3228 38.8351 51.1015C37.7522 49.3451 37.9577 47.1547 39.1871 45.6357L46.8162 51.2145C46.4489 51.7769 45.9543 52.2673 45.3454 52.6435Z" fill="#78BA03"/>
<path fill-rule="evenodd" clip-rule="evenodd" d="M44.9664 52.0311C43.0819 53.1944 40.6091 52.6076 39.4466 50.724C38.5229 49.2218 38.7054 47.3485 39.769 46.062L46.233 50.7882C45.9209 51.2774 45.4931 51.7037 44.9664 52.0311Z" fill="#CFE99B"/>
<path fill-rule="evenodd" clip-rule="evenodd" d="M39.5313 49.7096C39.5108 49.612 39.5416 49.4644 39.697 49.4438L42.3214 48.893C42.5218 48.843 42.5218 48.9046 42.4126 49.0227L40.6104 51.0924C40.5551 51.1515 40.4459 51.1656 40.3535 51.0732C39.9694 50.7342 39.6906 50.29 39.5313 49.7096ZM41.1871 51.5136L42.6118 49.1678C42.6914 49.0291 42.7505 49.0099 42.7646 49.2153L43.0357 51.8834C43.0626 52.0387 42.9316 52.1119 42.8327 52.1222C42.2328 52.1453 41.7241 52.0156 41.2848 51.7511C41.1679 51.692 41.1486 51.5855 41.1871 51.5136ZM39.3785 48.6581C39.3181 48.1496 39.408 47.6296 39.6752 47.0942C39.7253 47.0069 39.8473 46.9183 39.9784 47.0056L42.2996 48.3461C42.4833 48.4437 42.4422 48.4886 42.2803 48.5053L39.5583 48.843C39.4761 48.8494 39.3849 48.7878 39.3785 48.6581ZM43.6484 51.8358L43.1449 49.1396C43.1127 48.9803 43.1423 48.929 43.2913 49.0728L45.2734 50.878C45.3967 50.9769 45.3492 51.1194 45.2811 51.1939C44.8521 51.6112 44.3845 51.8551 43.8809 51.9514C43.755 51.9835 43.669 51.9142 43.6484 51.8358Z" fill="#B7DF69"/>
<path fill-rule="evenodd" clip-rule="evenodd" d="M41.349 55.1231C38.8248 55.792 36.2338 54.2847 35.5646 51.7617C35.0366 49.7665 35.8664 47.7301 37.485 46.6323L43.1706 54.182C42.6568 54.6121 42.0414 54.9382 41.349 55.1231Z" fill="#81CB00"/>
<path fill-rule="evenodd" clip-rule="evenodd" d="M41.1652 54.4274C39.0238 54.9949 36.8272 53.7173 36.2607 51.5783C35.8111 49.8732 36.5279 48.1334 37.9191 47.209L42.7376 53.6056C42.2957 53.9831 41.7639 54.2669 41.1652 54.4274Z" fill="#D8F0AB"/>
<path fill-rule="evenodd" clip-rule="evenodd" d="M36.6346 50.6305C36.6423 50.5316 36.7155 50.3994 36.8697 50.4238L39.5429 50.6562C39.7484 50.6677 39.7304 50.7255 39.5917 50.8077L37.2666 52.2662C37.196 52.3073 37.088 52.2881 37.0264 52.1738C36.7566 51.7385 36.6192 51.2314 36.6346 50.6305ZM37.6969 52.8376L39.7407 51.0041C39.8576 50.8937 39.9193 50.8924 39.8718 51.094L39.3579 53.7261C39.3387 53.8827 39.1922 53.9148 39.0946 53.8969C38.5139 53.7453 38.0643 53.4744 37.7201 53.0931C37.6263 53.0019 37.6391 52.8941 37.6969 52.8376ZM36.7926 49.5802C36.8825 49.0756 37.1189 48.6044 37.5299 48.1691C37.6032 48.0998 37.7458 48.051 37.846 48.1717L39.6791 50.1285C39.8255 50.2748 39.7741 50.3056 39.6148 50.2748L36.9108 49.81C36.8311 49.7921 36.7618 49.706 36.7926 49.5802ZM39.9591 53.8583L40.2584 51.1312C40.2738 50.9694 40.3175 50.9284 40.4177 51.1107L41.7922 53.4115C41.8821 53.5425 41.7948 53.6645 41.7074 53.7158C41.1756 53.9906 40.6579 54.0882 40.1492 54.0355C40.0182 54.0317 39.9565 53.9392 39.9591 53.8583Z" fill="#C4E87E"/>
<path fill-rule="evenodd" clip-rule="evenodd" d="M36.6642 56.7138C34.0591 56.5276 32.0988 54.2601 32.2851 51.6563C32.4341 49.5968 33.8805 47.9405 35.7676 47.4282L38.6939 56.4146C38.067 56.6573 37.3797 56.7651 36.6642 56.7138Z" fill="#8DDD00"/>
<path fill-rule="evenodd" clip-rule="evenodd" d="M36.7156 55.9961C34.5074 55.8382 32.8426 53.9161 33.0019 51.7077C33.1316 49.95 34.3725 48.5364 35.9898 48.1152L38.4704 55.7291C37.9295 55.9435 37.3335 56.0385 36.7156 55.9961Z" fill="#E5FBBA"/>
<path fill-rule="evenodd" clip-rule="evenodd" d="M33.6634 50.9345C33.7033 50.8434 33.815 50.7419 33.9538 50.8164L36.406 51.9039C36.5974 51.9809 36.5615 52.031 36.4047 52.0631L33.7315 52.6871C33.6519 52.7025 33.5555 52.6499 33.535 52.5215C33.4194 52.0207 33.454 51.4982 33.6634 50.9345ZM33.9525 53.3663L36.4805 52.2968C36.6257 52.2313 36.6848 52.2493 36.5756 52.4239L35.2345 54.7478C35.1664 54.8891 35.0161 54.8737 34.93 54.8236C34.4291 54.4923 34.0925 54.0892 33.8921 53.6167C33.833 53.5011 33.8792 53.401 33.9525 53.3663ZM34.1554 49.9921C34.4046 49.544 34.781 49.1755 35.3103 48.8969C35.4028 48.8558 35.5531 48.8545 35.6083 49.0022L36.7066 51.4481C36.7978 51.6343 36.7387 51.6458 36.5974 51.5662L34.1914 50.2489C34.122 50.2052 34.0848 50.0999 34.1554 49.9921ZM35.7612 55.0675L36.9301 52.5844C36.9969 52.4367 37.0509 52.4123 37.0881 52.6165L37.6405 55.2383C37.6829 55.3911 37.5609 55.4784 37.462 55.4989C36.8698 55.5875 36.3482 55.5118 35.8832 55.2961C35.7612 55.2499 35.7316 55.142 35.7612 55.0675Z" fill="#CAEC89"/>
</svg>
