<svg width="191" height="13" viewBox="0 0 191 13" fill="none" xmlns="http://www.w3.org/2000/svg">
<path fill-rule="evenodd" clip-rule="evenodd" d="M178.746 11.2952C182.462 11.2952 184.347 9.16196 186.011 7.28243C186.436 6.79844 186.399 6.05603 185.923 5.62373C185.447 5.19144 184.717 5.22903 184.292 5.71301C182.757 7.44688 181.431 8.94582 178.746 8.94582C176.056 8.94582 174.734 7.44688 173.2 5.71301C171.536 3.83347 169.655 1.7002 165.94 1.7002C162.224 1.7002 160.338 3.83347 158.674 5.71301C157.14 7.44688 155.818 8.94582 153.129 8.94582C150.439 8.94582 149.117 7.44688 147.583 5.71301C145.919 3.83347 144.038 1.7002 140.318 1.7002C136.602 1.7002 134.716 3.83347 133.057 5.71301C131.523 7.44688 130.196 8.94582 127.511 8.94582C124.826 8.94582 123.5 7.44688 121.965 5.71301C120.302 3.83347 118.421 1.7002 114.705 1.7002C110.989 1.7002 109.104 3.83347 107.444 5.71301C105.91 7.44688 104.588 8.94582 101.899 8.94582C99.2088 8.94582 97.887 7.44688 96.3527 5.71301L96.5237 5.90566C96.4867 5.83988 96.4405 5.7741 96.385 5.71301C94.7213 3.83347 92.8403 1.7002 89.1199 1.7002C85.4042 1.7002 83.5186 3.83347 81.8549 5.71301C80.3205 7.44688 78.9941 8.94582 76.309 8.94582C73.6192 8.94582 72.2975 7.44688 70.7631 5.71301C69.0993 3.83347 67.2184 1.7002 63.5026 1.7002C59.7869 1.7002 57.9013 3.83347 56.2421 5.71301C54.7078 7.44688 53.386 8.94582 50.6963 8.94582C48.0065 8.94582 46.6848 7.44688 45.1504 5.71301C43.4866 3.83347 41.6057 1.7002 37.8899 1.7002C34.1742 1.7002 32.2886 3.83347 30.6295 5.71301C29.0951 7.44688 27.7733 8.94582 25.0836 8.94582C22.3938 8.94582 21.0721 7.44688 19.5377 5.71301C17.8739 3.83347 15.993 1.7002 12.2772 1.7002C8.5615 1.7002 6.6759 3.83347 5.01676 5.71301L4.99827 5.73181C4.56384 6.21579 4.60082 6.9582 5.07684 7.3905C5.55286 7.82279 6.27844 7.7852 6.70825 7.30122L6.72674 7.28243C8.26109 5.54855 9.58286 4.04962 12.2726 4.04962C14.9624 4.04962 16.2841 5.54855 17.8185 7.28243C19.4822 9.16196 21.3632 11.2952 25.079 11.2952C28.7947 11.2952 30.6803 9.16196 32.3394 7.28243C33.8738 5.54855 35.1956 4.04962 37.8853 4.04962C40.5751 4.04962 41.8968 5.54855 43.4312 7.28243C45.0949 9.16196 46.9759 11.2952 50.6917 11.2952C54.4074 11.2952 56.293 9.16196 57.9521 7.28243C59.4865 5.54855 60.8083 4.04962 63.498 4.04962C66.1878 4.04962 67.5095 5.54855 69.0439 7.28243C70.7076 9.16196 72.5886 11.2952 76.3044 11.2952C80.0201 11.2952 81.9057 9.16196 83.5694 7.28243C85.1038 5.54855 86.4256 4.04962 89.1153 4.04962C91.6942 4.04962 93.0159 5.42638 94.4763 7.07098C94.5133 7.13676 94.5595 7.20254 94.615 7.26363L94.6335 7.28243C96.2972 9.16196 98.1782 11.2952 101.894 11.2952C105.61 11.2952 107.495 9.16196 109.154 7.28243C110.689 5.54855 112.011 4.04962 114.7 4.04962C117.39 4.04962 118.712 5.54855 120.246 7.28243C121.91 9.16196 123.791 11.2952 127.507 11.2952C131.222 11.2952 133.108 9.16196 134.767 7.28243C136.301 5.54855 137.628 4.04962 140.313 4.04962C143.003 4.04962 144.325 5.54855 145.859 7.28243C147.523 9.16196 149.404 11.2952 153.119 11.2952C156.835 11.2952 158.721 9.16196 160.384 7.28243C161.919 5.54855 163.241 4.04962 165.93 4.04962C168.62 4.04962 169.942 5.54855 171.476 7.28243C173.149 9.16666 175.03 11.2952 178.746 11.2952Z" fill="#26C6D0" stroke="#26C6D0" stroke-width="3" stroke-miterlimit="10" stroke-linejoin="round"/>
</svg>
